<svg width="150" height="150" viewBox="0 0 150 150" fill="none" xmlns="http://www.w3.org/2000/svg">
<path fill-rule="evenodd" clip-rule="evenodd" d="M19 15C16.7909 15 15 16.7909 15 19V131C15 133.209 16.7909 135 19 135H131C133.209 135 135 133.209 135 131V19C135 16.7909 133.209 15 131 15H19ZM47.638 113.382C51.0684 116.544 55.678 118.126 61.4668 118.126C66.9876 118.126 71.3292 116.598 74.4916 113.543C77.654 110.434 79.2352 105.958 79.2352 100.116V70.368H85.6672V60.72H58.9744V70.368H68.6224V100.116C68.6224 102.689 67.9524 104.672 66.6124 106.066C65.326 107.459 63.5036 108.156 61.1452 108.156C58.626 108.156 56.6696 107.459 55.276 106.066C53.8824 104.618 53.1856 102.635 53.1856 100.116V94.8096H42.5728V100.116C42.5728 105.798 44.2612 110.22 47.638 113.382ZM90.4391 114.749C93.7623 117 98.0235 118.126 103.223 118.126C108.315 118.126 112.361 117 115.363 114.749C118.418 112.444 119.946 109.201 119.946 105.02C119.946 102.233 119.222 100.036 117.775 98.4276C116.381 96.766 114.452 95.5064 111.986 94.6488C109.574 93.7376 106.867 93.014 103.866 92.478L101.615 92.076C99.7923 91.7544 98.3451 91.2988 97.2731 90.7092C96.2011 90.066 95.6651 89.1012 95.6651 87.8148C95.6651 86.6356 96.1743 85.7244 97.1927 85.0812C98.2111 84.3844 99.6851 84.036 101.615 84.036C103.544 84.036 105.152 84.4648 106.439 85.3224C107.779 86.18 108.663 87.6272 109.092 89.664L118.499 86.7696C117.587 83.5536 115.658 80.954 112.71 78.9708C109.762 76.9876 106.063 75.996 101.615 75.996C96.8979 75.996 93.0923 77.068 90.1979 79.212C87.3035 81.3024 85.8563 84.3308 85.8563 88.2972C85.8563 90.9236 86.5531 93.0676 87.9467 94.7292C89.3403 96.3908 91.1895 97.704 93.4943 98.6688C95.7991 99.58 98.3451 100.304 101.132 100.84L103.383 101.242C105.742 101.67 107.457 102.233 108.529 102.93C109.601 103.573 110.137 104.511 110.137 105.744C110.137 106.977 109.574 108.022 108.449 108.88C107.323 109.684 105.581 110.086 103.223 110.086C101.668 110.086 100.221 109.871 98.8811 109.442C97.5947 108.96 96.4959 108.183 95.5847 107.111C94.7271 106.039 94.1107 104.565 93.7355 102.689L84.4091 105.101C85.1059 109.282 87.1159 112.498 90.4391 114.749Z" fill="url(#paint0_linear_340_649)"/>
<defs>
<linearGradient id="paint0_linear_340_649" x1="15" y1="15" x2="130.5" y2="133" gradientUnits="userSpaceOnUse">
<stop stop-color="white"/>
<stop offset="1" stop-color="#D6D6D6"/>
</linearGradient>
</defs>
</svg>
