<svg width="150" height="150" viewBox="0 0 150 150" fill="none" xmlns="http://www.w3.org/2000/svg">
<path d="M113.785 50.9983C116.614 50.3811 119.442 52.0268 120.162 54.8554C120.882 57.7354 119.134 60.6669 116.254 61.3354C108.025 63.1869 99.0765 64.4726 90.5908 65.1926L104.643 126.907C104.643 129.736 102.329 132.05 99.5 132.05C96.6714 132.05 94.3571 129.736 94.3571 126.907L80.3051 101.193H70.0193L56.1429 126.907C56.1429 129.736 53.8286 132.05 51 132.05C48.1714 132.05 45.8571 129.736 45.8571 126.907L59.7336 65.1926C51.2479 64.4726 42.2993 63.1869 34.0192 61.3354C31.1907 60.6669 29.4421 57.7354 30.1621 54.8554C30.8821 52.0268 33.7107 50.3811 36.5393 50.9983C48.7793 53.724 62.4079 54.9068 75.1622 54.9068C87.9165 54.9068 101.545 53.724 113.785 50.9983Z" fill="url(#paint0_linear_340_616)"/>
<circle cx="75.7408" cy="32.9322" r="14.9322" fill="url(#paint1_linear_340_616)"/>
<defs>
<linearGradient id="paint0_linear_340_616" x1="30" y1="50.8691" x2="107.517" y2="138.984" gradientUnits="userSpaceOnUse">
<stop stop-color="white"/>
<stop offset="1" stop-color="#D6D6D6"/>
</linearGradient>
<linearGradient id="paint1_linear_340_616" x1="60.8086" y1="18" x2="89.5532" y2="47.3667" gradientUnits="userSpaceOnUse">
<stop stop-color="white"/>
<stop offset="1" stop-color="#D6D6D6"/>
</linearGradient>
</defs>
</svg>
