<svg width="36" height="36" viewBox="0 0 36 36" fill="none" xmlns="http://www.w3.org/2000/svg">
<g clip-path="url(#clip0_370_260)">
<path d="M35 19.001C35 16.939 34.633 14.962 33.96 13.133C33.5 18.522 30.627 21.29 27.625 20.001C24.813 18.793 26.708 14.084 26.848 11.837C27.084 8.02797 26.836 3.66797 19.917 0.0429688C22.792 5.54297 20.25 8.95997 17.584 9.16797C14.626 9.39897 11.917 6.62597 12.917 2.12597C9.679 4.51197 9.585 8.52797 10.584 11.126C11.626 13.834 10.542 16.084 8.001 16.334C5.161 16.614 3.583 13.293 5.038 8.00097C2.52 10.966 1 14.806 1 19.001C1 28.39 8.611 36.001 18 36.001C27.389 36.001 35 28.39 35 19.001Z" fill="#FB524A"/>
<g filter="url(#filter0_f_370_260)">
<path d="M27.4609 20.5178C27.6027 23.9824 25.0066 25.3407 23.6094 24.6846C21.5911 23.7375 22.1326 22.1108 21.6132 18.7405C21.0937 15.3703 19.0975 13.0302 16.143 12C18.2992 19.1146 14.948 21.7367 13.1913 22.2052C11.3973 22.6838 9.59471 22.2041 9.38867 17.7036C7.29567 20.1459 6 23.5252 6 27.2595C6 27.6729 6.02204 28.0796 6.05271 28.484C8.99479 31.8925 13.0361 34 17.5 34C21.9639 34 26.0052 31.8925 28.9473 28.484C28.978 28.0796 29 27.6729 29 27.2595C29 24.8025 28.4403 22.5006 27.4609 20.5178Z" fill="#FED38C"/>
</g>
</g>
<defs>
<filter id="filter0_f_370_260" x="1" y="7" width="33" height="32" filterUnits="userSpaceOnUse" color-interpolation-filters="sRGB">
<feFlood flood-opacity="0" result="BackgroundImageFix"/>
<feBlend mode="normal" in="SourceGraphic" in2="BackgroundImageFix" result="shape"/>
<feGaussianBlur stdDeviation="2.5" result="effect1_foregroundBlur_370_260"/>
</filter>
<clipPath id="clip0_370_260">
<rect width="36" height="36" fill="white"/>
</clipPath>
</defs>
</svg>
