<svg width="81" height="51" viewBox="0 0 81 51" fill="none" xmlns="http://www.w3.org/2000/svg">
<g clip-path="url(#clip0_405_263)">
<path d="M19.4019 19.5413H21.0849C22.2557 19.5413 23.0241 20.0576 23.0241 21.1674V21.1959C23.0241 22.3016 22.211 22.7895 21.1052 22.7895H20.3735V24.7815H19.4019V19.5413ZM21.0849 22.0781C21.7272 22.0781 22.0728 21.765 22.0728 21.1877V21.1593C22.0728 20.5373 21.7069 20.2934 21.0849 20.2934H20.3735V22.0781H21.0849Z" fill="white"/>
<path d="M23.7842 20.9438H24.6704V21.6633C24.7728 21.4218 24.9472 21.2176 25.1698 21.0786C25.3924 20.9397 25.6524 20.8727 25.9144 20.8869V21.6999C25.1379 21.6999 24.6704 21.9561 24.6704 22.7691V24.7612H23.7842V20.9438Z" fill="white"/>
<path d="M26.3616 22.8992V22.8545C26.3812 22.3484 26.5953 21.8693 26.9593 21.5171C27.3232 21.1648 27.809 20.9664 28.3155 20.9633C28.822 20.9602 29.3102 21.1525 29.6785 21.5002C30.0468 21.8479 30.2668 22.3243 30.2928 22.8301V22.8911C30.2698 23.397 30.0526 23.8745 29.6865 24.2243C29.3204 24.5741 28.8335 24.7693 28.3272 24.7693C27.8208 24.7693 27.3339 24.5741 26.9678 24.2243C26.6017 23.8745 26.3846 23.397 26.3616 22.8911V22.8992ZM29.3821 22.8992V22.8545C29.3821 22.0414 28.9756 21.5821 28.3292 21.5821C27.6828 21.5821 27.2844 22.0414 27.2844 22.8261V22.887C27.2844 23.6676 27.6909 24.1595 28.3455 24.1595C29 24.1595 29.3821 23.6676 29.3821 22.887V22.8992Z" fill="white"/>
<path d="M31.2401 21.6106H30.7197V20.9439H31.2401V20.4154C31.2201 20.2411 31.2396 20.0646 31.2972 19.8989C31.3548 19.7332 31.4491 19.5826 31.5729 19.4584C31.6967 19.3342 31.847 19.2394 32.0125 19.1813C32.178 19.1232 32.3545 19.1031 32.5288 19.1226C32.6999 19.117 32.8705 19.1417 33.0329 19.1958V19.8828C32.9021 19.8382 32.7646 19.8162 32.6264 19.8178C32.2686 19.8178 32.1223 20.0495 32.1223 20.3788V20.9439H32.9923V21.6106H32.1263V24.7734H31.2401V21.6106Z" fill="white"/>
<path d="M33.3337 22.8993V22.8546C33.3179 22.5972 33.3557 22.3393 33.4447 22.0973C33.5338 21.8553 33.6721 21.6345 33.851 21.4487C34.0298 21.263 34.2453 21.1164 34.4838 21.0183C34.7223 20.9202 34.9785 20.8727 35.2363 20.8788C36.1876 20.8788 37.0454 21.4398 37.0454 22.8099V23.066H34.2403C34.2728 23.7896 34.6468 24.2002 35.2973 24.2002C35.8299 24.2002 36.1104 23.9888 36.1754 23.6148H37.0413C36.9194 24.4279 36.2689 24.8588 35.2851 24.8588C35.0236 24.8763 34.7614 24.8376 34.5162 24.7452C34.2709 24.6528 34.0484 24.5089 33.8634 24.3232C33.6785 24.1375 33.5355 23.9143 33.4442 23.6687C33.3528 23.4231 33.3151 23.1607 33.3337 22.8993ZM36.1795 22.4602C36.1348 21.8017 35.7973 21.509 35.2485 21.509C34.9938 21.5066 34.748 21.6031 34.563 21.7783C34.378 21.9534 34.2681 22.1935 34.2566 22.4481L36.1795 22.4602Z" fill="white"/>
<path d="M37.5781 23.5822H38.4115C38.4562 23.9888 38.6554 24.1961 39.1758 24.1961C39.6962 24.1961 39.8629 24.0254 39.8629 23.7042C39.8629 23.383 39.6067 23.2733 39.0498 23.1798C38.0416 23.0172 37.6676 22.7326 37.6676 22.013C37.6676 21.2934 38.3831 20.8666 39.1026 20.8666C39.8832 20.8666 40.5052 21.1593 40.6028 22.0211H39.7897C39.7803 21.9423 39.755 21.8661 39.7155 21.7972C39.6759 21.7284 39.6228 21.6682 39.5594 21.6203C39.496 21.5725 39.4236 21.538 39.3465 21.5188C39.2694 21.4997 39.1892 21.4963 39.1108 21.5089C38.7286 21.5089 38.501 21.6918 38.501 21.9642C38.501 22.2366 38.6839 22.3504 39.314 22.4521C40.2125 22.5944 40.7491 22.8139 40.7491 23.6229C40.7491 24.4319 40.2003 24.8425 39.2165 24.8425C38.2326 24.8425 37.6147 24.3913 37.5781 23.5822Z" fill="white"/>
<path d="M41.1921 23.5822H42.0255C42.0703 23.9888 42.2695 24.1961 42.7898 24.1961C43.3102 24.1961 43.4769 24.0254 43.4769 23.7042C43.4769 23.383 43.2208 23.2733 42.6638 23.1798C41.6556 23.0172 41.2816 22.7326 41.2816 22.013C41.2816 21.2934 41.9971 20.8666 42.7167 20.8666C43.5013 20.8666 44.1233 21.1593 44.2168 22.0211H43.4037C43.3943 21.9423 43.3691 21.8661 43.3295 21.7972C43.2899 21.7284 43.2368 21.6682 43.1734 21.6203C43.11 21.5725 43.0376 21.538 42.9605 21.5188C42.8834 21.4997 42.8032 21.4963 42.7248 21.5089C42.3426 21.5089 42.115 21.6918 42.115 21.9642C42.115 22.2366 42.2979 22.3504 42.9281 22.4521C43.8265 22.5944 44.3631 22.8139 44.3631 23.6229C44.3631 24.4319 43.8143 24.8425 42.8345 24.8425C41.8548 24.8425 41.2287 24.3913 41.1921 23.5822Z" fill="white"/>
<path d="M45.0258 19.8096C45.0217 19.7043 45.0492 19.6002 45.1048 19.5106C45.1604 19.4211 45.2414 19.3502 45.3376 19.3071C45.4337 19.2639 45.5405 19.2505 45.6444 19.2685C45.7482 19.2866 45.8442 19.3352 45.9202 19.4083C45.9962 19.4813 46.0485 19.5754 46.0706 19.6784C46.0927 19.7815 46.0835 19.8888 46.0442 19.9865C46.0049 20.0843 45.9372 20.168 45.8499 20.2271C45.7626 20.2861 45.6597 20.3177 45.5543 20.3177C45.486 20.3199 45.418 20.3084 45.3542 20.2839C45.2904 20.2594 45.2322 20.2223 45.183 20.175C45.1337 20.1276 45.0944 20.0709 45.0675 20.0082C45.0405 19.9454 45.0263 19.8779 45.0258 19.8096ZM45.1233 20.9438H46.0096V24.7734H45.1233V20.9438Z" fill="white"/>
<path d="M46.8267 22.8992V22.8545C46.8463 22.3484 47.0604 21.8693 47.4244 21.5171C47.7883 21.1648 48.2741 20.9664 48.7806 20.9633C49.2871 20.9602 49.7753 21.1525 50.1436 21.5002C50.5119 21.8479 50.7319 22.3243 50.7579 22.8301V22.8911C50.7349 23.397 50.5177 23.8745 50.1516 24.2243C49.7855 24.5741 49.2986 24.7693 48.7923 24.7693C48.2859 24.7693 47.799 24.5741 47.4329 24.2243C47.0668 23.8745 46.8497 23.397 46.8267 22.8911V22.8992ZM49.8513 22.8992V22.8545C49.8513 22.0414 49.4448 21.5821 48.7984 21.5821C48.152 21.5821 47.7332 22.0414 47.7332 22.8261V22.887C47.7332 23.6676 48.1398 24.1595 48.7984 24.1595C49.457 24.1595 49.8513 23.6676 49.8513 22.887V22.8992Z" fill="white"/>
<path d="M51.5547 20.9438H52.4409V21.5536C52.5587 21.3357 52.7358 21.1556 52.9516 21.034C53.1674 20.9125 53.4132 20.8544 53.6606 20.8666C54.4289 20.8666 54.9696 21.3097 54.9696 22.3667V24.7734H54.1159V22.448C54.1159 21.8707 53.8801 21.6065 53.3516 21.6065C53.2303 21.5991 53.1088 21.6179 52.9954 21.6615C52.8819 21.7051 52.7792 21.7725 52.694 21.8592C52.6089 21.9459 52.5433 22.0498 52.5017 22.164C52.4602 22.2782 52.4436 22.4 52.4531 22.5212V24.7775H51.5547V20.9438Z" fill="white"/>
<path d="M55.7422 23.7124C55.7422 22.818 56.604 22.4928 57.7017 22.4928H58.1814V22.2936C58.1814 21.7813 58.0066 21.5252 57.4862 21.5252C57.3979 21.512 57.3078 21.5175 57.2218 21.5413C57.1357 21.5652 57.0556 21.6068 56.9867 21.6635C56.9177 21.7202 56.8614 21.7907 56.8214 21.8705C56.7814 21.9504 56.7586 22.0377 56.7545 22.1269H55.9007C55.9739 21.2325 56.6813 20.8625 57.5269 20.8625C58.3725 20.8625 59.0555 21.2122 59.0555 22.257V24.7694H58.1814V24.3059C58.0482 24.488 57.8708 24.6332 57.666 24.7278C57.4611 24.8223 57.2356 24.8632 57.0106 24.8466C56.3032 24.8466 55.7422 24.5092 55.7422 23.7124ZM58.1814 23.4359V23.0538H57.7302C57.0553 23.0538 56.6244 23.2083 56.6244 23.6758C56.6244 23.997 56.7992 24.2084 57.2382 24.2084C57.7749 24.2084 58.1814 23.9238 58.1814 23.4359Z" fill="white"/>
<path d="M60.0879 19.1957H60.9741V24.7734H60.0879V19.1957Z" fill="white"/>
<path d="M27.9187 27.672H29.6018C30.7726 27.672 31.5409 28.1883 31.5409 29.2981V29.3266C31.5409 30.4324 30.7279 30.9202 29.6262 30.9202H28.9107V32.9123H27.935L27.9187 27.672ZM29.6018 30.2088C30.2482 30.2088 30.5896 29.8958 30.5896 29.3185V29.29C30.5896 28.668 30.2238 28.4241 29.6018 28.4241H28.9107V30.2088H29.6018Z" fill="white"/>
<path d="M31.9517 31.8431C31.9517 30.9487 32.8135 30.6235 33.9112 30.6235H34.3868V30.4243C34.3868 29.912 34.212 29.6559 33.6916 29.6559C33.6042 29.6452 33.5156 29.6526 33.4312 29.6778C33.3468 29.703 33.2686 29.7454 33.2014 29.8023C33.1342 29.8592 33.0795 29.9293 33.0407 30.0084C33.0019 30.0875 32.98 30.1737 32.9761 30.2616H32.1224C32.1956 29.3673 32.903 28.9973 33.7486 28.9973C34.5941 28.9973 35.2771 29.3469 35.2771 30.3917V32.9041H34.4031V32.4366C34.2698 32.6187 34.0925 32.7639 33.8876 32.8585C33.6828 32.953 33.4573 32.9939 33.2322 32.9773C32.5289 32.9773 31.9517 32.6399 31.9517 31.8431ZM34.3909 31.5666V31.1845H33.9356C33.2607 31.1845 32.8298 31.339 32.8298 31.8065C32.8298 32.1276 33.0046 32.3391 33.4436 32.3391C33.9843 32.3391 34.3868 32.0545 34.3868 31.5666H34.3909Z" fill="white"/>
<path d="M36.2893 29.0746H37.1756V29.7942C37.2784 29.5529 37.4529 29.3491 37.6754 29.2102C37.8979 29.0714 38.1576 29.0042 38.4196 29.0177V29.8308C37.6431 29.8308 37.1756 30.0869 37.1756 30.9V32.892H36.2893V29.0746Z" fill="white"/>
<path d="M39.3789 31.8349V29.7413H38.8667V29.0746H39.3789V28.233H40.2652V29.0746H41.1067V29.7413H40.2652V31.774C40.2652 32.1114 40.4237 32.2659 40.7042 32.2659C40.8514 32.2715 40.9981 32.2466 41.1352 32.1927V32.896C40.9415 32.9617 40.738 32.9934 40.5335 32.9895C40.377 33.0102 40.2178 32.9946 40.0683 32.9439C39.9188 32.8932 39.7829 32.8088 39.6713 32.6971C39.5597 32.5855 39.4752 32.4497 39.4245 32.3002C39.3738 32.1506 39.3582 31.9915 39.3789 31.8349Z" fill="white"/>
<path d="M41.9199 29.0746H42.8062V29.6844C42.924 29.4665 43.101 29.2863 43.3168 29.1648C43.5326 29.0432 43.7784 28.9851 44.0258 28.9973C44.7941 28.9973 45.3348 29.4404 45.3348 30.4974V32.9041H44.4811V30.5787C44.4811 30.0015 44.2453 29.7372 43.7168 29.7372C43.5955 29.7299 43.474 29.7486 43.3606 29.7922C43.2472 29.8358 43.1444 29.9032 43.0592 29.9899C42.9741 30.0766 42.9085 30.1806 42.867 30.2948C42.8254 30.409 42.8088 30.5308 42.8184 30.6519V32.9082H41.9199V29.0746Z" fill="white"/>
<path d="M46.1234 31.03V30.9853C46.1059 30.7276 46.1422 30.4691 46.2299 30.2262C46.3177 29.9833 46.455 29.7613 46.6332 29.5744C46.8113 29.3874 47.0265 29.2396 47.2648 29.1402C47.5032 29.0409 47.7597 28.9922 48.0179 28.9973C48.9733 28.9973 49.827 29.5583 49.827 30.9284V31.1845H47.0259C47.0544 31.9081 47.4325 32.3187 48.0789 32.3187C48.6114 32.3187 48.892 32.1073 48.957 31.7333H49.8148C49.6888 32.5464 49.0383 32.9773 48.0545 32.9773C47.7957 32.9916 47.5369 32.9509 47.295 32.8579C47.0532 32.7649 46.8338 32.6217 46.6513 32.4376C46.4688 32.2536 46.3275 32.0331 46.2365 31.7904C46.1455 31.5478 46.107 31.2886 46.1234 31.03ZM48.9692 30.5909C48.9245 29.9323 48.5871 29.6396 48.0382 29.6396C47.7835 29.6373 47.5377 29.7338 47.3527 29.909C47.1677 30.0841 47.0578 30.3242 47.0463 30.5787L48.9692 30.5909Z" fill="white"/>
<path d="M50.6238 29.0746H51.51V29.7942C51.6129 29.5529 51.7874 29.3491 52.0099 29.2102C52.2324 29.0714 52.4921 29.0042 52.754 29.0177V29.8308C51.9775 29.8308 51.51 30.0869 51.51 30.9V32.892H50.6238V29.0746Z" fill="white"/>
<path d="M42.6475 8.34927L41.2043 8.31675L41.1718 9.84532H40.7246L40.8059 6.37756L42.9362 6.42635V6.80443L41.249 6.76377L41.2247 7.95086L42.6679 7.98339L42.6475 8.34927Z" fill="white"/>
<path d="M44.8754 8.5973L44.1842 8.54851L44.0785 9.9592L43.6436 9.92667L43.8956 6.46704L44.9079 6.54022C45.0621 6.55391 45.2139 6.58809 45.3591 6.64185C45.4923 6.69203 45.615 6.76646 45.721 6.86138C45.8221 6.95622 45.9 7.07307 45.9486 7.20287C46.0039 7.3507 46.0234 7.50951 46.0055 7.66633C45.9999 7.77114 45.9766 7.87424 45.9364 7.97123C45.8579 8.14799 45.7293 8.29782 45.5665 8.40216C45.4811 8.45601 45.3897 8.49967 45.2941 8.53225L45.9202 10.0649V10.0934L45.4567 10.0568L44.8754 8.5973ZM44.2086 8.19076L44.7981 8.23141C44.8923 8.23966 44.9873 8.2314 45.0786 8.20702C45.1643 8.18461 45.2455 8.14747 45.3185 8.09726C45.3922 8.0438 45.4528 7.97432 45.4958 7.89404C45.5387 7.81376 45.5629 7.72478 45.5665 7.6338C45.5755 7.5337 45.5644 7.43281 45.534 7.33703C45.5042 7.25479 45.457 7.17992 45.3957 7.1175C45.3318 7.05413 45.2558 7.00434 45.1721 6.97115C45.0795 6.93578 44.9823 6.91387 44.8835 6.9061L44.3062 6.86545L44.2086 8.19076Z" fill="white"/>
<path d="M48.6439 8.80465L47.2048 8.62578L47.0543 9.84539L48.7293 10.0527L48.6805 10.4267L46.5706 10.1625L46.9771 6.71912L49.0708 6.9793L49.022 7.35331L47.3674 7.15005L47.2291 8.25583L48.6683 8.4347L48.6439 8.80465Z" fill="white"/>
<path d="M51.6197 9.30055L50.1928 9.03223L49.9773 10.2518L51.6401 10.5486L51.575 10.9186L49.4773 10.5405L50.0912 7.12964L52.1645 7.49959L52.0995 7.86954L50.4733 7.57683L50.2782 8.67448L51.7011 8.9306L51.6197 9.30055Z" fill="white"/>
<path d="M52.8964 10.8332L54.547 11.2397L54.4575 11.6016L52.3801 11.1056L53.1932 7.73132L53.6241 7.83296L52.8964 10.8332Z" fill="white"/>
<path d="M57.0185 11.4145L55.9087 11.0649L55.3802 11.8373L54.9736 11.7113L57.0673 8.72327L57.4169 8.83303L57.4494 12.4919L57.0429 12.3618L57.0185 11.4145ZM56.1485 10.7438L57.0307 11.0161V9.43877L56.1485 10.7438Z" fill="white"/>
<path d="M59.9823 13.4595L59.5757 13.2969L59.2627 10.3942L58.3155 12.809L57.9089 12.6464L59.1651 9.41443L59.5717 9.57704L59.8888 12.4757L60.8319 10.0649L61.2385 10.2275L59.9823 13.4595Z" fill="white"/>
<path d="M63.1248 13.8009C63.0407 13.9292 62.9379 14.0443 62.8199 14.1424C62.7105 14.2339 62.5851 14.3042 62.45 14.3498C62.3186 14.3905 62.1806 14.4057 62.0434 14.3945C61.8891 14.381 61.7387 14.3382 61.6003 14.2685C61.4814 14.2108 61.3729 14.1339 61.2791 14.0408C61.1924 13.9585 61.1221 13.8606 61.0718 13.7521C61.0192 13.6491 60.9848 13.5377 60.9702 13.4229C60.9559 13.304 60.9559 13.1839 60.9702 13.0651C60.9769 12.9389 60.9959 12.8136 61.0271 12.6911C61.0636 12.5683 61.1098 12.4487 61.1653 12.3333L61.3767 11.8983C61.4328 11.7839 61.4995 11.675 61.5759 11.5731C61.6462 11.4706 61.7281 11.3765 61.8198 11.2926C61.9078 11.2103 62.0046 11.138 62.1085 11.0771C62.313 10.9604 62.5494 10.912 62.7833 10.9389C62.9151 10.9568 63.0428 10.9967 63.1614 11.0568C63.3052 11.1239 63.4348 11.2177 63.5436 11.3333C63.6405 11.4361 63.7153 11.5579 63.7631 11.691C63.8076 11.8217 63.827 11.9596 63.82 12.0975C63.8116 12.2544 63.7801 12.4092 63.7265 12.5569L63.32 12.3618C63.3515 12.2669 63.372 12.1687 63.3809 12.0691C63.3888 11.9764 63.382 11.8831 63.3606 11.7926C63.3366 11.7053 63.2951 11.6237 63.2387 11.5528C63.1699 11.4739 63.0854 11.4102 62.9907 11.3658C62.9058 11.3231 62.8131 11.2982 62.7183 11.2926C62.6356 11.2869 62.5526 11.2979 62.4744 11.3251C62.3939 11.3538 62.3184 11.3949 62.2508 11.4471C62.1813 11.5003 62.1173 11.5602 62.0597 11.626C61.9997 11.6947 61.9453 11.7681 61.8971 11.8455C61.8478 11.92 61.803 11.9974 61.7629 12.0772L61.5515 12.5163C61.5114 12.5954 61.4761 12.6768 61.4458 12.7602C61.4171 12.8467 61.394 12.935 61.3767 13.0244C61.3573 13.1126 61.3478 13.2025 61.3483 13.2928C61.3496 13.377 61.3633 13.4605 61.3889 13.5407C61.4173 13.6197 61.46 13.6927 61.5149 13.7562C61.5788 13.8276 61.6562 13.8856 61.7426 13.927C61.8339 13.9731 61.9333 14.0007 62.0353 14.0083C62.1257 14.0143 62.2162 13.999 62.2996 13.9635C62.3835 13.9285 62.4605 13.879 62.5272 13.8172C62.6005 13.7472 62.6659 13.6695 62.7223 13.5855L63.1248 13.8009Z" fill="white"/>
<path d="M65.7105 14.7238L64.4909 13.9595L63.8404 15.0043L65.2755 15.8946L65.0803 16.2158L63.2712 15.0897L65.1007 12.1464L66.8935 13.2562L66.6943 13.5774L65.2673 12.6911L64.686 13.6221L65.9056 14.3864L65.7105 14.7238Z" fill="white"/>
<path d="M67.4422 16.2401L66.9056 15.8011L66.0112 16.8987L65.6697 16.6223L67.865 13.9351L68.6537 14.5774C68.7704 14.678 68.8741 14.7927 68.9626 14.9189C69.0456 15.0414 69.1024 15.1799 69.1293 15.3254C69.1637 15.4587 69.1637 15.5986 69.1293 15.732C69.0891 15.882 69.0154 16.021 68.9138 16.1385C68.8476 16.2216 68.7679 16.2931 68.6781 16.3499C68.5972 16.4018 68.5077 16.439 68.4138 16.4597C68.3209 16.4834 68.225 16.493 68.1292 16.4881C68.0274 16.4838 67.9264 16.4674 67.8284 16.4393L67.4625 18.0655L67.4422 18.0858L67.0844 17.7931L67.4422 16.2401ZM67.1251 15.5368L67.5845 15.9108C67.6581 15.9704 67.7403 16.0184 67.8284 16.0531C67.9117 16.0837 67.9998 16.0988 68.0886 16.0978C68.1744 16.0969 68.2589 16.0775 68.3366 16.0409C68.4221 15.9983 68.497 15.9372 68.5561 15.862C68.6195 15.7851 68.6678 15.6968 68.6984 15.6019C68.7165 15.5161 68.7165 15.4275 68.6984 15.3417C68.6812 15.2531 68.6467 15.1688 68.5967 15.0937C68.5417 15.011 68.4745 14.937 68.3975 14.8742L67.9503 14.5083L67.1251 15.5368Z" fill="white"/>
<path d="M69.6823 19.2404C69.7548 19.1795 69.8084 19.0991 69.8367 19.0087C69.8552 18.9229 69.8552 18.8343 69.8367 18.7485C69.8238 18.655 69.7992 18.5635 69.7636 18.4761C69.731 18.3867 69.6945 18.2973 69.6619 18.22C69.6086 18.0968 69.5624 17.9705 69.5237 17.8419C69.4821 17.7101 69.4575 17.5735 69.4505 17.4354C69.4464 17.3062 69.4629 17.1772 69.4993 17.0532C69.5448 16.9243 69.625 16.8103 69.731 16.724C69.8343 16.6304 69.9606 16.5659 70.0969 16.5369C70.2308 16.5067 70.3696 16.5067 70.5035 16.5369C70.6374 16.5642 70.7655 16.6152 70.8815 16.6874C70.9993 16.7599 71.1049 16.8504 71.1946 16.9557C71.2915 17.0685 71.3698 17.1961 71.4263 17.3338C71.4771 17.4636 71.5059 17.601 71.5117 17.7403C71.5121 17.8799 71.4845 18.0181 71.4304 18.1468C71.3744 18.2846 71.2866 18.4072 71.1743 18.5046L70.8775 18.1631C70.9403 18.0932 70.9936 18.0152 71.036 17.9314C71.0715 17.8532 71.0922 17.7691 71.097 17.6834C71.1011 17.5978 71.0887 17.5122 71.0604 17.4313C71.0249 17.3406 70.974 17.2567 70.91 17.1833C70.8555 17.1208 70.7925 17.066 70.723 17.0207C70.6542 16.9781 70.5786 16.9479 70.4994 16.9313C70.4232 16.913 70.3438 16.913 70.2677 16.9313C70.1864 16.951 70.1111 16.9901 70.0481 17.0451C69.9799 17.1034 69.9316 17.1816 69.9099 17.2687C69.8937 17.3533 69.8937 17.4402 69.9099 17.5248C69.9243 17.6154 69.9488 17.704 69.9831 17.7891C70.0156 17.8785 70.0481 17.9598 70.0807 18.033C70.1194 18.1164 70.1534 18.2019 70.1823 18.2891C70.2142 18.3767 70.24 18.4663 70.2595 18.5574C70.2797 18.6456 70.2919 18.7354 70.2961 18.8258C70.3001 18.9145 70.2919 19.0034 70.2717 19.09C70.2546 19.176 70.2229 19.2585 70.1782 19.3339C70.1266 19.4356 70.0563 19.5266 69.9709 19.6022C69.8642 19.6977 69.7335 19.7624 69.5928 19.7892C69.459 19.8195 69.3201 19.8195 69.1863 19.7892C69.053 19.7575 68.9264 19.7024 68.8123 19.6266C68.6957 19.5478 68.5892 19.455 68.4952 19.3502C68.3953 19.2275 68.3144 19.0904 68.2553 18.9436C68.1954 18.8058 68.1596 18.6586 68.1496 18.5087C68.141 18.3624 68.1617 18.2159 68.2106 18.0777C68.2618 17.9317 68.3501 17.8014 68.4667 17.6996L68.7635 18.0371C68.6946 18.1114 68.6407 18.1984 68.6049 18.2932C68.5692 18.378 68.5525 18.4696 68.5562 18.5615C68.5569 18.6543 68.5777 18.7458 68.6171 18.8298C68.6561 18.924 68.7111 19.0106 68.7797 19.0859C68.8356 19.1499 68.8999 19.2059 68.9708 19.2526C69.0371 19.3007 69.1114 19.3365 69.1903 19.3583C69.2683 19.3726 69.3482 19.3726 69.4261 19.3583C69.5212 19.3448 69.6102 19.3039 69.6823 19.2404Z" fill="white"/>
<path d="M71.6702 22.7326C71.7698 22.7165 71.8714 22.7165 71.971 22.7326C72.0651 22.7493 72.1566 22.7779 72.2434 22.818C72.3349 22.8609 72.4221 22.9127 72.5036 22.9725C72.5929 23.0409 72.6784 23.1142 72.7597 23.192C72.8681 23.0737 72.9864 22.9648 73.1134 22.8668C73.2231 22.7816 73.3512 22.7231 73.4874 22.696C73.6082 22.6718 73.7325 22.6718 73.8533 22.696C73.9579 22.7105 74.0571 22.751 74.1419 22.8139C74.2284 22.8749 74.3005 22.9539 74.3533 23.0456C74.4133 23.1502 74.4546 23.2643 74.4753 23.3831C74.4956 23.4864 74.4956 23.5927 74.4753 23.6961C74.4551 23.7896 74.4164 23.878 74.3615 23.9563C74.3076 24.0318 74.24 24.0966 74.1623 24.1473C74.0803 24.1991 73.9892 24.235 73.8939 24.253C73.8173 24.2671 73.7388 24.2671 73.6622 24.253C73.5891 24.2411 73.518 24.2192 73.4508 24.188C73.381 24.1572 73.3154 24.1176 73.2557 24.0701C73.1877 24.0195 73.1225 23.9653 73.0605 23.9075L72.8288 23.7245L72.0157 24.6271C72.1304 24.6639 72.2492 24.6857 72.3694 24.6921C72.5054 24.701 72.642 24.6928 72.776 24.6677L72.8532 25.0742C72.6657 25.1104 72.4739 25.1186 72.2841 25.0986C72.1055 25.0756 71.9322 25.0219 71.7718 24.9401L71.3002 25.4686L71.1905 24.9238L71.41 24.6799C71.1696 24.4918 71.005 24.2234 70.9466 23.9238C70.9205 23.7799 70.9205 23.6326 70.9466 23.4888C70.9658 23.3633 71.01 23.2431 71.0766 23.1351C71.1396 23.0315 71.2242 22.9427 71.3246 22.8749C71.4294 22.8053 71.5468 22.7569 71.6702 22.7326ZM71.3002 23.8546C71.3223 23.9647 71.3651 24.0695 71.4263 24.1636C71.4864 24.2606 71.5635 24.346 71.6539 24.4157L72.5117 23.4603L72.4426 23.4074C72.3736 23.3495 72.2987 23.2991 72.219 23.257C72.159 23.223 72.0948 23.197 72.0279 23.1798C71.9763 23.1649 71.9231 23.1567 71.8694 23.1554H71.7556C71.6798 23.1708 71.6071 23.1982 71.5401 23.2367C71.4789 23.2756 71.4252 23.3252 71.3815 23.3831C71.3394 23.4442 71.3104 23.5134 71.2962 23.5863C71.2803 23.6752 71.2817 23.7663 71.3002 23.8546ZM73.5768 23.1188C73.485 23.1378 73.3979 23.1752 73.3207 23.2286C73.2292 23.2942 73.1435 23.3677 73.0646 23.4481L73.337 23.6798C73.3749 23.7173 73.4172 23.7501 73.463 23.7774C73.5016 23.7994 73.5425 23.8171 73.585 23.8302H73.7029H73.8167C73.8616 23.8183 73.9051 23.8019 73.9468 23.7815C73.988 23.7596 74.0241 23.7291 74.0525 23.692C74.0807 23.6558 74.1015 23.6144 74.1135 23.5701C74.1257 23.5234 74.1257 23.4744 74.1135 23.4278C74.1 23.3673 74.0737 23.3105 74.0362 23.2611C74.0019 23.2176 73.959 23.1817 73.9102 23.1554C73.8591 23.1301 73.8041 23.1136 73.7476 23.1066C73.6904 23.1038 73.6331 23.1079 73.5768 23.1188Z" fill="white"/>
<path d="M70.8125 30.4609C70.8974 30.5053 70.9939 30.5224 71.0889 30.5097C71.1757 30.4976 71.2588 30.4671 71.3328 30.4202C71.4138 30.3724 71.4877 30.3136 71.5524 30.2454L71.7475 30.0422C71.8387 29.945 71.9351 29.8527 72.0361 29.7657C72.1361 29.6766 72.2467 29.6001 72.3654 29.5381C72.4819 29.4814 72.6069 29.4443 72.7354 29.4283C72.8755 29.4151 73.0164 29.4419 73.1419 29.5055C73.2685 29.5631 73.3788 29.6511 73.4631 29.7616C73.5396 29.8705 73.5935 29.9935 73.6216 30.1235C73.6444 30.258 73.6444 30.3954 73.6216 30.53C73.6041 30.6704 73.5657 30.8074 73.5078 30.9365C73.4444 31.0715 73.3592 31.1951 73.2557 31.3024C73.154 31.4042 73.0358 31.488 72.9061 31.5504C72.7781 31.6082 72.64 31.64 72.4996 31.6439C72.3495 31.6496 72.2003 31.6189 72.0646 31.5545L72.2557 31.1479C72.3452 31.176 72.4383 31.1911 72.5321 31.1927C72.618 31.1961 72.7037 31.1823 72.7842 31.152C72.8641 31.1201 72.9373 31.0732 72.9996 31.0138C73.0701 30.9468 73.1267 30.8667 73.1663 30.778C73.1997 30.7014 73.2229 30.6208 73.2354 30.5381C73.2497 30.4588 73.2497 30.3776 73.2354 30.2983C73.219 30.2227 73.1856 30.1518 73.1378 30.0909C73.0859 30.0248 73.019 29.9718 72.9427 29.9365C72.8606 29.8972 72.7682 29.8844 72.6785 29.8999C72.594 29.9134 72.5135 29.9453 72.4427 29.9934C72.3661 30.0422 72.2952 30.0995 72.2313 30.1641L72.0483 30.3552C71.9874 30.4243 71.9223 30.4894 71.8573 30.5544C71.7892 30.6184 71.7172 30.6781 71.6418 30.7333C71.5685 30.7869 71.491 30.8344 71.4101 30.8756C71.3313 30.9142 71.248 30.9429 71.1621 30.9609C71.0744 30.9732 70.9855 30.9732 70.8978 30.9609C70.803 30.95 70.7108 30.9225 70.6255 30.8796C70.4936 30.8251 70.3806 30.7333 70.3002 30.6154C70.2238 30.506 70.1724 30.381 70.1498 30.2495C70.1258 30.115 70.1258 29.9774 70.1498 29.843C70.1685 29.7018 70.2097 29.5646 70.2718 29.4364C70.337 29.2966 70.4234 29.1677 70.5279 29.0543C70.6296 28.9442 70.7492 28.8521 70.8816 28.7819C71.0085 28.7173 71.1464 28.6773 71.2881 28.664C71.4416 28.6536 71.5953 28.6815 71.7353 28.7453L71.5483 29.1518C71.4511 29.1209 71.3493 29.1072 71.2475 29.1112C71.1561 29.1164 71.0665 29.1385 70.9832 29.1762C70.9058 29.224 70.8382 29.2861 70.784 29.3592C70.7152 29.4336 70.6589 29.5188 70.6173 29.6112C70.5813 29.6889 70.5553 29.7709 70.5401 29.8552C70.5259 29.9358 70.5259 30.0184 70.5401 30.0991C70.5535 30.1767 70.584 30.2503 70.6295 30.3145C70.6765 30.3786 70.7397 30.4291 70.8125 30.4609Z" fill="white"/>
<path d="M71.9263 33.4652L70.2229 32.8228L71.1905 34.3839L70.849 34.7905L68.1455 32.6196L68.4138 32.2821L69.4912 33.1481L70.601 34.0831L69.544 32.4163L69.7025 32.2171L71.4872 32.9001L70.3774 32.0707L69.296 31.2048L69.5643 30.8715L72.2678 33.0424L71.9263 33.4652Z" fill="white"/>
<path d="M67.0235 34.8433L67.9016 34.0831L67.5317 33.2213L67.865 32.9326L69.2798 36.2703L69.0033 36.5142L65.9055 34.6441L66.2389 34.3596L67.0235 34.8433ZM68.0602 34.4368L67.365 35.0507L68.6944 35.8881L68.0602 34.4368Z" fill="white"/>
<path d="M65.2714 35.4938L63.8729 36.4207L63.6697 36.1077L65.4584 34.9409L67.3529 37.8436L66.987 38.0834L65.2714 35.4938Z" fill="white"/>
<path d="M62.7671 37.0061L61.2589 37.7785L61.0881 37.4492L62.9907 36.4735L64.5681 39.5632L64.1616 39.7624L62.7671 37.0061Z" fill="white"/>
<path d="M59.2668 39.9291L60.6084 39.3843L60.145 38.246L58.5879 38.8965L58.4497 38.5468L60.4214 37.7338L61.7264 40.9454L59.775 41.7585L59.6327 41.4089L61.1776 40.7828L60.771 39.7502L59.401 40.2909L59.2668 39.9291Z" fill="white"/>
<path d="M57.0593 40.5064L57.7179 40.295L57.2829 38.9453L57.6894 38.8112L58.7545 42.1122L57.787 42.4253C57.6393 42.4707 57.4861 42.4953 57.3316 42.4984C57.1932 42.5028 57.0553 42.4807 56.9251 42.4334C56.7963 42.3832 56.6808 42.3039 56.5877 42.2017C56.4826 42.0847 56.4049 41.9458 56.36 41.7951C56.295 41.6026 56.295 41.3941 56.36 41.2016C56.3933 41.1107 56.4384 41.0246 56.4942 40.9455C56.5542 40.8642 56.6223 40.7893 56.6975 40.7219L55.5388 39.5226L55.9819 39.3803L57.0593 40.5064ZM57.8317 40.6365L57.2666 40.8195C57.1773 40.8487 57.0935 40.8927 57.0186 40.9495C56.9457 41.0006 56.8835 41.0655 56.8357 41.1406C56.7905 41.215 56.7614 41.2982 56.7503 41.3845C56.7398 41.4793 56.7509 41.5752 56.7828 41.665C56.811 41.761 56.8595 41.8497 56.9251 41.9252C56.9828 41.9905 57.0534 42.0431 57.1324 42.0797C57.2152 42.1127 57.3036 42.1293 57.3926 42.1285C57.4934 42.1272 57.5935 42.1108 57.6894 42.0797L58.2382 41.9008L57.8317 40.6365Z" fill="white"/>
<path d="M52.124 40.36L52.7745 43.7668L51.9858 43.9172C51.7686 43.9621 51.5444 43.9621 51.3272 43.9172C51.1334 43.8806 50.9501 43.8014 50.7906 43.6855C50.6262 43.5688 50.4878 43.4193 50.384 43.2464C50.2761 43.0527 50.2005 42.8425 50.1604 42.6244L50.1117 42.3764C50.0754 42.1584 50.0754 41.9359 50.1117 41.7178C50.1368 41.5219 50.2044 41.3338 50.3097 41.1667C50.415 40.9996 50.5556 40.8575 50.7215 40.7503C50.9088 40.6318 51.1172 40.5503 51.3353 40.5104L52.124 40.36ZM52.2663 43.4944L51.75 40.799L51.4004 40.8641C51.2372 40.894 51.0822 40.9577 50.9451 41.0511C50.8253 41.1349 50.7276 41.2465 50.6605 41.3763C50.5922 41.5023 50.5494 41.6404 50.5345 41.7829C50.5222 41.9487 50.5317 42.1155 50.5629 42.2788L50.6117 42.5309C50.6404 42.6939 50.6939 42.8516 50.7702 42.9984C50.8355 43.1317 50.9267 43.2505 51.0386 43.348C51.1501 43.4394 51.2807 43.5047 51.4207 43.5391C51.5842 43.5742 51.7532 43.5742 51.9167 43.5391L52.2663 43.4944Z" fill="white"/>
<path d="M49.6441 44.3318L47.5667 44.6124L47.5139 44.2302L48.3269 44.1204L47.9651 41.4414L47.1521 41.5511L47.1033 41.1771L49.1807 40.8966L49.2295 41.2747L48.4164 41.3804L48.7782 44.0595L49.5913 43.9538L49.6441 44.3318Z" fill="white"/>
<path d="M44.0825 41.9049C44.2074 41.7358 44.3685 41.5969 44.5541 41.4983C44.7426 41.398 44.9507 41.3397 45.1639 41.3276C45.421 41.3037 45.6786 41.3667 45.8957 41.5065C45.9975 41.5729 46.0892 41.6537 46.1681 41.7463C46.2473 41.8412 46.3155 41.9449 46.3713 42.0553C46.4312 42.1678 46.4789 42.2863 46.5136 42.409C46.5465 42.5344 46.5696 42.6621 46.5827 42.7911L46.6152 43.1976C46.6266 43.3329 46.6266 43.4689 46.6152 43.6042C46.6032 43.7306 46.58 43.8558 46.5461 43.9782C46.5117 44.0964 46.4654 44.2108 46.4079 44.3197C46.3499 44.4241 46.2758 44.5188 46.1884 44.6002C46.1007 44.6839 45.9989 44.7514 45.8875 44.7994C45.7595 44.8576 45.6215 44.8907 45.481 44.897C45.3296 44.9121 45.1767 44.8997 45.0298 44.8604C44.8946 44.8236 44.7677 44.7616 44.6557 44.6774C44.5442 44.5915 44.4515 44.4836 44.3834 44.3603C44.3093 44.2349 44.2584 44.0972 44.2329 43.9538L44.6679 43.9172C44.6901 44.0107 44.7243 44.1008 44.7696 44.1855C44.8111 44.2637 44.8662 44.3339 44.9322 44.3929C44.9976 44.4483 45.0737 44.4898 45.1558 44.5148C45.2505 44.5436 45.35 44.5533 45.4485 44.5433C45.5439 44.538 45.6369 44.5116 45.7209 44.466C45.7966 44.4261 45.8641 44.3723 45.9201 44.3075C45.9743 44.2399 46.0182 44.1645 46.0502 44.0839C46.0857 44.0004 46.1116 43.9131 46.1274 43.8237C46.1462 43.7327 46.1571 43.6402 46.1599 43.5473C46.1661 43.4579 46.1661 43.3683 46.1599 43.279L46.1274 42.8724C46.1274 42.787 46.103 42.6976 46.0827 42.6082C46.0591 42.5172 46.0306 42.4277 45.9973 42.3399C45.9605 42.2552 45.917 42.1737 45.8672 42.0959C45.8163 42.0234 45.7562 41.9578 45.6883 41.9008C45.6201 41.8463 45.5431 41.8037 45.4607 41.7748C45.3685 41.7472 45.2721 41.7362 45.1761 41.7422L44.985 41.7666C44.9211 41.778 44.8585 41.7957 44.798 41.8195C44.7391 41.8442 44.6832 41.8756 44.6313 41.913C44.5792 41.9486 44.536 41.996 44.5053 42.0512L44.5663 42.8277L45.2696 42.7667L45.2981 43.1367L44.1801 43.2302L44.0825 41.9049Z" fill="white"/>
<path d="M43.4768 44.9498L41.3831 45.023V44.6165L42.1962 44.588L42.1068 41.8886L41.2937 41.9171V41.5349L43.3914 41.4658V41.8439L42.5784 41.8724L42.6678 44.5758L43.4809 44.5474L43.4768 44.9498Z" fill="white"/>
<path d="M38.0334 44.6165H39.1067L39.1514 41.5227H39.5824L39.5336 44.6124H40.6068V44.9905L38.0375 44.9498L38.0334 44.6165Z" fill="white"/>
<path d="M35.7772 42.2871L36.9358 42.3643L37.2692 41.4862L37.7082 41.5106L36.3707 44.9011H36.0048L35.1267 41.3683L35.5617 41.3967L35.7772 42.2871ZM36.7894 42.7383L35.8707 42.6773L36.2325 44.21L36.7894 42.7383Z" fill="white"/>
<path d="M34.0168 41.604L32.3337 41.413L32.3744 41.0389L34.4965 41.2829L34.09 44.7303L33.6509 44.6774L34.0168 41.604Z" fill="white"/>
<path d="M26.7967 40.8722C26.7699 40.9638 26.7699 41.0612 26.7967 41.1528C26.8284 41.235 26.8769 41.3097 26.9389 41.3723C27.0043 41.4394 27.0765 41.4993 27.1544 41.5512L27.3943 41.6975C27.5077 41.7664 27.6177 41.8411 27.7236 41.9211C27.8316 42.0015 27.9299 42.0943 28.0163 42.1976C28.0967 42.2983 28.1587 42.4126 28.1992 42.535C28.237 42.6679 28.237 42.8086 28.1992 42.9415C28.1679 43.077 28.1037 43.2027 28.0122 43.3074C27.9251 43.4073 27.8167 43.4865 27.6951 43.5391C27.5668 43.5971 27.4291 43.6315 27.2886 43.6408C27.1524 43.6496 27.0157 43.64 26.882 43.6123C26.7384 43.577 26.6013 43.5194 26.4755 43.4416C26.3555 43.3639 26.2496 43.2662 26.1625 43.1529C26.0775 43.04 26.0154 42.9115 25.9795 42.7748C25.9469 42.6289 25.9469 42.4776 25.9795 42.3317L26.4226 42.4333C26.4064 42.5261 26.4064 42.6211 26.4226 42.7139C26.4384 42.799 26.4701 42.8804 26.5162 42.9537C26.563 43.0249 26.6239 43.0858 26.695 43.1326C26.8479 43.2285 27.0271 43.274 27.2073 43.2627C27.2887 43.2588 27.3688 43.2394 27.4431 43.2058C27.5132 43.1732 27.5755 43.1261 27.626 43.0675C27.6815 43.0039 27.7193 42.9268 27.7358 42.8439C27.7626 42.7579 27.7626 42.6657 27.7358 42.5797C27.7023 42.4998 27.6525 42.4277 27.5894 42.3683C27.5264 42.3027 27.4554 42.2454 27.378 42.1976C27.3008 42.1447 27.2235 42.1 27.1544 42.0593C27.0853 42.0187 26.9999 41.9658 26.9227 41.913C26.8461 41.8606 26.7728 41.8036 26.7032 41.7422C26.6334 41.6819 26.5694 41.6153 26.5121 41.543C26.4589 41.4739 26.4138 41.3989 26.3779 41.3194C26.3426 41.2379 26.3193 41.1516 26.3088 41.0633C26.2951 40.969 26.2951 40.8731 26.3088 40.7787C26.3387 40.6395 26.4045 40.5105 26.4999 40.4047C26.5913 40.3091 26.7022 40.2342 26.8251 40.1852C26.9545 40.1323 27.092 40.1021 27.2317 40.0958C27.3682 40.0885 27.5051 40.1008 27.6382 40.1323C27.7821 40.1668 27.9194 40.2245 28.0447 40.3031C28.1754 40.3774 28.2912 40.4753 28.3862 40.5917C28.4797 40.7037 28.5489 40.8338 28.5895 40.9739C28.6284 41.1245 28.6284 41.2826 28.5895 41.4333L28.1504 41.3316C28.1691 41.2322 28.1691 41.1302 28.1504 41.0308C28.1265 40.9422 28.085 40.8592 28.0285 40.7869C27.9731 40.7129 27.9024 40.6519 27.8211 40.608C27.7348 40.5552 27.6398 40.5181 27.5406 40.4982C27.4581 40.4785 27.3734 40.4689 27.2886 40.4698C27.2065 40.4726 27.1254 40.4891 27.0487 40.5186C26.9743 40.5478 26.9075 40.5937 26.8536 40.6527C26.8155 40.7196 26.7959 40.7953 26.7967 40.8722Z" fill="white"/>
<path d="M22.7882 42.0512L23.8168 42.3521L24.6949 39.3884L25.1014 39.5104L24.2233 42.474L25.2518 42.7749L25.1461 43.1367L22.6785 42.4049L22.7882 42.0512Z" fill="white"/>
<path d="M19.8733 41.3845L20.6864 39.1851C20.7403 39.0358 20.8216 38.8979 20.9262 38.7786C21.0248 38.6689 21.1434 38.5792 21.2758 38.5143C21.4027 38.4511 21.5409 38.4138 21.6824 38.4046C21.8376 38.3973 21.9926 38.4222 22.1377 38.4777C22.2879 38.5317 22.426 38.6145 22.5442 38.7217C22.6472 38.8246 22.7299 38.946 22.7882 39.0794C22.8529 39.2183 22.8876 39.3693 22.8898 39.5225C22.8915 39.6764 22.8653 39.8293 22.8126 39.9738L21.9995 42.1732L21.5929 42.0268L22.406 39.8234C22.439 39.7277 22.4582 39.6277 22.4629 39.5266C22.4672 39.4317 22.4548 39.3367 22.4263 39.2461C22.3982 39.1549 22.3496 39.0715 22.2841 39.0022C22.2124 38.928 22.1248 38.871 22.0279 38.8355C21.9322 38.7987 21.8292 38.7848 21.7271 38.7948C21.6334 38.8041 21.543 38.8347 21.4629 38.8843C21.3813 38.9345 21.3097 38.9993 21.2515 39.0753C21.1889 39.1543 21.1382 39.2419 21.101 39.3355L20.288 41.5349L19.8733 41.3845Z" fill="white"/>
<path d="M20.4384 37.868L18.9667 41.0065L18.239 40.665C18.0365 40.5658 17.8555 40.4276 17.7065 40.2584C17.573 40.1148 17.4718 39.9443 17.4097 39.7584C17.3514 39.5691 17.3321 39.37 17.3528 39.173C17.3765 38.9601 17.4356 38.7526 17.5276 38.5591L17.6333 38.3274C17.7267 38.1262 17.8531 37.9421 18.0073 37.7826C18.1455 37.6422 18.3098 37.5304 18.4911 37.4533C18.6751 37.3829 18.8716 37.351 19.0684 37.3598C19.29 37.373 19.5069 37.4296 19.7066 37.5265L20.4384 37.868ZM18.7147 40.4902L19.8814 38.0022L19.5603 37.8517C19.4093 37.7782 19.2443 37.738 19.0765 37.7338C18.9358 37.7352 18.7971 37.7671 18.67 37.8273C18.5383 37.8951 18.421 37.9875 18.3244 38.0997C18.2154 38.2221 18.1238 38.3589 18.052 38.5063L17.9341 38.7502C17.8639 38.8999 17.8146 39.0586 17.7878 39.2218C17.7612 39.3669 17.7612 39.5157 17.7878 39.6608C17.822 39.8017 17.8889 39.9326 17.9829 40.043C18.0977 40.1676 18.2358 40.2684 18.3895 40.3397L18.7147 40.4902Z" fill="white"/>
<path d="M16.0195 39.5672L14.2185 38.498L14.4136 38.1687L15.1291 38.5753L16.5114 36.2702L15.7959 35.8637L15.991 35.5385L17.792 36.6076L17.5968 36.9369L16.9016 36.5304L15.5194 38.8517L16.2146 39.2583L16.0195 39.5672Z" fill="white"/>
<path d="M12.6247 34.9165C12.702 34.823 12.7873 34.7295 12.8768 34.64C12.9701 34.5559 13.0693 34.4784 13.1735 34.4083C13.2765 34.3412 13.387 34.2867 13.5028 34.2457C13.6136 34.2044 13.7303 34.1811 13.8484 34.1766C13.9667 34.1696 14.0853 34.1848 14.198 34.2213C14.3229 34.2619 14.4398 34.3238 14.5436 34.4043C14.6485 34.4848 14.7392 34.5824 14.8119 34.6929C14.8722 34.7952 14.9161 34.9063 14.942 35.0222C14.9582 35.1395 14.9582 35.2585 14.942 35.3759C14.9303 35.4991 14.9044 35.6205 14.8647 35.7377C14.8271 35.8573 14.7781 35.973 14.7184 36.0832C14.6569 36.1928 14.589 36.2987 14.5151 36.4003L14.2712 36.7093C14.1924 36.8086 14.1068 36.9023 14.0151 36.9898C13.9234 37.0759 13.824 37.1535 13.7183 37.2216C13.6159 37.287 13.5069 37.3415 13.3931 37.3842C13.2804 37.4244 13.1628 37.449 13.0435 37.4573C12.9252 37.4626 12.8069 37.4475 12.6938 37.4126C12.5668 37.3723 12.4483 37.3089 12.3442 37.2256C12.2396 37.1459 12.1501 37.0482 12.08 36.937C12.0167 36.8357 11.9713 36.7243 11.9458 36.6077C11.9276 36.4905 11.9276 36.3712 11.9458 36.254C11.958 36.1326 11.9826 36.0127 12.019 35.8962C12.0586 35.7748 12.1104 35.6577 12.1735 35.5466C12.235 35.4371 12.3029 35.3312 12.3767 35.2295L12.6247 34.9165ZM12.7223 35.5019C12.6735 35.5669 12.6247 35.6401 12.5759 35.7174C12.5304 35.7948 12.4897 35.8749 12.454 35.9572C12.4171 36.0392 12.3898 36.1251 12.3727 36.2133C12.3538 36.2973 12.347 36.3836 12.3523 36.4695C12.3605 36.5522 12.3854 36.6324 12.4255 36.7053C12.4712 36.7876 12.5335 36.8596 12.6085 36.9166C12.6803 36.974 12.7634 37.0155 12.8524 37.0386C12.9358 37.0528 13.021 37.0528 13.1044 37.0386C13.1879 37.0232 13.2687 36.9958 13.3443 36.9573C13.4245 36.9171 13.5007 36.8695 13.5719 36.815C13.6444 36.7594 13.7123 36.6982 13.7752 36.6321C13.8366 36.5725 13.8936 36.5087 13.946 36.441L14.1939 36.1239C14.2387 36.0589 14.2875 35.9897 14.3362 35.9125C14.3817 35.8337 14.4225 35.7523 14.4582 35.6686C14.4949 35.5852 14.5222 35.4979 14.5395 35.4084C14.5604 35.3247 14.5673 35.2382 14.5598 35.1523C14.5511 35.0684 14.5263 34.9869 14.4867 34.9124C14.4438 34.8305 14.3826 34.7595 14.3078 34.7051C14.2342 34.6448 14.1481 34.6018 14.0557 34.5791C13.9737 34.5649 13.8898 34.5649 13.8077 34.5791C13.7248 34.5963 13.6442 34.6236 13.5679 34.6604C13.4873 34.7014 13.411 34.7505 13.3402 34.8067C13.2687 34.8634 13.2008 34.9245 13.137 34.9897C13.0773 35.0547 13.0204 35.1198 12.9662 35.1848L12.7223 35.5019Z" fill="white"/>
<path d="M11.2426 32.5707C11.1715 32.633 11.1205 32.7151 11.0963 32.8065C11.078 32.8936 11.078 32.9836 11.0963 33.0708C11.1121 33.1632 11.1394 33.2534 11.1776 33.3391C11.2128 33.4285 11.2494 33.5139 11.2873 33.5952C11.3455 33.7151 11.3958 33.8387 11.4378 33.9651C11.4829 34.0966 11.5116 34.2332 11.5231 34.3717C11.5358 34.5002 11.5234 34.63 11.4865 34.7538C11.4494 34.885 11.3744 35.0023 11.2711 35.0912C11.1701 35.1892 11.0454 35.2592 10.9093 35.2945C10.7755 35.3254 10.6365 35.3254 10.5027 35.2945C10.3679 35.2724 10.2384 35.2255 10.1206 35.1563C9.9988 35.0894 9.88891 35.0029 9.79535 34.9002C9.69392 34.7914 9.61147 34.6663 9.55143 34.5302C9.49575 34.4013 9.46274 34.2638 9.45386 34.1237C9.44717 33.9855 9.4679 33.8473 9.51484 33.7171C9.5699 33.5786 9.65453 33.4537 9.76283 33.3513L10.0718 33.6806C10.0108 33.7531 9.96013 33.8339 9.92138 33.9204C9.85651 34.0808 9.85651 34.2601 9.92138 34.4205C9.95765 34.5102 10.0116 34.5918 10.0799 34.6603C10.1369 34.7208 10.2011 34.774 10.271 34.8189C10.3416 34.8591 10.4186 34.8866 10.4987 34.9002C10.5748 34.9185 10.6542 34.9185 10.7304 34.9002C10.8107 34.8747 10.8843 34.8317 10.9459 34.7741C11.0108 34.7128 11.0561 34.6336 11.0759 34.5465C11.0942 34.4621 11.0942 34.3748 11.0759 34.2904C11.0582 34.1997 11.031 34.1111 10.9946 34.0261C10.958 33.9407 10.9215 33.8635 10.8849 33.7903L10.7751 33.5383C10.7406 33.4509 10.712 33.3612 10.6897 33.27C10.667 33.1834 10.652 33.095 10.645 33.0057C10.6328 32.9181 10.6328 32.8291 10.645 32.7415C10.6601 32.6542 10.6904 32.5703 10.7345 32.4935C10.7788 32.4078 10.838 32.3307 10.9093 32.2658C11.0118 32.1665 11.1399 32.0976 11.2792 32.0666C11.413 32.0364 11.5519 32.0364 11.6858 32.0666C11.8193 32.0972 11.947 32.1494 12.0638 32.2211C12.1843 32.2932 12.2938 32.3822 12.3891 32.4853C12.4944 32.5966 12.5809 32.7243 12.6452 32.8634C12.7105 32.9989 12.7518 33.1447 12.7671 33.2944C12.7816 33.4398 12.7649 33.5867 12.7184 33.7253C12.6759 33.8797 12.5931 34.02 12.4785 34.1318L12.1695 33.8025C12.2341 33.7234 12.2849 33.6341 12.3199 33.5383C12.3503 33.4523 12.3627 33.361 12.3565 33.27C12.3513 33.1782 12.3278 33.0883 12.2874 33.0057C12.2439 32.9134 12.1863 32.8283 12.1167 32.7537C12.0582 32.692 11.9927 32.6375 11.9215 32.591C11.8515 32.5472 11.7745 32.5156 11.6939 32.4975C11.6175 32.4813 11.5385 32.4813 11.4622 32.4975C11.3839 32.5024 11.3082 32.5277 11.2426 32.5707Z" fill="white"/>
<path d="M7.87244 26.9891C7.99557 26.9602 8.12054 26.9398 8.24646 26.9281C8.37083 26.9159 8.4961 26.9159 8.62047 26.9281C8.74257 26.9356 8.86301 26.9602 8.97822 27.0013C9.09159 27.0353 9.19868 27.0874 9.29532 27.1558C9.39295 27.225 9.47817 27.3102 9.54738 27.4078C9.62027 27.5171 9.67389 27.6381 9.70593 27.7656C9.73951 27.8983 9.7505 28.0357 9.73845 28.1721C9.7244 28.2896 9.69 28.4038 9.63681 28.5095C9.58569 28.6167 9.51852 28.7154 9.43761 28.8022C9.35275 28.8906 9.25872 28.9696 9.1571 29.038C9.05189 29.1069 8.94184 29.168 8.82781 29.221C8.71259 29.2702 8.59448 29.3122 8.47412 29.347L8.08791 29.4446C7.96616 29.4734 7.84254 29.4938 7.71796 29.5055C7.59223 29.5177 7.46561 29.5177 7.33988 29.5055C7.2184 29.4937 7.09849 29.4692 6.98213 29.4324C6.86912 29.3975 6.76216 29.3454 6.66503 29.2779C6.56648 29.2098 6.48109 29.1244 6.41298 29.0258C6.33611 28.9172 6.28216 28.7941 6.25443 28.664C6.21589 28.5322 6.20482 28.3938 6.2219 28.2575C6.23317 28.1386 6.26625 28.0229 6.31947 27.916C6.37115 27.8094 6.4398 27.7119 6.52274 27.6273C6.60684 27.537 6.70095 27.4565 6.80325 27.3875C6.90662 27.3168 7.01696 27.2568 7.13255 27.2086C7.24914 27.1594 7.36861 27.1173 7.4903 27.0826L7.87244 26.9891ZM7.596 27.5135C7.51469 27.5338 7.43338 27.5623 7.34801 27.5908C7.26278 27.6228 7.17992 27.6609 7.10002 27.7046C7.02286 27.7486 6.94944 27.799 6.88049 27.855C6.81411 27.9096 6.75653 27.974 6.70975 28.0461C6.66404 28.1177 6.6336 28.198 6.62031 28.2819C6.60038 28.3729 6.60038 28.4672 6.62031 28.5583C6.64255 28.6476 6.68419 28.7309 6.74227 28.8022C6.80231 28.8674 6.87584 28.9188 6.95774 28.9527C7.03271 28.9935 7.11365 29.0223 7.19759 29.038C7.28612 29.0542 7.37592 29.0624 7.46591 29.0624C7.5566 29.0685 7.6476 29.0685 7.73829 29.0624L7.99034 29.0177L8.37655 28.9161C8.45923 28.8933 8.54065 28.8661 8.62047 28.8348C8.70603 28.8035 8.78895 28.7654 8.86846 28.7209C8.94765 28.6765 9.0225 28.6248 9.09205 28.5664C9.15843 28.5119 9.21602 28.4474 9.2628 28.3754C9.31241 28.3016 9.34506 28.2178 9.35842 28.13C9.37177 28.0421 9.3655 27.9524 9.34004 27.8672C9.31949 27.7749 9.27774 27.6886 9.21808 27.6151C9.16509 27.5506 9.10023 27.4968 9.02701 27.4566C8.95239 27.4149 8.87132 27.3861 8.78715 27.3712C8.69868 27.3547 8.60884 27.3465 8.51884 27.3468C8.4295 27.3408 8.33986 27.3408 8.25052 27.3468L7.99441 27.3956L7.596 27.5135Z" fill="white"/>
<path d="M8.01469 24.8872L7.96184 25.5784L9.37252 25.6841L9.34 26.1069L5.88037 25.8507L5.95761 24.8385C5.97131 24.6842 6.00548 24.5324 6.05925 24.3872C6.10778 24.2533 6.1824 24.1303 6.27878 24.0254C6.37361 23.9243 6.49046 23.8464 6.62027 23.7977C6.76858 23.7444 6.92693 23.725 7.08372 23.7408C7.18825 23.7484 7.29103 23.7717 7.38862 23.8099C7.47649 23.8502 7.55854 23.9022 7.63254 23.9644C7.7064 24.0269 7.76956 24.1011 7.81955 24.1839C7.87259 24.2698 7.9162 24.3611 7.94964 24.4563L9.48229 23.8302H9.51075L9.47416 24.2937L8.01469 24.8872ZM7.60815 25.5499L7.65287 24.9604C7.65724 24.8662 7.64904 24.7719 7.62848 24.6799C7.60519 24.5945 7.56811 24.5135 7.51871 24.4401C7.46714 24.3709 7.40215 24.3128 7.32764 24.2693C7.2417 24.225 7.14764 24.1988 7.0512 24.1921C6.95212 24.1825 6.85217 24.195 6.75849 24.2287C6.67578 24.2555 6.60057 24.3015 6.53896 24.3628C6.47559 24.4267 6.4258 24.5028 6.39261 24.5864C6.35724 24.679 6.33533 24.7762 6.32756 24.875L6.28284 25.4523L7.60815 25.5499Z" fill="white"/>
<path d="M11.0514 19.0331L10.3603 19.96L10.9132 20.7203L10.653 21.0739L8.53491 18.1062L8.75444 17.8094L12.1978 18.9965L11.9336 19.3462L11.0514 19.0331ZM10.1245 19.6389L10.6733 18.899L9.1935 18.3827L10.1245 19.6389Z" fill="white"/>
<path d="M13.8689 16.8297C13.8795 17.043 13.8406 17.256 13.7551 17.4517C13.6727 17.651 13.5478 17.83 13.3892 17.9761C13.2897 18.0675 13.1756 18.1417 13.0518 18.1957C12.9398 18.2454 12.8202 18.2756 12.6981 18.2851C12.5769 18.2951 12.455 18.2868 12.3363 18.2607C12.2156 18.2348 12.0983 18.1953 11.9867 18.1428C11.8698 18.0906 11.7593 18.0251 11.6574 17.9477C11.5514 17.8709 11.4533 17.7837 11.3647 17.6875L11.0923 17.3948C11.007 17.2981 10.9295 17.1948 10.8605 17.0858C10.719 16.8784 10.6247 16.6425 10.5841 16.3947C10.5638 16.2777 10.5638 16.158 10.5841 16.041C10.6029 15.9204 10.6413 15.8036 10.6979 15.6955C10.7607 15.5768 10.8447 15.4707 10.9459 15.3824C11.0564 15.2782 11.1844 15.1943 11.324 15.1344C11.4526 15.0795 11.5907 15.0505 11.7305 15.0491C11.87 15.0501 12.008 15.0777 12.1371 15.1304C12.2774 15.1911 12.4066 15.2749 12.5192 15.3784L12.1981 15.6751C12.1226 15.6139 12.0392 15.5633 11.9501 15.5247C11.8714 15.4861 11.7856 15.4639 11.698 15.4597C11.612 15.4549 11.5261 15.4688 11.446 15.5003C11.3543 15.5377 11.2703 15.5914 11.198 15.6589C11.1257 15.7219 11.0675 15.7995 11.0272 15.8865C10.9945 15.9654 10.9752 16.0493 10.9703 16.1345C10.9674 16.2211 10.9784 16.3075 11.0028 16.3906C11.0282 16.4786 11.0608 16.5642 11.1004 16.6468C11.1424 16.7285 11.19 16.8073 11.2427 16.8826L11.4134 17.0899L11.6899 17.3907C11.7525 17.4557 11.819 17.5168 11.8891 17.5737C11.9597 17.6338 12.0359 17.6869 12.1167 17.7322C12.1973 17.7763 12.2817 17.813 12.3688 17.842C12.453 17.8696 12.5405 17.886 12.629 17.8908C12.7173 17.8914 12.8052 17.8777 12.8892 17.8501C12.9791 17.8155 13.0618 17.7645 13.1331 17.6997L13.2672 17.5655C13.311 17.5162 13.3505 17.4631 13.3851 17.407C13.4178 17.3525 13.4424 17.2937 13.4583 17.2322C13.4722 17.172 13.4722 17.1094 13.4583 17.0492L12.9339 16.472L12.4135 16.9476L12.1615 16.6752L12.9745 15.915L13.8689 16.8297Z" fill="white"/>
<path d="M15.3567 14.3904L14.1615 15.2035L14.8567 16.2198L16.2511 15.2644L16.4625 15.5734L14.7022 16.793L12.7427 13.9473L14.4827 12.7561L14.6981 13.0651L13.32 14.0082L13.9501 14.927L15.1453 14.1139L15.3567 14.3904Z" fill="white"/>
<path d="M19.0155 14.179L18.6089 14.3904L16.2022 12.7358L17.4218 15.0287L17.0153 15.236L15.3892 12.1748L15.7957 11.9675L18.1983 13.6139L16.9787 11.3292L17.3853 11.1178L19.0155 14.179Z" fill="white"/>
<path d="M21.3328 12.0366C21.3765 12.1843 21.397 12.3379 21.3938 12.4919C21.3875 12.6316 21.3573 12.7691 21.3044 12.8985C21.2499 13.0284 21.1697 13.1459 21.0686 13.244C20.9501 13.3518 20.8121 13.4359 20.662 13.492C20.5414 13.5467 20.412 13.5797 20.2799 13.5896C20.1624 13.5975 20.0443 13.5865 19.9303 13.5571C19.8172 13.5283 19.7099 13.4801 19.6132 13.4148C19.5119 13.3507 19.4191 13.2742 19.3367 13.1871C19.2501 13.0984 19.1738 13.0002 19.1091 12.8944C19.0393 12.7869 18.9782 12.6741 18.9261 12.557L18.7473 12.1179C18.6982 11.9993 18.6588 11.877 18.6294 11.752C18.6011 11.6306 18.5848 11.5067 18.5806 11.3821C18.5757 11.2621 18.5853 11.142 18.609 11.0243C18.6299 10.9101 18.6698 10.8002 18.7269 10.6991C18.7844 10.5955 18.8586 10.5021 18.9465 10.4227C19.0465 10.3351 19.1606 10.2651 19.2839 10.2153C19.4293 10.1523 19.585 10.1165 19.7433 10.1096C19.882 10.106 20.0201 10.1294 20.1498 10.1787C20.2815 10.2326 20.4015 10.3113 20.5035 10.4105C20.6167 10.5196 20.7138 10.6441 20.7921 10.7804L20.3856 10.9552C20.3346 10.8669 20.2732 10.785 20.2027 10.7113C20.1375 10.6453 20.062 10.5903 19.9791 10.5487C19.898 10.5086 19.8093 10.4864 19.7189 10.4836C19.615 10.483 19.5123 10.5052 19.418 10.5487C19.3293 10.5827 19.2489 10.6354 19.1823 10.7032C19.1238 10.7623 19.0781 10.8329 19.0481 10.9105C19.0162 10.9897 18.997 11.0734 18.9912 11.1585C18.985 11.3373 19.0083 11.5158 19.0603 11.687C19.0845 11.7729 19.1144 11.8571 19.1497 11.939L19.3408 12.3903C19.3752 12.4713 19.4146 12.55 19.4587 12.6261C19.5026 12.7072 19.5529 12.7847 19.6091 12.8578C19.6648 12.9264 19.726 12.9903 19.7921 13.0489C19.8564 13.1046 19.9291 13.1499 20.0075 13.183C20.0853 13.2137 20.1679 13.2302 20.2514 13.2318C20.3472 13.2303 20.4415 13.2081 20.5279 13.1668C20.624 13.1298 20.7112 13.073 20.784 13.0001C20.8463 12.9369 20.8936 12.8605 20.9222 12.7765C20.9505 12.6885 20.9642 12.5965 20.9629 12.5041C20.9579 12.4037 20.9415 12.3041 20.9141 12.2074L21.3328 12.0366Z" fill="white"/>
<path d="M21.2637 9.47947L23.2516 8.81274L23.3736 9.17456L22.5849 9.43881L23.4468 12L24.2355 11.7357L24.3574 12.0976L22.3695 12.7684L22.2475 12.4065L23.0199 12.1463L22.1581 9.58517L21.3856 9.84128L21.2637 9.47947Z" fill="white"/>
<path d="M26.5853 9.84536L25.1828 10.2153L25.4999 11.4024L27.126 10.9715L27.2236 11.3333L25.1665 11.8781L24.2803 8.50379L26.313 7.96716L26.4065 8.32898L24.7803 8.75585L25.0893 9.84536L26.4715 9.46322L26.5853 9.84536Z" fill="white"/>
<path d="M29.5936 9.92254C29.5782 9.82848 29.5358 9.74091 29.4716 9.67048C29.4093 9.60803 29.3345 9.55953 29.2521 9.5282C29.1646 9.49288 29.0731 9.46831 28.9797 9.45502L28.7032 9.43876C28.5666 9.42302 28.4309 9.39995 28.2967 9.36965C28.1659 9.34165 28.039 9.29797 27.9186 9.23955C27.804 9.18107 27.7008 9.1026 27.6137 9.00783C27.523 8.90578 27.4625 8.7805 27.4389 8.64601C27.4045 8.51268 27.4045 8.3728 27.4389 8.23947C27.4819 8.11316 27.5481 7.99597 27.634 7.89392C27.7265 7.79279 27.835 7.70762 27.9552 7.64186C28.2026 7.50435 28.4877 7.45018 28.7683 7.48738C28.9111 7.50559 29.0492 7.55114 29.1748 7.62154C29.3003 7.68809 29.4098 7.78101 29.496 7.89392C29.5891 8.01303 29.6531 8.15224 29.683 8.30045L29.2399 8.38989C29.2098 8.2984 29.1659 8.21204 29.1098 8.13377C29.0615 8.06241 28.9993 8.00156 28.9268 7.9549C28.8547 7.91027 28.7746 7.8799 28.691 7.86546C28.5957 7.84732 28.4978 7.84732 28.4024 7.86546C28.3207 7.88274 28.2416 7.91005 28.1666 7.94677C28.0958 7.9854 28.0325 8.03634 27.9796 8.09719C27.927 8.15563 27.8881 8.22507 27.8658 8.30045C27.8453 8.38185 27.8453 8.46705 27.8658 8.54844C27.8798 8.63702 27.9226 8.71849 27.9877 8.78017C28.0493 8.84153 28.1246 8.88749 28.2073 8.91432C28.2921 8.94827 28.3809 8.97149 28.4715 8.98344C28.565 8.98344 28.6504 9.00783 28.7317 9.01596L29.0041 9.05661C29.0963 9.07201 29.1873 9.09374 29.2765 9.12166C29.3617 9.14884 29.4446 9.18283 29.5244 9.22329C29.6917 9.29874 29.8331 9.42175 29.931 9.57698C29.978 9.66047 30.0109 9.75111 30.0285 9.8453C30.058 9.9802 30.051 10.1205 30.0082 10.2518C29.9639 10.3766 29.8932 10.4903 29.8009 10.5852C29.7062 10.6851 29.5948 10.7677 29.4716 10.8291C29.3438 10.8954 29.2068 10.942 29.0651 10.9673C28.914 10.9985 28.7589 11.0053 28.6057 10.9877C28.4641 10.9711 28.3265 10.9298 28.1991 10.8657C28.0665 10.8013 27.9488 10.7099 27.8536 10.5974C27.7537 10.481 27.6852 10.3411 27.6544 10.1909L28.0975 10.0973C28.1291 10.1918 28.1773 10.2799 28.2398 10.3575C28.2974 10.4298 28.3694 10.4894 28.4512 10.5323C28.5324 10.5782 28.6225 10.6059 28.7154 10.6136C28.8149 10.6315 28.9168 10.6315 29.0163 10.6136C29.0992 10.5964 29.1798 10.5691 29.2561 10.5323C29.3309 10.4979 29.3985 10.4496 29.4553 10.3901C29.5118 10.3347 29.5537 10.2663 29.5773 10.1909C29.6106 10.1053 29.6163 10.0115 29.5936 9.92254Z" fill="white"/>
<path d="M34.4029 8.38586C34.3928 8.31692 34.4104 8.24679 34.4517 8.19072C34.4764 8.16194 34.507 8.13872 34.5413 8.12261C34.5756 8.10649 34.613 8.09784 34.6509 8.09722C34.6875 8.09023 34.7253 8.09173 34.7612 8.1016C34.7971 8.11146 34.8303 8.12943 34.8583 8.15413C34.8845 8.17719 34.906 8.20524 34.9213 8.23664C34.9367 8.26804 34.9456 8.30218 34.9477 8.33707C34.956 8.40524 34.937 8.47392 34.8948 8.52815C34.8427 8.58187 34.773 8.6151 34.6984 8.62181C34.6238 8.62853 34.5492 8.60827 34.4883 8.56473C34.4624 8.54255 34.4413 8.51517 34.4266 8.48436C34.4119 8.45354 34.4039 8.41999 34.4029 8.38586Z" fill="white"/>
<path d="M40.4929 50.2917C62.2718 50.2917 79.927 39.189 79.927 25.493C79.927 11.797 62.2718 0.694214 40.4929 0.694214C18.7141 0.694214 1.05884 11.797 1.05884 25.493C1.05884 39.189 18.7141 50.2917 40.4929 50.2917Z" stroke="white" stroke-width="0.40241" stroke-miterlimit="10"/>
</g>
<defs>
<clipPath id="clip0_405_263">
<rect width="79.2706" height="50" fill="white" transform="translate(0.859619 0.494995)"/>
</clipPath>
</defs>
</svg>
