<svg width="21" height="20" viewBox="0 0 21 20" fill="none" xmlns="http://www.w3.org/2000/svg">
<path d="M16.6723 8.31836L18.8343 13.1791C19.2719 14.1628 18.8299 15.3152 17.8473 15.7531C16.8646 16.1911 15.7133 15.7487 15.2758 14.7651L13.5281 10.8357L12.7578 12.6521V8.31836H16.6723V8.31836Z" fill="white"/>
<path d="M16.9006 8.8457L17.3479 9.8514C17.0777 9.75744 16.7875 9.70639 16.4853 9.70639C15.237 9.70639 14.1923 10.5775 13.9261 11.7448L13.522 10.8362L13.0938 11.8462L13.0938 8.8457H16.9006Z" fill="white" fill-opacity="0.2"/>
<path d="M10.3933 8.23425V11.6764H6.7915L6.41813 10.837L6.06216 11.6764H2.07812V11.0923L4.57513 5.20394C4.89094 4.45921 5.61502 4.01299 6.37558 4.01564C7.12379 4.01303 7.8388 4.44457 8.16268 5.17272L9.96924 9.23432L10.3933 8.23425Z" fill="white"/>
<path d="M9.96751 9.22844L9.97012 9.23432L11.6792 5.20394C11.995 4.45921 12.7191 4.01299 13.4797 4.01564C14.2279 4.01303 14.9429 4.44457 15.2668 5.17272L17.3463 9.84802C16.9269 9.48552 16.3805 9.26629 15.783 9.26629C14.7448 9.26629 13.861 9.92814 13.5295 10.8534L13.5222 10.837L11.8433 14.7961C11.423 15.7872 10.2796 16.2497 9.28948 15.829C9.1926 15.7878 9.10078 15.7397 9.01435 15.6855C8.65124 15.4879 8.34785 15.1735 8.16675 14.7663L6.42578 10.8522C6.68786 10.9273 6.96466 10.9675 7.25084 10.9675C8.45506 10.9675 9.4931 10.2552 9.96751 9.22844Z" fill="white"/>
<path d="M6.40788 10.8612L5.15414 13.8177C4.84838 13.9582 4.50767 14.0365 4.14848 14.0365C2.88852 14.0365 1.85591 13.0737 1.76172 11.8386L2.62212 9.80958C3.03644 9.46618 3.56836 9.25977 4.14848 9.25977C5.19269 9.25977 6.08074 9.92853 6.40788 10.8612Z" fill="white"/>
<path d="M6.04111 11.7269L4.74098 14.7929C4.32069 15.784 3.1773 16.2464 2.18715 15.8257C1.197 15.405 0.735038 14.2605 1.15533 13.2693L2.59901 9.86491C2.90461 9.72949 3.2426 9.6543 3.59809 9.6543C4.82535 9.6543 5.84419 10.5506 6.04111 11.7269Z" fill="white"/>
</svg>
