<svg width="20" height="20" viewBox="0 0 20 20" fill="none" xmlns="http://www.w3.org/2000/svg">
<path d="M14.9153 4.83047C14.9153 4.48291 15.1966 4.20115 15.5437 4.20115H18.3716C18.7186 4.20115 19 4.48291 19 4.83047V15.2143C19 15.5619 18.7186 15.8436 18.3716 15.8436H15.5437C15.1966 15.8436 14.9153 15.5619 14.9153 15.2143V4.83047Z" fill="white"/>
<path d="M10.5275 4.50297C10.5972 4.1625 10.9294 3.94311 11.2694 4.01296L14.0396 4.58211C14.3796 4.65196 14.5986 4.98459 14.5289 5.32507L12.445 15.497C12.3753 15.8375 12.0431 16.0569 11.7031 15.987L8.93292 15.4179C8.59293 15.348 8.37386 15.0154 8.44361 14.6749L10.5275 4.50297Z" fill="white"/>
<path d="M6.03647 4.43915C6.20249 4.13392 6.58415 4.02126 6.88893 4.18751L9.37233 5.54213C9.67712 5.70838 9.78962 6.09058 9.6236 6.39581L4.66381 15.5147C4.49779 15.8199 4.11613 15.9326 3.81135 15.7663L1.32795 14.4117C1.02316 14.2454 0.910661 13.8632 1.07667 13.558L6.03647 4.43915Z" fill="white"/>
</svg>
