<svg width="20" height="20" viewBox="0 0 20 20" fill="none" xmlns="http://www.w3.org/2000/svg">
<g clip-path="url(#clip0_428_283)">
<path d="M18.7756 8.42989H13.4952L17.2057 4.71936C16.9202 4.29129 16.6348 4.00583 16.3493 3.57748C15.9386 3.28064 15.5564 2.94619 15.2077 2.57848L11.4977 6.28929V1.1517C11.0317 1.03374 10.5508 0.985686 10.0707 1.00911C9.5902 0.978131 9.1079 1.0263 8.64305 1.1517V6.43217L4.78992 2.57904C4.34687 2.83299 3.95873 3.17248 3.64805 3.57776C3.36258 4.00583 2.93451 4.29129 2.64905 4.71964L6.3593 8.42989H1.22198L1.07939 9.85695C1.04848 10.3372 1.09665 10.8193 1.22198 11.284H6.50273L2.64961 15.1371C3.21342 15.9861 3.9412 16.7139 4.7902 17.2777L8.50073 13.5672V18.8479C8.96673 18.9659 9.44767 19.014 9.9278 18.9905C10.4081 19.0215 10.8902 18.9733 11.3549 18.8479V13.5678L15.0651 17.2786C15.5081 17.0245 15.8961 16.6849 16.2067 16.2796C16.5744 15.9309 16.9089 15.5487 17.2057 15.138L13.4952 11.4269H18.7756C18.8937 10.9609 18.9418 10.48 18.9185 9.99983C18.9487 9.47234 18.9004 8.94329 18.7756 8.42989ZM12.2107 9.85695C12.1965 10.4852 12.1006 11.1089 11.9252 11.7124C11.3355 11.9436 10.7018 12.0411 10.0698 11.9978C9.44159 11.9836 8.81787 11.8877 8.21442 11.7124C7.98318 11.1226 7.88568 10.4889 7.92895 9.85695C7.94313 9.22871 8.0391 8.60499 8.21442 8.00154C8.80416 7.7703 9.43786 7.6728 10.0698 7.71607C10.6981 7.73026 11.3218 7.82622 11.9252 8.00154C12.0898 8.60731 12.1856 9.22972 12.2107 9.85695Z" fill="white"/>
</g>
<defs>
<clipPath id="clip0_428_283">
<rect width="18" height="18" fill="white" transform="translate(1 1)"/>
</clipPath>
</defs>
</svg>
