<svg width="20" height="20" viewBox="0 0 20 20" fill="none" xmlns="http://www.w3.org/2000/svg">
<path d="M5.11893 17C3.8741 17 2.87335 16.6264 2.11669 15.8792C1.37223 15.1189 1 14.044 1 12.6545H3.34321C3.35542 13.2968 3.49577 13.8081 3.76426 14.1882C4.03275 14.5684 4.466 14.7584 5.06401 14.7584C5.62541 14.7584 6.03425 14.5815 6.29054 14.2275C6.54683 13.8605 6.67497 13.382 6.67497 12.7921V3H9.01818V12.7921C9.01818 14.1423 8.66426 15.1845 7.95642 15.9185C7.26077 16.6395 6.31495 17 5.11893 17Z" fill="white"/>
<path d="M15.2099 17C14.4044 17 13.6966 16.8624 13.0863 16.5871C12.4761 16.2987 11.988 15.9054 11.6218 15.4073C11.2557 14.9092 11.036 14.3324 10.9628 13.677H13.3243C13.3976 14.0571 13.5928 14.3848 13.9101 14.6601C14.2396 14.9223 14.6607 15.0534 15.1733 15.0534C15.6858 15.0534 16.0581 14.9419 16.29 14.7191C16.534 14.4963 16.6561 14.2406 16.6561 13.9522C16.6561 13.5328 16.4852 13.2509 16.1435 13.1067C15.8018 12.9494 15.3258 12.7987 14.7156 12.6545C14.3251 12.5627 13.9284 12.4513 13.5257 12.3202C13.123 12.1891 12.7507 12.0253 12.409 11.8287C12.0795 11.6189 11.811 11.3567 11.6035 11.0421C11.3961 10.7144 11.2923 10.3146 11.2923 9.8427C11.2923 8.97753 11.6096 8.25 12.2443 7.66011C12.8911 7.07022 13.7942 6.77528 14.9536 6.77528C16.0276 6.77528 16.8819 7.04401 17.5165 7.58146C18.1633 8.11891 18.5477 8.85955 18.6698 9.80337H16.4547C16.3205 9.0824 15.814 8.72191 14.9353 8.72191C14.4959 8.72191 14.1542 8.81367 13.9101 8.99719C13.6782 9.18071 13.5623 9.41011 13.5623 9.68539C13.5623 9.97378 13.7393 10.2032 14.0932 10.3736C14.4471 10.544 14.917 10.7013 15.5028 10.8455C16.1374 11.0028 16.7171 11.1798 17.2419 11.3764C17.7789 11.5599 18.206 11.8418 18.5233 12.2219C18.8406 12.589 18.9993 13.1199 18.9993 13.8146C19.0115 14.4176 18.8651 14.9616 18.5599 15.4466C18.2548 15.9316 17.8155 16.3118 17.2419 16.5871C16.6683 16.8624 15.991 17 15.2099 17Z" fill="white"/>
</svg>
