<svg width="20" height="20" viewBox="0 0 20 20" fill="none" xmlns="http://www.w3.org/2000/svg">
<path d="M4.96252 15C4.22015 15 3.55009 14.8596 2.95233 14.5787C2.35458 14.2884 1.87735 13.853 1.52062 13.2725C1.17354 12.6919 1 11.9569 1 11.0674V5H2.8511V11.0815C2.8511 11.8493 3.0391 12.4204 3.41511 12.7949C3.80076 13.1695 4.33102 13.3567 5.0059 13.3567C5.67114 13.3567 6.19658 13.1695 6.58223 12.7949C6.96788 12.4204 7.1607 11.8493 7.1607 11.0815V5H9.0118V11.0674C9.0118 11.9569 8.82862 12.6919 8.46225 13.2725C8.09589 13.853 7.60419 14.2884 6.98716 14.5787C6.37977 14.8596 5.70488 15 4.96252 15Z" fill="white"/>
<path d="M10.4097 14.8315L13.5769 9.85955L10.3663 5H12.4922L14.7627 8.42697L16.8452 5H18.9277L15.7606 9.94382L19 14.8315H16.8741L14.5747 11.3624L12.4922 14.8315H10.4097Z" fill="white"/>
</svg>
