<svg width="21" height="20" viewBox="0 0 21 20" fill="none" xmlns="http://www.w3.org/2000/svg">
<path d="M17.5206 9.55024C17.1196 8.86575 16.5474 8.29736 15.8603 7.90089C15.3357 7.59602 14.7932 7.40238 14.1807 7.31861V5.12543C14.4777 5.00235 14.731 4.79298 14.9078 4.5244C15.0845 4.25583 15.1767 3.9404 15.1722 3.61891C15.1733 3.4018 15.1315 3.18662 15.0492 2.98572C14.9668 2.78483 14.8456 2.60218 14.6925 2.44828C14.5393 2.29438 14.3573 2.17225 14.1568 2.08892C13.9563 2.00559 13.7414 1.96269 13.5243 1.96269C13.0845 1.96269 12.6627 2.13701 12.3512 2.44745C12.0397 2.75789 11.864 3.17915 11.8625 3.61891C11.8625 4.29183 12.2196 4.86587 12.8335 5.12543V7.30625C12.325 7.37983 11.8316 7.53471 11.3723 7.76494L5.50137 3.31952C5.54257 3.16434 5.57827 3.00366 5.57827 2.83474C5.57827 1.82124 4.75703 1 3.74353 1C2.73002 1 1.91016 1.82124 1.91016 2.83474C1.91016 3.84825 2.7314 4.66949 3.7449 4.66949C4.09098 4.66949 4.41096 4.56786 4.68699 4.40169L5.07152 4.69284L10.3382 8.49004C10.0594 8.74548 9.79983 9.03662 9.59246 9.36347C9.17223 10.0295 8.91542 10.7615 8.91542 11.5608V11.7256C8.91728 12.2676 9.01491 12.8051 9.20382 13.3131C9.36312 13.7471 9.59658 14.1426 9.88635 14.4997L8.13675 16.2534C7.61901 16.0611 7.0381 16.1888 6.64671 16.5802C6.38029 16.8453 6.2306 17.2065 6.23197 17.5827C6.23334 17.959 6.38029 18.3175 6.64808 18.5853C6.91588 18.8531 7.27431 19.0014 7.6506 19.0014C8.02689 19.0014 8.38807 18.8531 8.65312 18.5853C8.91817 18.3175 9.06923 17.959 9.06786 17.5827C9.06775 17.4383 9.04552 17.2947 9.00194 17.157L10.8092 15.3497C11.0564 15.5214 11.3242 15.6656 11.6126 15.7892C12.2053 16.0492 12.8454 16.1838 13.4927 16.1847H13.6163C14.3743 16.1847 15.0898 16.0062 15.7614 15.6423C16.4517 15.2721 17.0316 14.7258 17.4423 14.0588C17.8639 13.3859 18.0946 12.6402 18.0946 11.8203V11.7791C18.0946 10.973 17.9079 10.23 17.5178 9.54887L17.5206 9.55024ZM15.3137 13.3433C14.8234 13.8885 14.259 14.225 13.6218 14.225H13.5009C13.137 14.225 12.7799 14.1247 12.4325 13.9407C12.0515 13.7426 11.7287 13.4487 11.4959 13.0879C11.2432 12.7308 11.1059 12.3408 11.1059 11.9274V11.8038C11.1059 11.3973 11.1841 11.0114 11.3805 10.6475C11.5906 10.2355 11.8749 9.94026 12.2526 9.69444C12.6302 9.44862 13.0189 9.33051 13.4611 9.33051H13.5023C13.9005 9.33051 14.281 9.40879 14.638 9.59144C14.9997 9.78168 15.307 10.061 15.5307 10.4031C15.7521 10.7461 15.8891 11.1367 15.9303 11.5429L15.9399 11.7997C15.9399 12.3587 15.7257 12.8764 15.2986 13.3461L15.3137 13.3433Z" fill="white"/>
</svg>
