<svg width="20" height="20" viewBox="0 0 20 20" fill="none" xmlns="http://www.w3.org/2000/svg">
<path d="M9.03936 2.66045L2.32846 5.43751C1.95524 5.5922 1.95918 6.12207 2.33465 6.27086L9.07339 8.94329C9.66549 9.17813 10.3249 9.17813 10.917 8.94329L17.6557 6.27086C18.0312 6.12179 18.0354 5.59192 17.6619 5.43751L10.9513 2.66073C10.3391 2.40736 9.65131 2.40736 9.03908 2.66073" fill="white"/>
<path d="M10.5898 10.4031V17.0791C10.5899 17.1524 10.6079 17.2246 10.6423 17.2894C10.6767 17.3542 10.7264 17.4096 10.787 17.4508C10.8477 17.492 10.9175 17.5178 10.9904 17.5258C11.0633 17.5339 11.137 17.524 11.2052 17.4971L18.7146 14.5822C18.7983 14.5489 18.8701 14.4913 18.9207 14.4168C18.9713 14.3423 18.9983 14.2543 18.9984 14.1642V7.48849C18.9983 7.41516 18.9803 7.34296 18.9459 7.27818C18.9115 7.2134 18.8619 7.158 18.8012 7.1168C18.7405 7.0756 18.6707 7.04985 18.5978 7.04179C18.525 7.03373 18.4512 7.0436 18.383 7.07055L10.8736 9.98543C10.7899 10.0187 10.7181 10.0763 10.6676 10.1508C10.617 10.2253 10.5899 10.313 10.5898 10.4031Z" fill="white"/>
<path d="M8.83816 10.747L6.38341 11.9325L1.67894 14.1867C1.38081 14.3307 1 14.1136 1 13.7817V7.51602C1 7.39621 1.06131 7.29271 1.144 7.21509C1.1778 7.18142 1.21614 7.15264 1.25791 7.12959C1.37041 7.06209 1.53072 7.04409 1.66712 7.09809L8.80103 9.92465C9.16666 10.0686 9.19478 10.5766 8.83844 10.7473" fill="white"/>
<path d="M8.83897 10.7476L6.61034 11.8236L1.14453 7.21509C1.17833 7.18142 1.21667 7.15264 1.25844 7.12959C1.37094 7.06209 1.53125 7.04409 1.66766 7.09809L8.80156 9.92465C9.16719 10.0686 9.19531 10.5769 8.83897 10.7476Z" fill="white"/>
</svg>
