<svg width="50" height="11" viewBox="0 0 50 11" fill="none" xmlns="http://www.w3.org/2000/svg">
<g clip-path="url(#clip0_509_337)">
<path d="M14.5391 8.78134C15.9074 8.78134 16.8181 8.0448 16.8181 6.83294C16.8181 5.82234 16.1801 5.2571 14.7943 4.649C13.8704 4.25077 13.624 4.0495 13.624 3.72407C13.624 3.39864 13.8748 3.22305 14.2575 3.22305C14.7547 3.22305 15.3926 3.49284 15.859 3.91677L16.6201 2.85907C15.9866 2.31095 15.1595 1.97266 14.306 1.97266C13.0125 1.97266 12.1502 2.71775 12.1502 3.87394C12.1502 4.8203 12.7397 5.31704 14.086 5.91227C14.9571 6.29767 15.309 6.51177 15.309 6.92714C15.309 7.30824 15.0231 7.53094 14.5567 7.53094C13.9452 7.53094 13.1841 7.1541 12.7221 6.6488L11.8906 7.69794C12.5418 8.36167 13.5317 8.78134 14.5391 8.78134ZM22.7354 6.39614C22.7354 5.013 21.6267 4.04524 20.0957 4.04524C18.5427 4.04524 17.4384 5.013 17.4384 6.40044C17.4384 7.71507 18.4371 8.75134 20.0957 8.75134C21.2352 8.75134 22.0095 8.22894 22.3966 7.62084L21.0944 7.07274C20.9052 7.42814 20.5312 7.64654 20.0869 7.64654C19.5018 7.64654 19.0222 7.2997 18.9034 6.6959H22.7178C22.731 6.59314 22.7354 6.49037 22.7354 6.39614ZM20.0869 5.07724C20.6632 5.07724 21.0328 5.36414 21.2 5.8052H18.9694C19.141 5.32987 19.537 5.07724 20.0869 5.07724ZM26.3562 4.04524C25.8019 4.04524 25.3487 4.23794 25.0099 4.55054V4.13087H23.5757V8.6657H25.0099V6.11354C25.0099 5.4926 25.3399 5.2014 25.8107 5.2014C26.2154 5.2014 26.5014 5.347 26.5014 5.9765V8.6657H27.94V5.69814C27.94 4.63617 27.4077 4.04524 26.3562 4.04524ZM31.09 8.75134C31.64 8.75134 32.1415 8.58007 32.5155 8.2546V8.6657H33.9541V2.08827H32.5155V4.54197C32.1415 4.2208 31.64 4.04524 31.09 4.04524C29.7526 4.04524 28.7275 5.0601 28.7275 6.39614C28.7275 7.7279 29.7526 8.75134 31.09 8.75134ZM31.376 7.5823C30.7029 7.5823 30.1661 7.11557 30.1661 6.39614C30.1661 5.68104 30.7029 5.21427 31.376 5.21427C32.0447 5.21427 32.5903 5.69814 32.5903 6.39614C32.5903 7.1027 32.0447 7.5823 31.376 7.5823ZM40.0871 6.39614C40.0871 5.013 38.9785 4.04524 37.4473 4.04524C35.8943 4.04524 34.7901 5.013 34.7901 6.40044C34.7901 7.71507 35.7888 8.75134 37.4473 8.75134C38.5867 8.75134 39.361 8.22894 39.7484 7.62084L38.446 7.07274C38.2569 7.42814 37.883 7.64654 37.4384 7.64654C36.8535 7.64654 36.3737 7.2997 36.2552 6.6959H40.0696C40.0826 6.59314 40.0871 6.49037 40.0871 6.39614ZM37.4384 5.07724C38.0148 5.07724 38.3843 5.36414 38.5514 5.8052H36.321C36.4925 5.32987 36.8884 5.07724 37.4384 5.07724ZM42.2912 4.13087H40.9275V8.6657H42.3617V6.77297C42.3617 5.79237 42.8939 5.377 43.8881 5.377V4.04524C43.0699 4.1009 42.5288 4.58907 42.2912 4.99587V4.13087ZM47.0032 8.75134C48.534 8.75134 49.6429 7.78357 49.6429 6.39614C49.6429 5.013 48.534 4.04524 47.0032 4.04524C45.4501 4.04524 44.3456 5.013 44.3456 6.39614C44.3456 7.78357 45.4501 8.75134 47.0032 8.75134ZM46.9943 7.5823C46.321 7.5823 45.7843 7.11557 45.7843 6.39614C45.7843 5.68104 46.321 5.21427 46.9943 5.21427C47.6631 5.21427 48.2086 5.69814 48.2086 6.39614C48.2086 7.1027 47.6631 7.5823 46.9943 7.5823Z" fill="black"/>
<path d="M9.20427 5.04988C9.20927 5.08051 9.2077 5.11185 9.19968 5.14185C9.19164 5.17181 9.17735 5.19981 9.1577 5.22395C9.13804 5.24808 9.11352 5.26781 9.08568 5.28188C9.0578 5.29598 9.02729 5.30405 8.99609 5.30561L6.80468 5.42298L6.79688 5.37325L8.91862 4.81201C8.94869 4.80415 8.98013 4.80258 9.01085 4.80748C9.04157 4.81238 9.07092 4.82361 9.09701 4.84045C9.12311 4.85728 9.14537 4.87938 9.16235 4.90525C9.17934 4.93115 9.19068 4.96028 9.19568 4.99081L9.20427 5.04988Z" fill="black" fill-opacity="0.95"/>
<path d="M0.00272622 6.43755C-0.00213813 6.40695 -0.000479575 6.37565 0.00759464 6.34572C0.0156689 6.31579 0.0299791 6.28785 0.0496 6.26375C0.0692212 6.23965 0.0937164 6.21989 0.121502 6.20579C0.149288 6.19169 0.179747 6.18352 0.210908 6.18182L2.4023 6.06445L2.41013 6.11419L0.289172 6.67542C0.259027 6.68332 0.227555 6.68482 0.196785 6.67989C0.166014 6.67492 0.136629 6.66362 0.110525 6.64672C0.0844206 6.62979 0.062176 6.60762 0.0452264 6.58165C0.0282767 6.55565 0.0169981 6.52645 0.0121179 6.49585L0.00272622 6.43755Z" fill="black" fill-opacity="0.95"/>
<path d="M8.76209 3.67163C8.77692 3.69943 8.78562 3.73003 8.78761 3.7614C8.78959 3.79276 8.78487 3.8242 8.77367 3.8536C8.76251 3.88303 8.74514 3.90973 8.72278 3.93196C8.70042 3.9542 8.67353 3.97146 8.64391 3.9826L6.59497 4.76303L6.57227 4.71873L8.41538 3.5333C8.44158 3.51653 8.47103 3.50543 8.50182 3.50066C8.53261 3.49593 8.56405 3.49763 8.59415 3.5057C8.62422 3.51373 8.65227 3.52796 8.67648 3.54746C8.70069 3.56693 8.72052 3.59123 8.7347 3.6188L8.76209 3.67163Z" fill="black" fill-opacity="0.95"/>
<path d="M0.444159 7.81326C0.430022 7.78572 0.421868 7.75552 0.420231 7.72466C0.41859 7.69376 0.423501 7.66289 0.434642 7.63402C0.445782 7.60516 0.462909 7.57892 0.484905 7.55702C0.506902 7.53516 0.533282 7.51812 0.562337 7.50699L2.61285 6.72266L2.63555 6.76699L0.790868 7.95162C0.764751 7.96852 0.735347 7.97979 0.704566 7.98466C0.673785 7.98952 0.642316 7.98792 0.612207 7.97992C0.582094 7.97192 0.554008 7.95776 0.529775 7.93826C0.505546 7.91879 0.485707 7.89449 0.471552 7.86689L0.444159 7.81326Z" fill="black" fill-opacity="0.95"/>
<path d="M7.91522 2.49516C7.93721 2.51717 7.95433 2.5435 7.9655 2.57246C7.97663 2.60143 7.98156 2.63239 7.97992 2.66336C7.97831 2.69432 7.97019 2.72461 7.95608 2.75227C7.94197 2.77993 7.92218 2.80436 7.898 2.82398L6.1942 4.19832L6.1582 4.16255L7.54348 2.47029C7.56317 2.4463 7.58769 2.42666 7.61546 2.41266C7.64324 2.39865 7.67368 2.39059 7.70478 2.38897C7.73591 2.38736 7.767 2.39225 7.79611 2.4033C7.82522 2.41436 7.85166 2.43136 7.87375 2.45319L7.91522 2.49516Z" fill="black" fill-opacity="0.95"/>
<path d="M1.29152 8.98944C1.26954 8.9675 1.25243 8.94124 1.24129 8.91234C1.23016 8.88344 1.22524 8.85254 1.22687 8.82164C1.22849 8.79074 1.23661 8.7605 1.25071 8.7329C1.26481 8.7053 1.28458 8.68097 1.30874 8.6614L3.01254 7.2832L3.04854 7.31817L1.66405 9.0151C1.64439 9.03914 1.61984 9.0588 1.59203 9.0728C1.56421 9.08684 1.53373 9.09487 1.50258 9.0964C1.47143 9.09794 1.4403 9.09294 1.41122 9.08177C1.38214 9.07057 1.35575 9.0534 1.33378 9.03144L1.29152 8.98944Z" fill="black" fill-opacity="0.95"/>
<path d="M6.74186 1.6373C6.76974 1.65137 6.7943 1.6711 6.81399 1.6952C6.83368 1.71931 6.84806 1.74725 6.85618 1.77723C6.8643 1.8072 6.86597 1.83854 6.86111 1.86921C6.85625 1.89987 6.84495 1.92918 6.82796 1.95523L5.63522 3.78431L5.58984 3.76175L6.3795 1.72747C6.3906 1.69799 6.40793 1.6712 6.43029 1.64891C6.45265 1.62661 6.47957 1.60933 6.50923 1.59821C6.53885 1.5871 6.57056 1.58241 6.60217 1.58445C6.63382 1.5865 6.66464 1.59524 6.69258 1.61009L6.74186 1.6373Z" fill="black" fill-opacity="0.95"/>
<path d="M2.46507 9.84855C2.43694 9.83465 2.4121 9.81499 2.39219 9.79085C2.37227 9.76675 2.35773 9.73869 2.34952 9.70859C2.34131 9.67849 2.33962 9.64699 2.34457 9.61615C2.34951 9.58535 2.36097 9.55592 2.37819 9.52985L3.57171 7.69922L3.61712 7.72255L2.82743 9.75682C2.81623 9.78622 2.79886 9.81292 2.77647 9.83515C2.75408 9.85735 2.72719 9.87459 2.69758 9.88572C2.66797 9.89682 2.63632 9.90152 2.60473 9.89955C2.57314 9.89755 2.54234 9.88892 2.51437 9.87419L2.46507 9.84855Z" fill="black" fill-opacity="0.95"/>
<path d="M5.36013 1.18314C5.39092 1.18797 5.4203 1.19917 5.44643 1.21601C5.47256 1.23286 5.49486 1.25497 5.51181 1.28092C5.5288 1.30686 5.5401 1.33606 5.54496 1.36663C5.54986 1.39719 5.54821 1.42842 5.54013 1.45831L4.97506 3.56567L4.92578 3.55791L5.04393 1.38136C5.04554 1.35044 5.05366 1.3202 5.06777 1.29261C5.08191 1.26501 5.10171 1.24067 5.12592 1.22117C5.15013 1.20167 5.17821 1.18745 5.20832 1.17942C5.23842 1.1714 5.26986 1.16975 5.30064 1.17459L5.36013 1.18314Z" fill="black" fill-opacity="0.95"/>
<path d="M3.84599 10.3017C3.81517 10.297 3.78568 10.2859 3.75948 10.269C3.73329 10.2522 3.71096 10.2301 3.69397 10.2041C3.67698 10.1782 3.66568 10.1489 3.66085 10.1183C3.65606 10.0877 3.65777 10.0564 3.66596 10.0265L4.23103 7.91992L4.28034 7.92772L4.16216 10.1043C4.16099 10.1354 4.15318 10.166 4.13924 10.194C4.12531 10.222 4.10558 10.2467 4.0813 10.2665C4.05705 10.2863 4.02883 10.3008 3.99853 10.309C3.96822 10.3173 3.93651 10.319 3.90548 10.3141L3.84599 10.3017Z" fill="black" fill-opacity="0.95"/>
<path d="M3.90527 1.17263C3.93603 1.1678 3.9675 1.16944 3.9976 1.17747C4.0277 1.1855 4.05579 1.19972 4.08 1.21922C4.10421 1.23872 4.12401 1.26306 4.13812 1.29065C4.15226 1.31825 4.16038 1.34849 4.16195 1.3794L4.28014 3.55592L4.23082 3.56372L3.66579 1.45636C3.65771 1.42647 3.65606 1.39523 3.66096 1.36467C3.66582 1.33411 3.67712 1.30491 3.69407 1.27896C3.71106 1.25302 3.73332 1.2309 3.75945 1.21406C3.78562 1.19721 3.815 1.18601 3.84579 1.18118L3.90527 1.17263Z" fill="black" fill-opacity="0.95"/>
<path d="M5.30064 10.3141C5.26992 10.319 5.23852 10.3173 5.20849 10.3094C5.17842 10.3014 5.1504 10.2872 5.12619 10.2678C5.10201 10.2484 5.08219 10.2241 5.06801 10.1966C5.05383 10.1691 5.04564 10.139 5.04393 10.1081L4.92578 7.93159L4.97506 7.92383L5.54013 10.0265C5.54832 10.0564 5.55006 10.0877 5.54523 10.1183C5.5404 10.1489 5.52914 10.1781 5.51215 10.2041C5.49516 10.2301 5.47284 10.2522 5.44664 10.269C5.42044 10.2858 5.39095 10.297 5.36013 10.3017L5.30064 10.3141Z" fill="black" fill-opacity="0.95"/>
<path d="M2.51774 1.60814C2.54569 1.59329 2.5765 1.58455 2.60812 1.5825C2.63974 1.58045 2.67144 1.58514 2.70109 1.59626C2.73074 1.60737 2.75765 1.62466 2.78002 1.64695C2.80239 1.66924 2.81971 1.69603 2.8308 1.72551L3.61655 3.76292L3.57118 3.78469L2.37765 1.95561C2.36066 1.92955 2.34936 1.90025 2.34451 1.86958C2.33965 1.83892 2.34133 1.80758 2.34945 1.77761C2.35757 1.74763 2.37194 1.71969 2.39162 1.69558C2.41131 1.67147 2.43588 1.65175 2.46374 1.63768L2.51774 1.60814Z" fill="black" fill-opacity="0.95"/>
<path d="M6.68865 9.87419C6.6607 9.88892 6.62988 9.89755 6.5983 9.89955C6.56669 9.90152 6.53505 9.89682 6.50546 9.88572C6.47584 9.87459 6.44895 9.85735 6.42656 9.83515C6.40416 9.81292 6.3868 9.78622 6.3756 9.75682L5.58984 7.72255L5.63522 7.69922L6.82796 9.52985C6.84522 9.55588 6.85673 9.58525 6.86173 9.61602C6.86673 9.64682 6.86508 9.67829 6.85697 9.70839C6.84882 9.73849 6.83436 9.76655 6.81454 9.79072C6.79471 9.81489 6.76995 9.83459 6.74186 9.84855L6.68865 9.87419Z" fill="black" fill-opacity="0.95"/>
<path d="M1.33383 2.45319C1.35591 2.43136 1.38236 2.41436 1.41146 2.4033C1.44056 2.39225 1.47167 2.38736 1.50278 2.38897C1.5339 2.39059 1.56433 2.39865 1.59211 2.41266C1.6199 2.42666 1.64442 2.4463 1.6641 2.47029L3.04859 4.16255L3.01259 4.19832L1.30878 2.82398C1.28461 2.80436 1.26483 2.77993 1.25072 2.75227C1.23661 2.72461 1.22849 2.69432 1.22686 2.66336C1.22524 2.63239 1.23016 2.60143 1.24131 2.57246C1.25245 2.5435 1.26957 2.51717 1.29157 2.49516L1.33383 2.45319Z" fill="black" fill-opacity="0.95"/>
<path d="M7.87296 9.03144C7.85098 9.05341 7.82461 9.07058 7.79553 9.08178C7.76646 9.09294 7.73533 9.09794 7.70416 9.09641C7.673 9.09488 7.64255 9.08684 7.61471 9.07281C7.5869 9.05881 7.56235 9.03914 7.54269 9.01511L6.1582 7.32208L6.1942 7.28711L7.898 8.66141C7.92218 8.68098 7.94194 8.70531 7.95605 8.73291C7.97012 8.76051 7.97827 8.79074 7.97988 8.82164C7.98149 8.85254 7.97659 8.88344 7.96546 8.91234C7.9543 8.94124 7.93721 8.96751 7.91522 8.98944L7.87296 9.03144Z" fill="black" fill-opacity="0.95"/>
<path d="M0.471317 3.6188C0.485495 3.59123 0.505328 3.56693 0.529536 3.54746C0.553745 3.52796 0.581797 3.51373 0.611879 3.5057C0.641965 3.49763 0.673413 3.49593 0.704201 3.50066C0.734988 3.50543 0.76443 3.51653 0.790636 3.5333L2.63375 4.71873L2.61262 4.76303L0.562105 3.9787C0.532499 3.96756 0.505619 3.95033 0.483245 3.9281C0.460872 3.90583 0.443519 3.87913 0.432341 3.84973C0.421163 3.82033 0.416417 3.78886 0.418413 3.7575C0.42041 3.72613 0.429105 3.69553 0.443923 3.66776L0.471317 3.6188Z" fill="black" fill-opacity="0.95"/>
<path d="M8.7347 7.86689C8.72055 7.89449 8.70072 7.91879 8.67648 7.93826C8.65223 7.95776 8.62415 7.97192 8.59405 7.97992C8.56394 7.98792 8.53247 7.98952 8.50168 7.98466C8.4709 7.97979 8.44151 7.96852 8.41538 7.95162L6.57227 6.76699L6.59497 6.72266L8.64391 7.50699C8.67298 7.51812 8.69935 7.53516 8.72134 7.55702C8.74336 7.57892 8.76048 7.60516 8.77161 7.63402C8.78275 7.66289 8.78768 7.69376 8.78603 7.72466C8.78439 7.75552 8.77624 7.78572 8.76209 7.81326L8.7347 7.86689Z" fill="black" fill-opacity="0.95"/>
<path d="M0.0113352 4.99081C0.0163118 4.96028 0.0276603 4.93115 0.0446513 4.90525C0.061642 4.87938 0.0838996 4.85728 0.109993 4.84045C0.136086 4.82361 0.165438 4.81238 0.196162 4.80748C0.226886 4.80258 0.258301 4.80415 0.28839 4.81201L2.41013 5.37325L2.4023 5.42298L0.210909 5.30561C0.179747 5.30395 0.149289 5.29578 0.121503 5.28165C0.0937167 5.26755 0.0692212 5.24781 0.0496003 5.22368C0.0299791 5.19958 0.0156689 5.17168 0.00759465 5.14171C-0.000479577 5.11178 -0.00213814 5.08048 0.00272622 5.04988L0.0113352 4.99081Z" fill="black" fill-opacity="0.95"/>
<path d="M9.19372 6.49585C9.18886 6.52645 9.17756 6.55565 9.16061 6.58165C9.14365 6.60762 9.12143 6.62979 9.09533 6.64672C9.0692 6.66362 9.03982 6.67492 9.00907 6.67989C8.97828 6.68482 8.94681 6.68332 8.91667 6.67542L6.79492 6.11419L6.80276 6.06445L8.99417 6.18182C9.02537 6.18339 9.05588 6.19149 9.08372 6.20555C9.11157 6.21962 9.13612 6.23935 9.15578 6.26349C9.1754 6.28762 9.18972 6.31562 9.19773 6.34559C9.20574 6.37559 9.20732 6.40692 9.20235 6.43755L9.19372 6.49585Z" fill="black" fill-opacity="0.95"/>
</g>
<defs>
<clipPath id="clip0_509_337">
<rect width="50" height="11" fill="white"/>
</clipPath>
</defs>
</svg>
