<svg width="21" height="20" viewBox="0 0 21 20" fill="none" xmlns="http://www.w3.org/2000/svg">
<path fill-rule="evenodd" clip-rule="evenodd" d="M14.2461 11.209C15.4914 12.2051 16.364 13.5546 16.364 15.354V18.5671H19.9999V15.354C19.9999 13.0191 16.7549 11.6374 14.2461 11.209Z" fill="white"/>
<path d="M7.5 10.4316C9.98528 10.4316 12 8.41692 12 5.93164C12 3.44636 9.98528 1.43164 7.5 1.43164C5.01472 1.43164 3 3.44636 3 5.93164C3 8.41692 5.01472 10.4316 7.5 10.4316Z" fill="white"/>
<path fill-rule="evenodd" clip-rule="evenodd" d="M13.4972 10.4316C15.985 10.4316 18 8.41789 18 5.93164C18 3.44539 15.985 1.43164 13.4972 1.43164C12.9681 1.43164 12.4728 1.54414 12 1.70164C12.9343 2.86039 13.4972 4.33414 13.4972 5.93164C13.4972 7.52914 12.9343 9.00289 12 10.1616C12.4728 10.3191 12.9681 10.4316 13.4972 10.4316Z" fill="white"/>
<path fill-rule="evenodd" clip-rule="evenodd" d="M7.27573 11.0703C4.84876 11.0703 0.00390625 12.5055 0.00390625 15.3545V18.5677H14.5475V15.3545C14.5475 12.5055 9.7027 11.0703 7.27573 11.0703Z" fill="white"/>
</svg>
