<svg width="21" height="22" viewBox="0 0 21 22" fill="none" xmlns="http://www.w3.org/2000/svg">
<path fill-rule="evenodd" clip-rule="evenodd" d="M16.5887 4.58495C16.6802 4.59359 16.7541 4.66305 16.7692 4.75363C16.7765 4.82669 17.6824 10.9519 18.3379 15.3842C18.7104 17.9028 19.002 19.8748 19.002 19.8791L12.6764 21.2426L1.00391 19.0581L2.56171 7.04952C2.63789 6.50924 2.65869 6.49611 3.22523 6.31559L5.07206 5.74906C5.47023 4.06515 6.7294 0.769655 9.37194 0.757812C9.70802 0.757812 10.1062 0.951458 10.4314 1.373H10.5284C11.6634 1.373 12.3077 2.33834 12.6716 3.39139C13.0461 3.26976 13.2749 3.19774 13.2868 3.19774C13.3777 3.17278 13.6184 3.13757 13.7272 3.25792L14.9339 4.4646C14.9339 4.4646 16.5167 4.5731 16.5887 4.58495ZM11.3103 3.81377C11.5669 3.7372 11.807 3.66552 12.0244 3.59368C11.7834 2.83318 11.3862 2.16934 10.7947 2.07844C10.9647 2.59438 11.0461 3.13538 11.0354 3.67849V3.89615C11.1289 3.86794 11.2206 3.84056 11.3103 3.81377ZM10.3466 3.98705C10.3648 3.38627 10.2752 2.78709 10.0822 2.21799C9.44204 2.49582 8.70555 3.23263 8.30609 4.72418L10.3466 4.09587V3.98705ZM9.63568 1.59257C9.53607 1.52434 9.41872 1.48663 9.298 1.48406L9.29704 1.48118C7.40156 1.48118 6.33891 3.96816 5.88345 5.48884L7.49822 4.994C7.88423 2.99001 8.78428 1.98882 9.63568 1.59257ZM9.73757 10.4034L10.523 8.08541L10.5202 8.08445C10.5202 8.08445 10.0004 7.78358 8.91402 7.76758C6.14986 7.76758 4.77417 9.62657 4.77417 11.5349C4.77417 12.8083 5.48854 13.3861 6.11566 13.8933C6.60628 14.2901 7.0435 14.6437 7.0435 15.2535C7.04445 15.3604 7.02368 15.4664 6.98247 15.5651C6.94126 15.6638 6.88045 15.7531 6.80373 15.8276C6.72701 15.9021 6.63598 15.9603 6.53613 15.9986C6.43628 16.0369 6.3297 16.0545 6.22283 16.0505C5.32886 16.0505 4.27902 15.1447 4.27902 15.1447L3.74609 16.9211C3.74609 16.9211 4.77257 18.1646 6.77624 18.1646C8.44543 18.1646 9.68892 16.9099 9.68892 14.9542C9.68892 13.4486 8.67551 12.706 7.87592 12.1201C7.35496 11.7384 6.92476 11.4232 6.92476 11.0067C6.92476 10.8128 6.98493 10.0407 8.21658 10.0407C8.74406 10.05 9.2629 10.1736 9.73757 10.4034Z" fill="#E0E0E0"/>
<path d="M16.5868 4.58264C16.5148 4.5708 14.932 4.46229 14.932 4.46229L13.7253 3.25561C13.6805 3.21016 13.6197 3.18423 13.5566 3.18359L12.6758 21.2403L19.0014 19.8768L16.7673 4.76348C16.7601 4.71822 16.7387 4.67639 16.7063 4.64397C16.6739 4.61156 16.632 4.59021 16.5868 4.58296V4.58264Z" fill="white"/>
</svg>
