<svg width="195" height="45" viewBox="0 0 195 45" fill="none" xmlns="http://www.w3.org/2000/svg">
<g clip-path="url(#clip0_579_366)">
<path d="M56.502 35.9279C61.8195 35.9279 65.3588 32.9148 65.3588 27.9572C65.3588 23.8229 62.8796 21.5106 57.4937 19.0229C53.9032 17.3938 52.9456 16.5704 52.9456 15.2391C52.9456 13.9078 53.9202 13.1895 55.4077 13.1895C57.3398 13.1895 59.8191 14.2931 61.6315 16.0274L64.5894 11.7004C62.1272 9.45813 58.9129 8.07422 55.5959 8.07422C50.569 8.07422 47.2178 11.1223 47.2178 15.8522C47.2178 19.7237 49.5089 21.7558 54.7409 24.1908C58.1263 25.7675 59.4942 26.6433 59.4942 28.3425C59.4942 29.9016 58.3828 30.8126 56.5704 30.8126C54.1937 30.8126 51.2358 29.271 49.4405 27.2039L46.209 31.4958C48.7395 34.2111 52.5866 35.9279 56.502 35.9279ZM88.3557 26.1703C88.3557 20.512 84.047 16.553 78.0969 16.553C72.0613 16.553 67.7697 20.512 67.7697 26.1879C67.7697 31.5659 71.651 35.8052 78.0969 35.8052C82.5253 35.8052 85.5346 33.6681 87.0391 31.1804L81.9782 28.9382C81.243 30.3921 79.7896 31.2855 78.0627 31.2855C75.7886 31.2855 73.9249 29.8667 73.4633 27.3966H88.2873C88.3386 26.9762 88.3557 26.5558 88.3557 26.1703ZM78.0627 20.7748C80.3025 20.7748 81.7387 21.9485 82.3885 23.7528H73.7198C74.3866 21.8083 75.9254 20.7748 78.0627 20.7748ZM102.427 16.553C100.273 16.553 98.512 17.3413 97.1954 18.6201V16.9033H91.6214V35.4549H97.1954V25.0142C97.1954 22.474 98.4778 21.2827 100.307 21.2827C101.88 21.2827 102.992 21.8784 102.992 24.4536V35.4549H108.583V23.3148C108.583 18.9704 106.514 16.553 102.427 16.553ZM120.825 35.8052C122.962 35.8052 124.911 35.1045 126.365 33.7731V35.4549H131.956V8.5472H126.365V18.585C124.911 17.2712 122.962 16.553 120.825 16.553C115.627 16.553 111.643 20.7047 111.643 26.1703C111.643 31.6184 115.627 35.8052 120.825 35.8052ZM121.936 31.0228C119.32 31.0228 117.234 29.1134 117.234 26.1703C117.234 23.2449 119.32 21.3354 121.936 21.3354C124.535 21.3354 126.655 23.3148 126.655 26.1703C126.655 29.0608 124.535 31.0228 121.936 31.0228ZM155.791 26.1703C155.791 20.512 151.482 16.553 145.532 16.553C139.496 16.553 135.205 20.512 135.205 26.1879C135.205 31.5659 139.086 35.8052 145.532 35.8052C149.96 35.8052 152.969 33.6681 154.474 31.1804L149.413 28.9382C148.678 30.3921 147.225 31.2855 145.497 31.2855C143.224 31.2855 141.359 29.8667 140.899 27.3966H155.723C155.773 26.9762 155.791 26.5558 155.791 26.1703ZM145.497 20.7748C147.737 20.7748 149.173 21.9485 149.823 23.7528H141.154C141.821 21.8083 143.36 20.7748 145.497 20.7748ZM164.357 16.9033H159.057V35.4549H164.631V27.7119C164.631 23.7003 166.699 22.0011 170.563 22.0011V16.553C167.383 16.7807 165.28 18.7777 164.357 20.4419V16.9033ZM182.669 35.8052C188.618 35.8052 192.928 31.8461 192.928 26.1703C192.928 20.512 188.618 16.553 182.669 16.553C176.633 16.553 172.341 20.512 172.341 26.1703C172.341 31.8461 176.633 35.8052 182.669 35.8052ZM182.634 31.0228C180.018 31.0228 177.932 29.1134 177.932 26.1703C177.932 23.2449 180.018 21.3354 182.634 21.3354C185.234 21.3354 187.354 23.3148 187.354 26.1703C187.354 29.0608 185.234 31.0228 182.634 31.0228Z" fill="black"/>
<path d="M35.7681 20.6554C35.7876 20.7807 35.7814 20.9089 35.7503 21.0316C35.719 21.1542 35.6635 21.2688 35.5871 21.3675C35.5107 21.4662 35.4154 21.547 35.3072 21.6045C35.1989 21.6622 35.0803 21.6952 34.959 21.7016L26.4425 22.1817L26.4121 21.9783L34.658 19.6823C34.7748 19.6501 34.897 19.6437 35.0164 19.6638C35.1358 19.6838 35.2499 19.7298 35.3513 19.7986C35.4527 19.8675 35.5392 19.9579 35.6052 20.0637C35.6712 20.1697 35.7153 20.2889 35.7347 20.4138L35.7681 20.6554Z" fill="black" fill-opacity="0.95"/>
<path d="M0.0105951 26.331C-0.00830956 26.2058 -0.0018638 26.0778 0.0295155 25.9553C0.060895 25.8329 0.11651 25.7186 0.192764 25.62C0.269019 25.5214 0.364216 25.4406 0.472203 25.3829C0.580189 25.3252 0.698562 25.2918 0.819666 25.2848L9.33622 24.8047L9.36663 25.0081L1.12383 27.3041C1.00667 27.3364 0.884362 27.3426 0.764778 27.3224C0.645192 27.3021 0.530992 27.2558 0.42954 27.1867C0.328089 27.1174 0.241639 27.0267 0.175766 26.9205C0.109894 26.8141 0.0660606 26.6947 0.0470945 26.5695L0.0105951 26.331Z" fill="black" fill-opacity="0.95"/>
<path d="M34.0554 15.0167C34.113 15.1305 34.1468 15.2557 34.1545 15.384C34.1623 15.5123 34.1439 15.6409 34.1004 15.7612C34.057 15.8816 33.9895 15.9908 33.9026 16.0817C33.8157 16.1727 33.7112 16.2433 33.5961 16.2889L25.6332 19.4816L25.5449 19.3003L32.7079 14.4508C32.8098 14.3822 32.9242 14.3368 33.0439 14.3173C33.1635 14.298 33.2857 14.3049 33.4027 14.3379C33.5196 14.3708 33.6286 14.429 33.7227 14.5088C33.8168 14.5884 33.8938 14.6878 33.9489 14.8006L34.0554 15.0167Z" fill="black" fill-opacity="0.95"/>
<path d="M1.7231 31.9674C1.66816 31.8548 1.63647 31.7312 1.63011 31.6049C1.62373 31.4785 1.64282 31.3523 1.68611 31.2342C1.72941 31.1161 1.79597 31.0088 1.88146 30.9192C1.96694 30.8297 2.06946 30.76 2.18238 30.7145L10.1514 27.5059L10.2397 27.6872L3.07054 32.5334C2.96904 32.6026 2.85476 32.6487 2.73514 32.6686C2.61551 32.6885 2.49321 32.6819 2.37619 32.6492C2.25916 32.6165 2.15001 32.5585 2.05584 32.4788C1.96167 32.3991 1.88457 32.2997 1.82956 32.1868L1.7231 31.9674Z" fill="black" fill-opacity="0.95"/>
<path d="M30.7581 10.2091C30.8436 10.2991 30.9101 10.4068 30.9535 10.5253C30.9967 10.6438 31.0159 10.7705 31.0095 10.8971C31.0033 11.0238 30.9717 11.1477 30.9169 11.2609C30.8621 11.374 30.7851 11.474 30.6912 11.5542L24.0696 17.1765L23.9297 17.0302L29.3134 10.1073C29.3899 10.0092 29.4852 9.92885 29.5931 9.87156C29.7011 9.81426 29.8194 9.78126 29.9402 9.77466C30.0612 9.76808 30.1821 9.78806 30.2952 9.83329C30.4083 9.87853 30.5111 9.94805 30.5969 10.0374L30.7581 10.2091Z" fill="black" fill-opacity="0.95"/>
<path d="M5.02001 36.775C4.93459 36.6852 4.8681 36.5778 4.82483 36.4596C4.78155 36.3413 4.76245 36.2149 4.76876 36.0885C4.77506 35.9621 4.80662 35.8384 4.86143 35.7255C4.91622 35.6126 4.99305 35.5131 5.08693 35.433L11.7085 29.7949L11.8485 29.938L6.46783 36.88C6.39139 36.9783 6.29602 37.0587 6.1879 37.116C6.07979 37.1734 5.96135 37.2063 5.84029 37.2126C5.71921 37.2188 5.59824 37.1984 5.48522 37.1527C5.37219 37.1069 5.26964 37.0366 5.18426 36.9468L5.02001 36.775Z" fill="black" fill-opacity="0.95"/>
<path d="M26.2018 6.70248C26.3101 6.76004 26.4055 6.84074 26.4821 6.93935C26.5586 7.03797 26.6145 7.1523 26.6461 7.27493C26.6776 7.39755 26.6841 7.52575 26.6652 7.65119C26.6463 7.77663 26.6024 7.89652 26.5364 8.0031L21.901 15.4857L21.7246 15.3934L24.7935 7.07136C24.8366 6.95074 24.904 6.84116 24.9909 6.74996C25.0778 6.65876 25.1824 6.58806 25.2977 6.54258C25.4128 6.4971 25.536 6.47791 25.6589 6.48629C25.7819 6.49467 25.9017 6.53043 26.0103 6.59118L26.2018 6.70248Z" fill="black" fill-opacity="0.95"/>
<path d="M9.57672 40.2888C9.46742 40.232 9.37089 40.1515 9.2935 40.0528C9.21609 39.9542 9.15958 39.8394 9.12767 39.7162C9.09577 39.5931 9.08921 39.4642 9.10841 39.3381C9.12762 39.2121 9.17217 39.0917 9.2391 38.985L13.8776 31.4961L14.054 31.5915L10.985 39.9135C10.9415 40.0338 10.874 40.143 10.787 40.234C10.6999 40.3248 10.5954 40.3953 10.4804 40.4409C10.3653 40.4863 10.2423 40.5055 10.1195 40.4975C9.99674 40.4893 9.87704 40.454 9.76835 40.3937L9.57672 40.2888Z" fill="black" fill-opacity="0.95"/>
<path d="M20.8326 4.83904C20.9522 4.8588 21.0664 4.90462 21.168 4.97352C21.2695 5.04244 21.3562 5.1329 21.422 5.23905C21.4881 5.34519 21.532 5.46465 21.5509 5.58968C21.5699 5.7147 21.5635 5.84248 21.5321 5.96476L19.3361 14.5858L19.1445 14.554L19.6037 5.64994C19.61 5.52346 19.6415 5.39977 19.6963 5.28687C19.7513 5.17397 19.8282 5.0744 19.9223 4.99464C20.0164 4.91487 20.1256 4.85668 20.2426 4.82385C20.3596 4.79101 20.4817 4.78428 20.6014 4.80406L20.8326 4.83904Z" fill="black" fill-opacity="0.95"/>
<path d="M14.9447 42.1459C14.8249 42.1266 14.7103 42.0812 14.6085 42.0123C14.5066 41.9436 14.4199 41.853 14.3538 41.7468C14.2878 41.6406 14.2439 41.5208 14.2251 41.3957C14.2065 41.2705 14.2132 41.1424 14.245 41.0203L16.441 32.4023L16.6327 32.4343L16.1734 41.3383C16.1689 41.4658 16.1385 41.5909 16.0843 41.7053C16.0302 41.8198 15.9535 41.9208 15.8591 42.0019C15.7649 42.0831 15.6552 42.1424 15.5375 42.1759C15.4197 42.2096 15.2964 42.2167 15.1758 42.1968L14.9447 42.1459Z" fill="black" fill-opacity="0.95"/>
<path d="M15.177 4.80016C15.2965 4.78037 15.4188 4.78711 15.5358 4.81994C15.6528 4.85278 15.762 4.91096 15.8561 4.99074C15.9501 5.0705 16.0271 5.17007 16.0819 5.28295C16.1369 5.39585 16.1684 5.51956 16.1745 5.64603L16.6339 14.55L16.4422 14.5819L14.2463 5.96086C14.2149 5.83858 14.2085 5.71079 14.2275 5.58576C14.2464 5.46074 14.2903 5.34129 14.3562 5.23514C14.4222 5.129 14.5087 5.03853 14.6103 4.96961C14.712 4.90071 14.8262 4.85489 14.9458 4.83513L15.177 4.80016Z" fill="black" fill-opacity="0.95"/>
<path d="M20.6014 42.1965C20.482 42.2162 20.36 42.2096 20.2432 42.177C20.1264 42.1442 20.0175 42.0864 19.9234 42.0069C19.8294 41.9276 19.7524 41.8283 19.6973 41.7158C19.6422 41.6033 19.6104 41.48 19.6037 41.3537L19.1445 32.4497L19.3361 32.418L21.5321 41.0198C21.5639 41.1421 21.5707 41.27 21.5519 41.3953C21.5332 41.5205 21.4894 41.6401 21.4234 41.7465C21.3574 41.8527 21.2706 41.9432 21.1688 42.012C21.0669 42.0807 20.9524 42.1262 20.8326 42.1456L20.6014 42.1965Z" fill="black" fill-opacity="0.95"/>
<path d="M9.7834 6.5814C9.892 6.52067 10.0118 6.48491 10.1347 6.47653C10.2575 6.46814 10.3807 6.48733 10.496 6.5328C10.6112 6.57828 10.7158 6.64899 10.8027 6.74019C10.8896 6.83139 10.9569 6.94097 11 7.06158L14.0538 15.3964L13.8774 15.4855L9.23895 8.00287C9.17291 7.89629 9.12902 7.7764 9.11014 7.65096C9.09127 7.52552 9.09781 7.39732 9.12935 7.2747C9.16091 7.15207 9.21674 7.03775 9.29326 6.93913C9.36977 6.84051 9.46527 6.75981 9.57353 6.70225L9.7834 6.5814Z" fill="black" fill-opacity="0.95"/>
<path d="M25.995 40.3937C25.8863 40.454 25.7666 40.4893 25.6438 40.4975C25.521 40.5055 25.398 40.4863 25.283 40.4409C25.1679 40.3953 25.0634 40.3248 24.9764 40.234C24.8893 40.143 24.8219 40.0338 24.7783 39.9135L21.7246 31.5915L21.901 31.4961L26.5364 38.985C26.6035 39.0915 26.6482 39.2117 26.6676 39.3375C26.687 39.4635 26.6807 39.5923 26.6491 39.7154C26.6174 39.8385 26.5613 39.9534 26.4842 40.0522C26.4071 40.1511 26.3109 40.2317 26.2018 40.2888L25.995 40.3937Z" fill="black" fill-opacity="0.95"/>
<path d="M5.18444 10.0374C5.27028 9.94805 5.37305 9.87853 5.48614 9.83329C5.59923 9.78806 5.72015 9.76808 5.84107 9.77466C5.962 9.78126 6.08026 9.81426 6.18824 9.87156C6.29622 9.92885 6.39153 10.0092 6.46801 10.1073L11.8486 17.0302L11.7087 17.1765L5.08711 11.5542C4.99316 11.474 4.91629 11.374 4.86146 11.2609C4.80664 11.1477 4.77506 11.0238 4.76875 10.8971C4.76245 10.7705 4.78157 10.6438 4.82488 10.5253C4.86817 10.4068 4.93471 10.2991 5.02021 10.2091L5.18444 10.0374Z" fill="black" fill-opacity="0.95"/>
<path d="M30.5939 36.9465C30.5084 37.0363 30.4059 37.1065 30.2929 37.1524C30.1799 37.198 30.059 37.2185 29.9378 37.2122C29.8167 37.206 29.6984 37.1731 29.5902 37.1157C29.4821 37.0584 29.3867 36.978 29.3103 36.8796L23.9297 29.9536L24.0696 29.8105L30.6912 35.4327C30.7851 35.5127 30.8619 35.6123 30.9168 35.7252C30.9715 35.8381 31.0031 35.9618 31.0094 36.0882C31.0156 36.2146 30.9966 36.341 30.9534 36.4592C30.91 36.5775 30.8436 36.6849 30.7581 36.7746L30.5939 36.9465Z" fill="black" fill-opacity="0.95"/>
<path d="M1.83038 14.8006C1.88548 14.6878 1.96255 14.5884 2.05664 14.5088C2.15072 14.429 2.25974 14.3708 2.37665 14.3379C2.49358 14.3049 2.6158 14.298 2.73545 14.3173C2.8551 14.3368 2.96952 14.3822 3.07137 14.4508L10.2344 19.3003L10.1523 19.4816L2.18321 16.2729C2.06815 16.2274 1.96369 16.1569 1.87674 16.0659C1.78978 15.9748 1.72235 15.8656 1.6789 15.7453C1.63546 15.6251 1.61701 15.4963 1.62477 15.368C1.63253 15.2397 1.66633 15.1145 1.72392 15.0009L1.83038 14.8006Z" fill="black" fill-opacity="0.95"/>
<path d="M33.9489 32.1868C33.894 32.2997 33.8169 32.3991 33.7227 32.4788C33.6284 32.5585 33.5193 32.6165 33.4023 32.6492C33.2853 32.6819 33.163 32.6885 33.0433 32.6686C32.9237 32.6487 32.8095 32.6026 32.7079 32.5334L25.5449 27.6872L25.6332 27.5059L33.5961 30.7145C33.7091 30.76 33.8116 30.8297 33.897 30.9192C33.9826 31.0088 34.0491 31.1161 34.0924 31.2342C34.1356 31.3523 34.1548 31.4785 34.1484 31.6049C34.142 31.7312 34.1104 31.8548 34.0554 31.9674L33.9489 32.1868Z" fill="black" fill-opacity="0.95"/>
<path d="M0.046006 20.4138C0.0653466 20.2889 0.109451 20.1697 0.175484 20.0637C0.241517 19.9579 0.328017 19.8675 0.429425 19.7986C0.530834 19.7298 0.644905 19.6838 0.764308 19.6638C0.883713 19.6437 1.00581 19.6501 1.12274 19.6823L9.36859 21.9783L9.33817 22.1817L0.82162 21.7016C0.700515 21.6948 0.582143 21.6614 0.474157 21.6035C0.36617 21.5459 0.270972 21.4651 0.194718 21.3664C0.118463 21.2678 0.0628481 21.1537 0.0314687 21.0311C8.93146e-05 20.9086 -0.00635645 20.7806 0.0125482 20.6554L0.046006 20.4138Z" fill="black" fill-opacity="0.95"/>
<path d="M35.7308 26.5695C35.7119 26.6947 35.668 26.8141 35.6021 26.9205C35.5362 27.0267 35.4499 27.1174 35.3484 27.1867C35.2469 27.2558 35.1327 27.3021 35.0132 27.3224C34.8935 27.3426 34.7712 27.3364 34.6541 27.3041L26.4082 25.0081L26.4387 24.8047L34.9553 25.2848C35.0765 25.2912 35.1951 25.3244 35.3033 25.3819C35.4115 25.4395 35.507 25.5202 35.5834 25.6189C35.6596 25.7176 35.7152 25.8322 35.7464 25.9548C35.7775 26.0775 35.7837 26.2057 35.7644 26.331L35.7308 26.5695Z" fill="black" fill-opacity="0.95"/>
</g>
<defs>
<clipPath id="clip0_579_366">
<rect width="194.318" height="45" fill="white"/>
</clipPath>
</defs>
</svg>
