<svg width="119" height="34" viewBox="0 0 119 34" fill="none" xmlns="http://www.w3.org/2000/svg">
<g clip-path="url(#clip0_579_336)">
<path d="M37.5169 22.3845L32.8769 4.22852H27.8359L23.3789 22.2735L19.2879 4.22852H13.2969L19.6529 30.3475H25.3519L30.1379 12.3015L34.8499 30.3475H40.8769L47.2329 4.22852H41.7539L37.5169 22.3845Z" fill="black"/>
<path d="M52.7191 2.8763C52.1544 2.90424 51.6104 3.09723 51.1543 3.43136C50.6983 3.76548 50.3503 4.22606 50.1534 4.75604C49.9566 5.28601 49.9196 5.86209 50.0469 6.4129C50.1743 6.96371 50.4605 7.46505 50.87 7.85481C51.2795 8.24457 51.7944 8.50562 52.3508 8.60561C52.9072 8.70561 53.4808 8.64016 54.0004 8.41738C54.52 8.1946 54.9628 7.82427 55.274 7.35227C55.5852 6.88027 55.751 6.32735 55.7511 5.762C55.7503 5.37079 55.6702 4.9838 55.5157 4.6244C55.3611 4.265 55.1354 3.94066 54.852 3.67095C54.5686 3.40124 54.2335 3.19177 53.8669 3.05519C53.5003 2.91861 53.1098 2.85776 52.7191 2.8763Z" fill="black"/>
<path d="M55.3877 11.2422H50.127V30.3472H55.3877V11.2422Z" fill="black"/>
<path d="M59.3699 15.3332H67.8449L58.4199 29.7632V30.3472H75.1499V26.2562H66.0189L75.5169 11.8992V11.2422H59.3699V15.3332Z" fill="black"/>
<path d="M86.8802 10.8034C85.5673 10.7546 84.2586 10.979 83.037 11.4625C81.8154 11.9461 80.7076 12.6781 79.7838 13.6123C78.8599 14.5464 78.1403 15.6623 77.6704 16.8892C77.2005 18.1161 76.9906 19.4273 77.054 20.7395V21.0324C77.054 27.1324 81.2552 30.7492 87.0267 30.7492C92.2503 30.7492 95.5384 28.4475 96.1585 24.3192H91.1545C90.8254 25.9267 89.6203 26.9862 87.1731 26.9862C84.2863 26.9862 82.5705 25.1601 82.424 21.9813H96.1955V20.5207C96.1955 13.6902 91.8117 10.8034 86.8802 10.8034ZM82.4974 18.7307C82.8987 16.0275 84.5062 14.4567 86.8802 14.4567C89.4002 14.4567 90.8626 15.8444 91.0452 18.7307H82.4974Z" fill="black"/>
<path d="M112.967 2.58398V14.0908C112.382 13.0237 111.503 12.1467 110.435 11.564C109.366 10.9813 108.153 10.7172 106.94 10.8032C102.154 10.8032 98.5371 14.4927 98.5371 20.7764V21.0684C98.5371 27.4248 102.19 30.749 106.83 30.749C108.08 30.759 109.31 30.4318 110.39 29.8018C111.47 29.1717 112.36 28.2622 112.967 27.169V30.3468H118.227V2.58398H112.967ZM113.112 20.8857C113.112 24.7578 111.177 26.6211 108.4 26.6211C105.77 26.6211 103.944 24.7578 103.944 20.959V20.667C103.944 16.867 105.588 14.8584 108.547 14.8584C111.433 14.8584 113.112 16.7944 113.112 20.5938V20.8857Z" fill="black"/>
<path d="M0 33.753H10.082V29.845H5.297V3.908H10.082V0H0V33.753Z" fill="black"/>
</g>
<defs>
<clipPath id="clip0_579_336">
<rect width="118.227" height="33.7529" fill="white"/>
</clipPath>
</defs>
</svg>
