<svg width="142" height="37" viewBox="0 0 142 37" fill="none" xmlns="http://www.w3.org/2000/svg">
<path d="M36.15 0H0V36.15H36.15V0Z" fill="black"/>
<path d="M18.6696 10.0908L14.9436 26.0598H8.85156C9.46075 23.3616 10.2947 20.719 11.3446 18.1599C12.5584 15.3788 13.9582 12.6827 15.5346 10.0898L18.6696 10.0908Z" fill="white"/>
<path d="M27.2985 10.0908L23.5725 26.0598H17.4805C18.0897 23.3616 18.9236 20.719 19.9735 18.1599C21.1873 15.3788 22.5871 12.6827 24.1635 10.0898L27.2985 10.0908Z" fill="white"/>
<path d="M47.5391 24.9992H50.0391L51.1591 21.4592H56.6191L57.7591 24.9992H60.5191L55.7991 10.6992H52.3191L47.5391 24.9992ZM53.8991 12.8792L55.9991 19.5192H51.7791L53.8991 12.8792ZM65.7791 25.1792C66.3369 25.1916 66.8924 25.1035 67.4191 24.9192V22.9992C67.0434 23.1452 66.6419 23.2132 66.2391 23.1992C65.4791 23.1992 65.0391 22.7792 65.0391 21.8592V16.3592H67.3391V14.5392H65.0391V12.2392H62.6191V14.5392H61.2191V16.3592H62.6191V22.0792C62.5722 22.503 62.6222 22.9319 62.7653 23.3335C62.9085 23.7351 63.141 24.0989 63.4454 24.3975C63.7497 24.6961 64.1179 24.9216 64.5222 25.057C64.9265 25.1924 65.3563 25.2342 65.7791 25.1792ZM73.1591 25.1792C73.7169 25.1916 74.2724 25.1035 74.7991 24.9192V22.9992C74.4234 23.1452 74.0219 23.2132 73.6191 23.1992C72.8591 23.1992 72.4191 22.7792 72.4191 21.8592V16.3592H74.7191V14.5392H72.4191V12.2392H69.9991V14.5392H68.5991V16.3592H69.9991V22.0792C69.9522 22.503 70.0022 22.9319 70.1453 23.3335C70.2885 23.7351 70.521 24.0989 70.8253 24.3975C71.1297 24.6961 71.4979 24.9216 71.9022 25.057C72.3065 25.1924 72.7363 25.2342 73.1591 25.1792ZM76.9791 24.9992H79.3991V19.5592C79.3991 17.3392 80.6791 16.6592 82.7991 16.6392V14.3792C82.0831 14.34 81.3725 14.5226 80.764 14.9019C80.1556 15.2813 79.679 15.8391 79.3991 16.4992V14.5392H76.9791V24.9992ZM86.1591 12.8192C86.3446 12.8245 86.5293 12.7929 86.7025 12.7262C86.8757 12.6595 87.0339 12.559 87.1679 12.4306C87.3019 12.3022 87.409 12.1484 87.483 11.9782C87.557 11.808 87.5965 11.6248 87.5991 11.4392C87.5991 11.252 87.5616 11.0666 87.4888 10.8941C87.416 10.7215 87.3092 10.5654 87.175 10.4349C87.0407 10.3043 86.8816 10.202 86.7071 10.1341C86.5326 10.0661 86.3463 10.0339 86.1591 10.0392C85.9719 10.0339 85.7855 10.0661 85.611 10.1341C85.4365 10.202 85.2774 10.3043 85.1432 10.4349C85.0089 10.5654 84.9022 10.7215 84.8293 10.8941C84.7565 11.0666 84.719 11.252 84.7191 11.4392C84.7216 11.6248 84.7611 11.808 84.8351 11.9782C84.9091 12.1484 85.0163 12.3022 85.1503 12.4306C85.2843 12.559 85.4424 12.6595 85.6156 12.7262C85.7888 12.7929 85.9735 12.8245 86.1591 12.8192ZM84.9791 24.9992H87.3991V14.5392H84.9791V24.9992ZM96.1791 25.1992C98.8791 25.1992 100.819 23.1592 100.819 19.7992V19.6392C100.819 16.2592 98.7991 14.3192 96.1791 14.3192C95.4948 14.3206 94.8221 14.4957 94.2239 14.828C93.6258 15.1603 93.1218 15.639 92.7591 16.2192V9.69922H90.3391V24.9992H92.7591V23.3192C93.1 23.9178 93.6 24.4102 94.2037 24.742C94.8073 25.0739 95.491 25.2321 96.1791 25.1992ZM95.5791 23.2792C93.8191 23.2792 92.6791 22.1792 92.6791 19.8392V19.6792C92.6791 17.3592 93.8791 16.2192 95.5591 16.2192C97.1391 16.2192 98.3391 17.3592 98.3391 19.6792V19.8392C98.3391 22.0792 97.3591 23.2792 95.5791 23.2792ZM106.499 25.1992C107.17 25.2415 107.84 25.0906 108.428 24.7646C109.016 24.4385 109.499 23.9509 109.819 23.3592V24.9992H112.239V14.5392H109.819V20.7592C109.843 21.0885 109.797 21.4191 109.683 21.7292C109.57 22.0393 109.392 22.3219 109.161 22.5581C108.931 22.7944 108.653 22.9791 108.345 23.0999C108.038 23.2208 107.709 23.2751 107.379 23.2592C105.979 23.2592 105.319 22.5392 105.319 20.9592V14.5392H102.899V21.2392C102.899 24.0192 104.439 25.1992 106.499 25.1992ZM118.659 25.1792C119.217 25.1916 119.772 25.1035 120.299 24.9192V22.9992C119.923 23.1452 119.522 23.2132 119.119 23.1992C118.359 23.1992 117.919 22.7792 117.919 21.8592V16.3592H120.219V14.5392H117.919V12.2392H115.499V14.5392H114.099V16.3592H115.499V22.0792C115.452 22.503 115.502 22.9319 115.645 23.3335C115.788 23.7351 116.021 24.0989 116.325 24.3975C116.63 24.6961 116.998 24.9216 117.402 25.057C117.806 25.1924 118.236 25.2342 118.659 25.1792ZM127.079 25.1992C129.759 25.1992 131.539 23.9992 131.879 21.7992H129.539C129.359 22.8192 128.599 23.3992 127.139 23.3992C125.339 23.3992 124.339 22.2792 124.259 20.2992H131.919V19.5992C131.919 15.8592 129.579 14.3192 126.979 14.3192C126.274 14.3019 125.574 14.4313 124.922 14.6992C124.27 14.9672 123.68 15.3677 123.191 15.8755C122.702 16.3833 122.324 16.9872 122.081 17.6489C121.838 18.3106 121.735 19.0156 121.779 19.7192V19.8792C121.734 20.5878 121.84 21.2978 122.091 21.9623C122.341 22.6267 122.729 23.2304 123.23 23.7334C123.731 24.2364 124.334 24.6272 124.997 24.8799C125.661 25.1326 126.37 25.2414 127.079 25.1992ZM124.299 18.6792C124.321 17.9826 124.612 17.3218 125.113 16.8365C125.613 16.3513 126.282 16.0797 126.979 16.0792C128.479 16.0792 129.399 16.8792 129.519 18.6792H124.299ZM137.759 25.1992C140.439 25.1992 141.939 23.9792 141.939 21.8592C141.939 19.6392 140.479 19.0392 138.019 18.6592C136.359 18.3792 135.859 18.0792 135.859 17.3192C135.859 16.5792 136.479 16.0792 137.519 16.0792C137.734 16.0444 137.953 16.0533 138.164 16.1054C138.375 16.1576 138.574 16.2519 138.748 16.3826C138.921 16.5134 139.067 16.678 139.175 16.8664C139.284 17.0549 139.353 17.2633 139.379 17.4792H141.619C141.359 15.1192 139.659 14.3192 137.519 14.3192C135.559 14.3192 133.599 15.3592 133.599 17.4592C133.599 19.4192 134.619 20.1992 137.379 20.6392C138.919 20.8992 139.619 21.2192 139.619 22.0792C139.619 22.9592 139.039 23.4192 137.739 23.4192C136.319 23.4192 135.779 22.7992 135.659 21.7392H133.379C133.479 23.9592 135.059 25.1992 137.759 25.1992Z" fill="black"/>
</svg>
