<svg width="309" height="80" viewBox="0 0 309 80" fill="none" xmlns="http://www.w3.org/2000/svg">
<path d="M40 77C60.4345 77 77 60.4345 77 40C77 19.5655 60.4345 3 40 3C19.5655 3 3 19.5655 3 40C3 60.4345 19.5655 77 40 77Z" fill="white"/>
<path d="M40 77C60.4345 77 77 60.4345 77 40C77 19.5655 60.4345 3 40 3C19.5655 3 3 19.5655 3 40C3 60.4345 19.5655 77 40 77Z" stroke="#5E72E4" stroke-width="6"/>
<path fill-rule="evenodd" clip-rule="evenodd" d="M19 69H61C56.4006 65.7151 52.9511 63.6282 50.6515 62.7393C48.3518 61.8504 44.9023 61.2707 40.3029 61C35.5692 61.2706 32.0188 61.8504 29.6517 62.7393C27.2847 63.6282 23.7341 65.7151 19 69Z" fill="#5E72E4" stroke="#5E72E4"/>
<path fill-rule="evenodd" clip-rule="evenodd" d="M19 69H61C56.4006 72.2849 52.9511 74.3718 50.6515 75.2607C48.3518 76.1496 44.9023 76.7293 40.3029 77C35.5692 76.7294 32.0188 76.1496 29.6517 75.2607C27.2847 74.3718 23.7341 72.2849 19 69Z" fill="#5E72E4" stroke="#5E72E4"/>
<path d="M40.5 48C44.6421 48 48 44.6421 48 40.5C48 36.3579 44.6421 33 40.5 33C36.3579 33 33 36.3579 33 40.5C33 44.6421 36.3579 48 40.5 48Z" fill="#5E72E4"/>
<path fill-rule="evenodd" clip-rule="evenodd" d="M38 35.355L56 24L46.131 43L38 35.355Z" fill="#5E72E4" stroke="#5E72E4" stroke-width="3" stroke-linejoin="round"/>
<path d="M40.5 13V17" stroke="#5E72E4" stroke-width="5" stroke-linecap="round"/>
<path d="M21.5762 21.5752L24.4245 24.5247" stroke="#5E72E4" stroke-width="5" stroke-linecap="round"/>
<path d="M12.5 40H16.5" stroke="#5E72E4" stroke-width="5" stroke-linecap="round"/>
<path d="M63.5 40H67.5" stroke="#5E72E4" stroke-width="5" stroke-linecap="round"/>
<path d="M98 49.65C98.3333 49.8833 99.0333 50.2167 100.1 50.65C101.2 51.05 102.483 51.25 103.95 51.25C105.517 51.25 106.7 50.9 107.5 50.2C108.3 49.5 108.833 48.3833 109.1 46.85C109.367 45.3167 109.5 43.3167 109.5 40.85V22.5H117.7V40.55C117.7 43.25 117.55 45.7 117.25 47.9C116.95 50.1 116.333 52 115.4 53.6C114.5 55.1667 113.133 56.3833 111.3 57.25C109.467 58.1167 107.017 58.55 103.95 58.55C100.917 58.55 98.3333 57.8167 96.2 56.35L98 49.65ZM135.568 58.5C132.601 58.5 130.068 57.8833 127.968 56.65C125.868 55.4167 124.251 53.7833 123.118 51.75C122.018 49.7167 121.468 47.5167 121.468 45.15C121.468 42.6167 122.018 40.3 123.118 38.2C124.218 36.1 125.818 34.4167 127.918 33.15C130.018 31.8833 132.568 31.25 135.568 31.25C138.534 31.25 141.068 31.8833 143.168 33.15C145.268 34.4167 146.851 36.0833 147.918 38.15C149.018 40.2167 149.568 42.4333 149.568 44.8C149.568 45.7667 149.501 46.6167 149.368 47.35H129.968C130.101 49.1167 130.734 50.4667 131.868 51.4C133.034 52.3 134.351 52.75 135.818 52.75C136.984 52.75 138.101 52.4667 139.168 51.9C140.234 51.3333 140.968 50.5667 141.368 49.6L148.168 51.5C147.134 53.5667 145.518 55.25 143.318 56.55C141.151 57.85 138.568 58.5 135.568 58.5ZM129.768 42.45H141.168C141.001 40.7833 140.384 39.4667 139.318 38.5C138.284 37.5 137.001 37 135.468 37C133.934 37 132.634 37.5 131.568 38.5C130.534 39.5 129.934 40.8167 129.768 42.45ZM169.9 56.6C168.8 57.0667 167.534 57.5 166.1 57.9C164.7 58.3 163.284 58.5 161.85 58.5C160.517 58.5 159.3 58.2833 158.2 57.85C157.1 57.3833 156.217 56.6333 155.55 55.6C154.884 54.5667 154.55 53.2 154.55 51.5V37.8H151.2V31.75H154.55V23.4H162.55V31.75H167.9V37.8H162.55V48.75C162.55 49.6167 162.767 50.25 163.2 50.65C163.634 51.0167 164.184 51.2 164.85 51.2C165.45 51.2 166.067 51.1 166.7 50.9C167.334 50.7 167.884 50.4833 168.35 50.25L169.9 56.6ZM188.768 58.5C186.768 58.5 185.018 58.0833 183.518 57.25C182.018 56.3833 180.834 55.1833 179.968 53.65V58H173.018V21.5H181.018V36.05C181.851 34.55 183.001 33.3833 184.468 32.55C185.934 31.6833 187.651 31.25 189.618 31.25C191.851 31.25 193.818 31.8667 195.518 33.1C197.251 34.3333 198.601 35.9833 199.568 38.05C200.534 40.1167 201.018 42.4333 201.018 45C201.018 47.5333 200.484 49.8333 199.418 51.9C198.351 53.9333 196.884 55.55 195.018 56.75C193.184 57.9167 191.101 58.5 188.768 58.5ZM186.518 51.75C188.384 51.75 189.901 51.1 191.068 49.8C192.234 48.5 192.818 46.9 192.818 45C192.818 43.7667 192.551 42.6167 192.018 41.55C191.518 40.4833 190.818 39.6333 189.918 39C189.051 38.3667 188.051 38.05 186.918 38.05C185.651 38.05 184.484 38.4833 183.418 39.35C182.351 40.2167 181.551 41.3 181.018 42.6V48.1C181.551 49.2333 182.318 50.1333 183.318 50.8C184.351 51.4333 185.418 51.75 186.518 51.75ZM217.5 58.5C214.5 58.5 211.95 57.8667 209.85 56.6C207.783 55.3333 206.2 53.6667 205.1 51.6C204 49.5333 203.45 47.3 203.45 44.9C203.45 42.4667 204 40.2167 205.1 38.15C206.2 36.0833 207.8 34.4167 209.9 33.15C212 31.8833 214.533 31.25 217.5 31.25C220.467 31.25 223 31.8833 225.1 33.15C227.2 34.4167 228.8 36.0833 229.9 38.15C231 40.2167 231.55 42.4667 231.55 44.9C231.55 47.3 231 49.5333 229.9 51.6C228.8 53.6667 227.2 55.3333 225.1 56.6C223 57.8667 220.467 58.5 217.5 58.5ZM211.65 44.9C211.65 46.9333 212.2 48.5833 213.3 49.85C214.433 51.1167 215.833 51.75 217.5 51.75C219.133 51.75 220.5 51.1167 221.6 49.85C222.733 48.5833 223.3 46.9333 223.3 44.9C223.3 42.8667 222.733 41.2167 221.6 39.95C220.5 38.6833 219.133 38.05 217.5 38.05C215.833 38.05 214.433 38.6833 213.3 39.95C212.2 41.2167 211.65 42.8667 211.65 44.9ZM248.018 58.5C245.018 58.5 242.468 57.8667 240.368 56.6C238.301 55.3333 236.718 53.6667 235.618 51.6C234.518 49.5333 233.968 47.3 233.968 44.9C233.968 42.4667 234.518 40.2167 235.618 38.15C236.718 36.0833 238.318 34.4167 240.418 33.15C242.518 31.8833 245.051 31.25 248.018 31.25C250.984 31.25 253.518 31.8833 255.618 33.15C257.718 34.4167 259.318 36.0833 260.418 38.15C261.518 40.2167 262.068 42.4667 262.068 44.9C262.068 47.3 261.518 49.5333 260.418 51.6C259.318 53.6667 257.718 55.3333 255.618 56.6C253.518 57.8667 250.984 58.5 248.018 58.5ZM242.168 44.9C242.168 46.9333 242.718 48.5833 243.818 49.85C244.951 51.1167 246.351 51.75 248.018 51.75C249.651 51.75 251.018 51.1167 252.118 49.85C253.251 48.5833 253.818 46.9333 253.818 44.9C253.818 42.8667 253.251 41.2167 252.118 39.95C251.018 38.6833 249.651 38.05 248.018 38.05C246.351 38.05 244.951 38.6833 243.818 39.95C242.718 41.2167 242.168 42.8667 242.168 44.9ZM276.085 58.5C273.818 58.5 271.618 58.1333 269.485 57.4C267.385 56.6333 265.602 55.55 264.135 54.15L266.885 49.1C270.118 51.4667 273.102 52.65 275.835 52.65C276.868 52.65 277.668 52.4833 278.235 52.15C278.802 51.8167 279.085 51.3 279.085 50.6C279.085 49.8667 278.702 49.35 277.935 49.05C277.168 48.7167 276.035 48.3333 274.535 47.9C272.535 47.2333 270.868 46.5833 269.535 45.95C268.202 45.3167 267.202 44.55 266.535 43.65C265.868 42.75 265.535 41.55 265.535 40.05C265.535 37.4167 266.518 35.3 268.485 33.7C270.452 32.0667 273.118 31.25 276.485 31.25C278.285 31.25 280.035 31.5333 281.735 32.1C283.468 32.6667 285.085 33.6167 286.585 34.95L283.485 39.95C281.985 38.9167 280.652 38.1667 279.485 37.7C278.318 37.2333 277.185 37 276.085 37C275.218 37 274.485 37.1667 273.885 37.5C273.285 37.8 272.985 38.3333 272.985 39.1C272.985 39.8333 273.318 40.3833 273.985 40.75C274.652 41.0833 275.685 41.45 277.085 41.85C279.218 42.4833 281.002 43.1333 282.435 43.8C283.902 44.4333 284.985 45.2333 285.685 46.2C286.418 47.1333 286.785 48.3833 286.785 49.95C286.785 52.6167 285.818 54.7167 283.885 56.25C281.952 57.75 279.352 58.5 276.085 58.5ZM307.693 56.6C306.593 57.0667 305.327 57.5 303.893 57.9C302.493 58.3 301.077 58.5 299.643 58.5C298.31 58.5 297.093 58.2833 295.993 57.85C294.893 57.3833 294.01 56.6333 293.343 55.6C292.677 54.5667 292.343 53.2 292.343 51.5V37.8H288.993V31.75H292.343V23.4H300.343V31.75H305.693V37.8H300.343V48.75C300.343 49.6167 300.56 50.25 300.993 50.65C301.427 51.0167 301.977 51.2 302.643 51.2C303.243 51.2 303.86 51.1 304.493 50.9C305.127 50.7 305.677 50.4833 306.143 50.25L307.693 56.6Z" fill="#5E72E4"/>
</svg>
