<svg width="74" height="100" viewBox="0 0 74 100" fill="none" xmlns="http://www.w3.org/2000/svg">
<mask id="mask0_580_396" style="mask-type:alpha" maskUnits="userSpaceOnUse" x="1" y="1" width="71" height="98">
<path d="M45.3984 1.42969H7.86728C4.22455 1.42969 1.24414 4.4101 1.24414 8.05283V91.9458C1.24414 95.5886 4.22455 98.569 7.86728 98.569H65.2678C68.9105 98.569 71.8909 95.5886 71.8909 91.9458V27.9222L45.3984 1.42969Z" fill="white"/>
</mask>
<g mask="url(#mask0_580_396)">
<path d="M45.3984 1.42969H7.86728C4.22455 1.42969 1.24414 4.4101 1.24414 8.05283V91.9458C1.24414 95.5886 4.22455 98.569 7.86728 98.569H65.2678C68.9105 98.569 71.8909 95.5886 71.8909 91.9458V27.9222L56.4369 16.8836L45.3984 1.42969Z" fill="#0F9D58"/>
</g>
<mask id="mask1_580_396" style="mask-type:alpha" maskUnits="userSpaceOnUse" x="1" y="1" width="71" height="98">
<path d="M45.3984 1.42969H7.86728C4.22455 1.42969 1.24414 4.4101 1.24414 8.05283V91.9458C1.24414 95.5886 4.22455 98.569 7.86728 98.569H65.2678C68.9105 98.569 71.8909 95.5886 71.8909 91.9458V27.9222L45.3984 1.42969Z" fill="white"/>
</mask>
<g mask="url(#mask1_580_396)">
<path d="M18.9062 48.8965V80.9083H54.2297V48.8965H18.9062ZM34.3603 76.4929H23.3218V70.9736H34.3603V76.4929ZM34.3603 67.662H23.3218V62.1427H34.3603V67.662ZM34.3603 58.8312H23.3218V53.3119H34.3603V58.8312ZM49.8143 76.4929H38.7757V70.9736H49.8143V76.4929ZM49.8143 67.662H38.7757V62.1427H49.8143V67.662ZM49.8143 58.8312H38.7757V53.3119H49.8143V58.8312Z" fill="#F1F1F1"/>
</g>
<mask id="mask2_580_396" style="mask-type:alpha" maskUnits="userSpaceOnUse" x="1" y="1" width="71" height="98">
<path d="M45.3984 1.42969H7.86728C4.22455 1.42969 1.24414 4.4101 1.24414 8.05283V91.9458C1.24414 95.5886 4.22455 98.569 7.86728 98.569H65.2678C68.9105 98.569 71.8909 95.5886 71.8909 91.9458V27.9222L45.3984 1.42969Z" fill="white"/>
</mask>
<g mask="url(#mask2_580_396)">
<path d="M47.3359 25.9844L71.8912 50.5342V27.9217L47.3359 25.9844Z" fill="url(#paint0_linear_580_396)"/>
</g>
<mask id="mask3_580_396" style="mask-type:alpha" maskUnits="userSpaceOnUse" x="1" y="1" width="71" height="98">
<path d="M45.3984 1.42969H7.86728C4.22455 1.42969 1.24414 4.4101 1.24414 8.05283V91.9458C1.24414 95.5886 4.22455 98.569 7.86728 98.569H65.2678C68.9105 98.569 71.8909 95.5886 71.8909 91.9458V27.9222L45.3984 1.42969Z" fill="white"/>
</mask>
<g mask="url(#mask3_580_396)">
<path d="M45.3984 1.42969V21.2991C45.3984 24.9583 48.3622 27.9222 52.0215 27.9222H71.8909L45.3984 1.42969Z" fill="#87CEAC"/>
</g>
<mask id="mask4_580_396" style="mask-type:alpha" maskUnits="userSpaceOnUse" x="1" y="1" width="71" height="98">
<path d="M45.3984 1.42969H7.86728C4.22455 1.42969 1.24414 4.4101 1.24414 8.05283V91.9458C1.24414 95.5886 4.22455 98.569 7.86728 98.569H65.2678C68.9105 98.569 71.8909 95.5886 71.8909 91.9458V27.9222L45.3984 1.42969Z" fill="white"/>
</mask>
<g mask="url(#mask4_580_396)">
<path d="M7.86728 1.42969C4.22455 1.42969 1.24414 4.4101 1.24414 8.05283V8.60475C1.24414 4.96203 4.22455 1.98162 7.86728 1.98162H45.3984V1.42969H7.86728Z" fill="white" fill-opacity="0.2"/>
</g>
<mask id="mask5_580_396" style="mask-type:alpha" maskUnits="userSpaceOnUse" x="1" y="1" width="71" height="98">
<path d="M45.3984 1.42969H7.86728C4.22455 1.42969 1.24414 4.4101 1.24414 8.05283V91.9458C1.24414 95.5886 4.22455 98.569 7.86728 98.569H65.2678C68.9105 98.569 71.8909 95.5886 71.8909 91.9458V27.9222L45.3984 1.42969Z" fill="white"/>
</mask>
<g mask="url(#mask5_580_396)">
<path d="M65.2678 98.0176H7.86728C4.22455 98.0176 1.24414 95.0372 1.24414 91.3945V91.9464C1.24414 95.5892 4.22455 98.5696 7.86728 98.5696H65.2678C68.9105 98.5696 71.8909 95.5892 71.8909 91.9464V91.3945C71.8909 95.0372 68.9105 98.0176 65.2678 98.0176Z" fill="#263238" fill-opacity="0.2"/>
</g>
<mask id="mask6_580_396" style="mask-type:alpha" maskUnits="userSpaceOnUse" x="1" y="1" width="71" height="98">
<path d="M45.3984 1.42969H7.86728C4.22455 1.42969 1.24414 4.4101 1.24414 8.05283V91.9458C1.24414 95.5886 4.22455 98.569 7.86728 98.569H65.2678C68.9105 98.569 71.8909 95.5886 71.8909 91.9458V27.9222L45.3984 1.42969Z" fill="white"/>
</mask>
<g mask="url(#mask6_580_396)">
<path d="M52.0215 27.9219C48.3622 27.9219 45.3984 24.958 45.3984 21.2988V21.8507C45.3984 25.51 48.3622 28.4738 52.0215 28.4738H71.8909V27.9219H52.0215Z" fill="#263238" fill-opacity="0.1"/>
</g>
<path d="M45.3984 1.42969H7.86728C4.22455 1.42969 1.24414 4.4101 1.24414 8.05283V91.9458C1.24414 95.5886 4.22455 98.569 7.86728 98.569H65.2678C68.9105 98.569 71.8909 95.5886 71.8909 91.9458V27.9222L45.3984 1.42969Z" fill="url(#paint1_radial_580_396)"/>
<defs>
<linearGradient id="paint0_linear_580_396" x1="59.6149" y1="28.0923" x2="59.6149" y2="50.5376" gradientUnits="userSpaceOnUse">
<stop stop-color="#263238" stop-opacity="0.2"/>
<stop offset="1" stop-color="#263238" stop-opacity="0.02"/>
</linearGradient>
<radialGradient id="paint1_radial_580_396" cx="0" cy="0" r="1" gradientUnits="userSpaceOnUse" gradientTransform="translate(3.48227 3.36053) scale(113.917 113.917)">
<stop stop-color="white" stop-opacity="0.1"/>
<stop offset="1" stop-color="white" stop-opacity="0"/>
</radialGradient>
</defs>
</svg>
