<svg id="Livello_1" data-name="Livello 1" xmlns="http://www.w3.org/2000/svg" viewBox="0 0 1000 500"><defs><style>.cls-1{fill:#3c3c3b;}</style></defs><title>Tavola disegno 10</title><path class="cls-1" d="M406.49,250c3.74,0,5.6,4.82,5.6,14.35,0,5.21-2.16,11.59-6.58,19a83.23,83.23,0,0,1-17.1,20.34,92.94,92.94,0,0,1-23.29,15.13,59.32,59.32,0,0,1-25.06,5.9c-11.5,0-19-9.34-22.51-28.11q-18.72,29.77-55.72,29.78c-15,0-27-4.62-36-13.76s-13.37-20.34-13.17-33.51q0-53.22,35.38-83.83c16.31-13.95,33.12-20.93,50.71-20.93,8,0,14.15.59,18.77,1.86l7.18,1.87c8.55-40.29,18.47-67.12,29.67-80.68,3.74-4.62,7.47-6.88,11.31-6.88,6.09,0,11.69,4.13,16.9,12.48,4.62,6.88,6.88,12.78,6.88,17.79a50.1,50.1,0,0,1-2.16,14.74,71.58,71.58,0,0,1-5.51,13.27,134.46,134.46,0,0,1-7.37,11.89c-2.75,3.83-5.4,7.76-8.15,11.69-6.1,22.51-10.52,47.76-13.47,75.77-.69,6.29-1.18,12.68-1.28,19.07,0,14.44,2.36,21.62,7.18,21.62q8.1,0,39.41-32.53C402.17,252.06,404.82,250,406.49,250ZM258.88,268.77c0,16.12,5.9,24.08,17.79,24.08,7.07,0,14.25-2.75,21.42-8.16s12.78-14.54,16.71-27.22a409.82,409.82,0,0,1,6.58-61.91c-16.7,3.34-31.25,11.49-43.83,24.37S258.78,249.21,258.88,268.77Z"/><path class="cls-1" d="M469.39,289.7q24.47,0,47.27-19.36a135.68,135.68,0,0,0,13.76-13.26c3.53-4,6.29-6.1,8.15-6.1,2.95,0,4.43,3,4.43,8.75s-1.58,12.38-4.72,19.56-8.35,14.25-15.63,21.13q-27,25.35-73.8,25.35-37.31,0-50.71-26.93c-3.15-6.29-4.72-15.23-4.72-26.92a105.46,105.46,0,0,1,6.88-36.46,108.48,108.48,0,0,1,18.28-32.73A85.59,85.59,0,0,1,445,181.31a68.64,68.64,0,0,1,32-7.67c11.4,0,20.15,2.85,26.34,8.45s9.24,13,9.24,21.92-2.26,16.31-6.68,22a54.71,54.71,0,0,1-17.4,14.35A157.48,157.48,0,0,1,465,250.69c-8.64,3-17.19,6.39-25.55,10.22v7.86c.2,7.47,3.34,12.87,9.34,15.92A47.54,47.54,0,0,0,469.39,289.7Zm-5.31-88.25c-10.81,0-18.38,12.58-22.5,37.84,4.42-2.95,8.55-5.51,12.38-7.86s7.27-4.52,10.22-6.59q9.44-6.93,9.73-15.62c-.1-5.22-3.34-7.77-9.83-7.77Z"/><path class="cls-1" d="M598.62,172.17c14-.1,24.37,2.55,31.25,7.86s10.32,13,10.32,22.8-3,18.38-8.94,25.35A48.21,48.21,0,0,1,609.53,243a202.61,202.61,0,0,1,16.41,19.07q7.37,9.72,7.37,20.34c0,14-5.5,24.77-16.61,32.33s-26.43,11.4-46.19,11.4-34.49-3.93-44.32-11.69-14.74-16.71-14.74-26.63a51.63,51.63,0,0,1,7.37-27.13c4.91-8.15,10.12-12.18,15.82-12.18,3.34,0,5.7,1.18,7.18,3.63S545.94,261.5,550,273a35.23,35.23,0,0,0,7.18,11.89c7.66,8.55,20,12.77,36.65,12.77a51.33,51.33,0,0,0-12.08-20.54c-5.51-5.7-11-11.3-16.42-16.7A116.16,116.16,0,0,1,551,243a38.08,38.08,0,0,1-6.29-21.72c0-15,5.6-27.22,16.9-36.65A61,61,0,0,1,598.62,172.17Zm-1.18,58.08c8.35-8.95,12.48-16.22,12.48-21.62a9.9,9.9,0,0,0-2.65-6.69c-1.77-2-4.33-2.95-7.67-2.95a34.49,34.49,0,0,0-9.53,1.28c-3.05.79-5.5,1.48-7.37,1.87C582.7,210,587.61,219.44,597.44,230.25Z"/><path class="cls-1" d="M722.55,324.79c-29.88.19-50.13-10.91-61-33.51-3.74-8-5.61-17.89-5.61-29.88a251.08,251.08,0,0,1,3.15-38.33,240.4,240.4,0,0,1,24-75.07,141.75,141.75,0,0,1,20.34-30.07c16.51-18.38,34.79-27.42,55-27.22,9,0,16,2.45,21.13,7.37s7.67,12,7.67,21.12-2.75,18.38-8.16,27.72a201,201,0,0,1-20.83,28.79c-8.45,9.93-17.79,20.25-28,31.16a452.56,452.56,0,0,0-30.07,35.38v12.48c0,11.69,2.45,20.24,7.47,25.65s10.9,8.15,17.59,8.06q27,0,47.56-26.54c5.6-7.27,9.93-10.91,12.78-10.91s4.32,3.54,4.42,10.62-2,14.34-5.8,21.72a82.29,82.29,0,0,1-36.75,35.47A54.74,54.74,0,0,1,722.55,324.79Zm16.9-168A110.28,110.28,0,0,0,749.77,142a26.63,26.63,0,0,0,3.73-13.56q0-7.06-5-7.07c-7.27,0-15.43,7.56-24.27,22.5S708.69,178.55,704.36,203c6.1-9.43,12.58-18.47,19.56-27.22,6-7.25,11.2-13.64,15.53-19Z"/><path class="cls-1" d="M855.91,301q-15.63,21.66-42,21.62c-14.15,0-25.45-2.95-33.9-8.95s-12.68-15.43-12.68-28.3a46,46,0,0,1,2.36-15,131,131,0,0,1,7.66-16.9l9-74.2c6.49-5,15.24-7.47,26.34-7.47,9.44,0,14.74,6.29,15.92,18.77a99.74,99.74,0,0,1,.59,13.27A59.51,59.51,0,0,1,826.75,220q-12.54,43.18-12.19,57.88c0,7.57,4.42,11.3,13.17,11.3s15.23-2.85,19.36-8.45a76,76,0,0,0,10.61-20.93c5.41-23.19,10.52-42.26,15.14-57.3s7.66-24,8.94-26.92c2.06-5,6.09-7.67,11.89-7.87,5.8.2,11.4,4.33,16.61,12.39s7.86,14.25,7.86,18.67q-.74,21.81-27.32,110.36A292.05,292.05,0,0,0,931.28,270c4.62-5.41,8.45-9.93,11.6-13.66s5.6-5.5,7.47-5.5q4.42,0,4.42,10,0,19.76-22,46a153.1,153.1,0,0,1-54,41c-2.55,8.36-5.2,16.22-8.15,23.79a72.21,72.21,0,0,1-11.3,19.75q-15,18.14-45.7,18.18c-13.76,0-25.46-3.93-35.19-11.89s-14.54-17.79-14.54-29.78c0-6.68,2.26-12,6.68-15.92s10.62-7.27,18.48-9.83a200.65,200.65,0,0,1,27.42-6.87c10.41-2,21.62-4.43,33.51-7.38Q854.29,309.11,855.91,301Zm-42.56,84.51c9.83,0,18.67-8.55,26.63-25.65-7.46,1.48-14.15,2.56-20,3.34s-10.81,1.38-15,2c-8.35,1.28-12.38,3.44-12.19,6.58q0,5.89,7.08,10a26.09,26.09,0,0,0,13.56,3.73Z"/><path class="cls-1" d="M225,263a43.5,43.5,0,0,1-1.68,11.89l-.09.2-1,3-.09.2h0a90.27,90.27,0,0,1-7.77,14.05l-.1.2c-16.21,24-38.23,29.87-50.22,31.25h0c-2.26.29-4.32.39-5.89.49H158l-.1-.1h-1.27l-1.09-.1h-.19l-.49-.1h-.49a22.6,22.6,0,0,1-5-1.18,14.22,14.22,0,0,1-4-2.16h0a14.14,14.14,0,0,1-3.63-4,38.74,38.74,0,0,1-5-13.17,46.27,46.27,0,0,1-.89-5.6v-.29h0v-.1l-.1.1h0c-.59,1-1.08,2-1.67,3-.49.78-1,1.57-1.57,2.35v.1c-.59.89-1.18,1.67-1.77,2.46v.1a13.75,13.75,0,0,0-1,1.28c-1,1.27-2.07,2.35-3.15,3.53l-1.27,1.08a12.19,12.19,0,0,1-1.18,1.09,28,28,0,0,1-2.46,2.16c-.89.69-1.67,1.37-2.56,2.06a38.38,38.38,0,0,1-24.17,8H94c-15.43-.1-27.42-3.14-35.78-9-8.55-6-12.87-15-12.87-26.93a49.48,49.48,0,0,1,.88-9.33h0l.3-1.48c.1-.29.19-.69.29-1,11.7-32.43,15-66,15.92-87.56h0l.3-1.77a9.43,9.43,0,0,1,4.91-6.88c5.9-3.05,13.47-4.62,22.8-4.62s14.55,6.09,15.73,18.18c1,9.93.59,18.77-1.38,26.53s-4.42,17.6-7.57,29.39-4.81,22.21-4.81,31.35q0,10.32,12.09,10.91h1.57c9.92,0,18.47-8.65,25.75-26.05a166.82,166.82,0,0,0,11.49-44.52l-.09-.58h0c-.2-1.58-.3-3.35-.4-5.61-.09-2.55-.19-5-.29-7.47s-.2-4.81-.2-7.27v-5.5q0-20.34,31.55-20.34c5.21,0,8.55,1.76,9.83,5.2s2,8.65,2,15.73c0,9.92-2.26,25.26-6.68,46.09-1.77,8.16-3.15,15.23-4.13,21.33h0c-.1.88-.29,1.76-.39,2.55h0c-1.28,8.16-1.87,14.15-1.77,18.18,0,3.44,1.08,5.11,3.34,5.11,3,0,6.78-2,11.2-5.8l.59-.49.69-.69c4-3.53,8.06-7.37,12.09-11.4,4.42-4.52,8.55-8.74,12.28-12.57s6.29-5.8,7.77-5.8C223.6,252.65,225,256.09,225,263Z"/><path class="cls-1" d="M126.8,324.3l-1.38-.1h1.28Z"/></svg>