<svg width="100" height="100" viewBox="0 0 100 100" fill="none" xmlns="http://www.w3.org/2000/svg">
<path fill-rule="evenodd" clip-rule="evenodd" d="M85.9727 39.6387L97.6392 66.0176C100 71.3557 97.6154 77.6096 92.3128 79.9863C87.0102 82.363 80.7978 79.9622 78.437 74.6242L69.006 53.3001L64.8496 63.1572V39.6387H85.9727Z" fill="#2AA8FF"/>
<path fill-rule="evenodd" clip-rule="evenodd" d="M87.2375 42.498L89.6513 47.9558C88.1934 47.446 86.627 47.1688 84.9963 47.1688C78.2605 47.1688 72.623 51.8962 71.1869 58.2311L69.0064 53.3005L66.6953 58.7814V42.498H87.2375Z" fill="#393939" fill-opacity="0.2"/>
<path fill-rule="evenodd" clip-rule="evenodd" d="M52.1276 39.1753V57.8552H32.6918L30.677 53.2998L28.7561 57.8553H7.25781V54.6856L20.7319 22.7301C22.4361 18.6885 26.3433 16.2668 30.4474 16.2813C34.4847 16.2671 38.3431 18.6091 40.0907 22.5607L49.8391 44.6025L52.1276 39.1753Z" fill="#017ACE"/>
<path fill-rule="evenodd" clip-rule="evenodd" d="M49.8245 44.5706L49.8386 44.6025L59.0611 22.7301C60.7653 18.6885 64.6725 16.2668 68.7766 16.2813C72.8139 16.2671 76.6723 18.6091 78.4199 22.5607L89.6412 47.933C87.3783 45.9657 84.43 44.776 81.2056 44.776C75.6033 44.776 70.8341 48.3677 69.0456 53.3891L69.0062 53.2998L59.9466 74.7858C57.6786 80.1645 51.5088 82.674 46.1658 80.3909C45.6513 80.1712 45.1549 79.911 44.6812 79.6124C42.7218 78.5399 41.0846 76.8336 40.1075 74.624L30.7129 53.3824C32.127 53.7901 33.6207 54.0084 35.1649 54.0084C41.6631 54.0084 47.2645 50.1426 49.8244 44.5706H49.8245Z" fill="#AEDEFF"/>
<path fill-rule="evenodd" clip-rule="evenodd" d="M30.618 53.4389L23.8527 69.4836C22.2028 70.2461 20.3643 70.6707 18.426 70.6707C11.6271 70.6707 6.05501 65.4457 5.54688 58.7429L10.1896 47.7318C12.4253 45.8683 15.2957 44.748 18.426 44.748C24.0607 44.748 28.8527 48.3773 30.618 53.4389Z" fill="black"/>
<path fill-rule="evenodd" clip-rule="evenodd" d="M28.6321 58.1463L21.6164 74.7849C19.3485 80.1636 13.1786 82.6731 7.83567 80.39C2.49267 78.1068 -2.79125e-05 71.8956 2.26784 66.5169L10.0581 48.0414C11.7072 47.3065 13.5311 46.8984 15.4492 46.8984C22.0717 46.8984 27.5695 51.7623 28.6321 58.1464V58.1463Z" fill="#393939"/>
</svg>
