<svg width="50" height="10" viewBox="0 0 50 10" fill="none" xmlns="http://www.w3.org/2000/svg">
<g clip-path="url(#clip0_509_305)">
<path d="M49.9112 7.6375V8.85938H48.8733C47.7657 8.825 47.1739 8.23438 47.1739 7.125V4.33438H46.4492V3.2625H47.1739V2.0625H48.7055V3.25H49.8764V4.31875H48.7055V6.975C48.7055 7.33438 48.7783 7.62188 49.3385 7.62188L49.9112 7.6375Z" fill="black"/>
<path d="M40.3447 6.07227V5.99101C40.328 5.6316 40.3835 5.27247 40.5078 4.93424C40.632 4.59602 40.8228 4.28533 41.0687 4.01999C41.3147 3.75466 41.6114 3.53987 41.9417 3.38797C42.2721 3.23606 42.6295 3.15002 42.9934 3.13477C43.0662 3.13477 43.1422 3.13477 43.2149 3.13477C44.6611 3.13477 45.9301 3.96602 45.9301 5.94727V6.36914H41.9111C41.9523 7.28164 42.4523 7.79726 43.2941 7.79726C44.0187 7.79726 44.3573 7.48477 44.4554 7.02852H45.9017C45.7244 8.21914 44.7624 8.88164 43.2403 8.88164C41.5694 8.86914 40.3447 7.82539 40.3447 6.07227ZM44.4238 5.41289C44.37 4.58164 43.946 4.18164 43.2086 4.18164C42.4713 4.18164 42.0472 4.63164 41.9428 5.41289H44.4238Z" fill="black"/>
<path d="M34.0927 6.07227V5.99101C34.0761 5.6321 34.1314 5.27347 34.2552 4.93564C34.379 4.59781 34.5691 4.28739 34.8145 4.02212C35.0598 3.75687 35.3558 3.54195 35.6854 3.3897C36.0149 3.23745 36.3716 3.15081 36.7351 3.13477C36.8079 3.13477 36.8839 3.13477 36.9567 3.13477C38.4029 3.13477 39.675 3.96602 39.675 5.94727V6.36914H35.6592C35.7003 7.28164 36.2003 7.79726 37.0421 7.79726C37.7668 7.79726 38.1054 7.48477 38.2035 7.02852H39.6497C39.4693 8.21914 38.5073 8.88164 36.9851 8.88164C35.3174 8.86914 34.0927 7.82539 34.0927 6.07227ZM38.1719 5.41289C38.1181 4.58164 37.694 4.18164 36.9567 4.18164C36.2193 4.18164 35.8079 4.64414 35.6908 5.40977L38.1719 5.41289Z" fill="black"/>
<path d="M25.3164 3.25H26.9367L27.9272 6.95625L29.0126 3.25H30.2784L31.2594 6.95625L32.3037 3.25H33.7879L32.0284 8.75625H30.5094L29.5601 5.3L28.5443 8.75625H27.0063L25.3164 3.25Z" fill="black"/>
<path d="M20.168 7.02422H21.6142C21.6806 7.52109 21.9306 7.80547 22.5952 7.80547C23.1901 7.80547 23.4654 7.58359 23.4654 7.20547C23.4654 6.82734 23.149 6.66797 22.3389 6.55547C20.8547 6.33359 20.2819 5.91172 20.2819 4.83672C20.2819 3.68984 21.3452 3.12109 22.4971 3.12109C23.7344 3.12109 24.668 3.56484 24.8009 4.83047H23.3737C23.3646 4.73261 23.3359 4.63753 23.2893 4.55068C23.2429 4.46384 23.1794 4.38697 23.1026 4.32449C23.0258 4.26201 22.9372 4.2152 22.842 4.18672C22.7467 4.15824 22.6467 4.14868 22.5477 4.15859H22.5002C22.0002 4.15859 21.7091 4.38984 21.7091 4.72734C21.7091 5.06484 21.9781 5.21172 22.7946 5.32734C24.1806 5.53359 24.9559 5.88047 24.9559 7.05859C24.9559 8.23672 24.0794 8.86797 22.611 8.86797C21.1427 8.86797 20.2091 8.21484 20.168 7.02422Z" fill="black"/>
<path d="M14.0215 3.25064H15.5531V4.12251C15.7258 3.80249 15.9878 3.53814 16.3081 3.36089C16.6284 3.18362 16.9936 3.10089 17.3601 3.12251C18.4455 3.12251 19.2335 3.77564 19.2335 5.26626V8.76939H17.7209V5.48501C17.7209 4.73814 17.4265 4.38189 16.743 4.38189C16.5985 4.36947 16.453 4.38535 16.3148 4.42862C16.1765 4.47189 16.0483 4.54168 15.9374 4.63401C15.8266 4.72637 15.7353 4.83941 15.6688 4.96668C15.6023 5.09393 15.5619 5.23293 15.55 5.37564C15.5421 5.44208 15.5421 5.5092 15.55 5.57564V8.75689H14.0215V3.25064Z" fill="black"/>
<path d="M11.0669 1.86637C11.0614 1.71557 11.1013 1.56653 11.1815 1.43813C11.2618 1.30972 11.3789 1.20773 11.5179 1.14505C11.6569 1.08238 11.8116 1.06184 11.9624 1.08604C12.1132 1.11025 12.2534 1.17811 12.3652 1.28102C12.4769 1.38394 12.5552 1.51729 12.5902 1.66418C12.6252 1.81108 12.6152 1.96492 12.5616 2.10622C12.508 2.24754 12.4131 2.36995 12.289 2.45797C12.1649 2.54602 12.0171 2.5957 11.8644 2.60074H11.8359C11.7411 2.60666 11.6461 2.59406 11.5562 2.56362C11.4664 2.5332 11.3835 2.48554 11.3124 2.42341C11.2412 2.36129 11.1832 2.28589 11.1416 2.20156C11.1 2.11722 11.0757 2.02562 11.0701 1.93199C11.0674 1.91022 11.0664 1.88829 11.0669 1.86637ZM11.0669 3.25074H12.6144V8.75699H11.0732L11.0669 3.25074Z" fill="black"/>
<path d="M5.23438 1.23047H10.1268V2.56484H6.96222V4.55547H9.46855V5.83984H6.95906V8.75547H5.23438V1.23047Z" fill="black"/>
<path d="M2.28165 3.69375C2.28165 4.16562 2.28165 4.74062 1.62342 4.975C2.29747 5.20312 2.28165 5.6875 2.28165 6.19375V8.06875C2.28165 8.425 2.42721 8.64062 2.68671 8.69375C2.74373 8.71275 2.8038 8.72123 2.86392 8.71875H3.49684V9.96875H2.45253C1.33861 9.96875 0.724683 9.34375 0.724683 8.18437V5.96562C0.716783 5.85171 0.665922 5.74487 0.582141 5.66619C0.498363 5.5875 0.387753 5.54271 0.272152 5.54062H0V4.44375H0.272152C0.390059 4.44221 0.502842 4.39592 0.587101 4.31446C0.671359 4.233 0.720629 4.12262 0.724683 4.00625V1.75625C0.724683 0.615625 1.32595 0 2.45253 0H3.50633V1.23125H2.87342C2.81323 1.23142 2.75342 1.24091 2.6962 1.25937C2.43671 1.325 2.29114 1.5375 2.29114 1.88437L2.28165 3.69375Z" fill="black"/>
</g>
<defs>
<clipPath id="clip0_509_305">
<rect width="50" height="10" fill="white"/>
</clipPath>
</defs>
</svg>
