<svg xmlns="http://www.w3.org/2000/svg" viewBox="0 0 194 122"><ellipse cx="97" cy="61" rx="97" ry="61" style="fill:#4353ff"/><path d="M45.11,46.35h4.15c2.88,0,4.77,1.28,4.77,4v.07c0,2.72-2,3.93-4.72,3.93h-1.8v4.9h-2.4Zm4.15,6.25c1.58,0,2.43-.77,2.43-2.2v-.07c0-1.53-.9-2.12-2.43-2.12H47.51V52.6Z" style="fill:#fff"/><path d="M55.9,49.81h2.17v1.76a3.13,3.13,0,0,1,3.07-1.9v2c-1.91,0-3.07.63-3.07,2.63v4.9H55.9Z" style="fill:#fff"/><path d="M62.23,54.62v-.15a4.84,4.84,0,0,1,9.67,0v.14a4.84,4.84,0,0,1-9.67.06Zm7.44,0v-.13c0-1.94-1-3.13-2.59-3.13s-2.62,1.17-2.62,3.12v.14c0,1.93,1,3.13,2.62,3.13S69.67,56.51,69.67,54.58Z" style="fill:#fff"/><path d="M74.24,51.45H73V49.81h1.28V48.55a2.87,2.87,0,0,1,3.17-3.19,3.86,3.86,0,0,1,1.24.18v1.69a3,3,0,0,0-1-.16c-.88,0-1.24.58-1.24,1.39v1.35h2.14v1.64H76.42v7.78H74.24Z" style="fill:#fff"/><path d="M79.39,54.62v-.15a4.58,4.58,0,0,1,4.68-4.86c2.34,0,4.44,1.39,4.44,4.75V55H81.62c.07,1.79,1,2.8,2.59,2.8,1.32,0,2-.53,2.16-1.45h2.11c-.31,2-1.91,3.07-4.32,3.07A4.51,4.51,0,0,1,79.39,54.62Zm7-1.08c-.1-1.62-.93-2.34-2.28-2.34a2.42,2.42,0,0,0-2.42,2.34Z" style="fill:#fff"/><path d="M89.83,56.29h2c.11,1,.59,1.51,1.87,1.51s1.69-.41,1.69-1.2-.63-1.07-2-1.3C90.94,54.9,90,54.2,90,52.44s1.77-2.83,3.53-2.83c1.93,0,3.46.72,3.69,2.85h-2a1.45,1.45,0,0,0-1.68-1.26c-.93,0-1.49.45-1.49,1.11s.45,1,1.94,1.21c2.22.34,3.53.88,3.53,2.88s-1.35,3-3.76,3S89.92,58.29,89.83,56.29Z" style="fill:#fff"/><path d="M98.72,56.29h2c.11,1,.59,1.51,1.87,1.51s1.69-.41,1.69-1.2-.63-1.07-2-1.3c-2.49-.4-3.4-1.1-3.4-2.86s1.76-2.83,3.52-2.83c1.93,0,3.46.72,3.69,2.85h-2a1.45,1.45,0,0,0-1.68-1.26c-.93,0-1.49.45-1.49,1.11s.45,1,1.94,1.21c2.22.34,3.53.88,3.53,2.88s-1.35,3-3.76,3S98.81,58.29,98.72,56.29Z" style="fill:#fff"/><path d="M108.15,47a1.3,1.3,0,1,1,1.3,1.24A1.26,1.26,0,0,1,108.15,47Zm.23,2.79h2.18v9.42h-2.18Z" style="fill:#fff"/><path d="M112.58,54.62v-.15a4.84,4.84,0,0,1,9.67,0v.14a4.84,4.84,0,0,1-9.67.06Zm7.43,0v-.13c0-1.94-1-3.13-2.59-3.13s-2.61,1.17-2.61,3.12v.14c0,1.93,1,3.13,2.61,3.13S120,56.51,120,54.58Z" style="fill:#fff"/><path d="M124.2,49.81h2.18V51.3a3.25,3.25,0,0,1,3.05-1.69c1.89,0,3.22,1.1,3.22,3.69v5.93h-2.18V53.5c0-1.42-.58-2.07-1.87-2.07a2.09,2.09,0,0,0-2.22,2.25v5.55H124.2Z" style="fill:#fff"/><path d="M134.46,56.62c0-2.2,2.13-3,4.83-3h1.17v-.49c0-1.26-.43-1.89-1.71-1.89a1.57,1.57,0,0,0-1.8,1.48h-2.11c.18-2.2,1.93-3.12,4-3.12s3.76.86,3.76,3.44v6.18H140.5V58.07a3.29,3.29,0,0,1-2.88,1.34C135.89,59.41,134.46,58.58,134.46,56.62Zm6-.69V55h-1.12c-1.65,0-2.72.38-2.72,1.53,0,.8.44,1.32,1.52,1.32C139.47,57.84,140.46,57.14,140.46,55.93Z" style="fill:#fff"/><path d="M145.19,45.45h2.18V59.23h-2.18Z" style="fill:#fff"/><path d="M66.07,66.35h4.14c2.88,0,4.77,1.28,4.77,4v.07c0,2.72-2,3.93-4.72,3.93h-1.8v4.9H66.07Zm4.14,6.25c1.58,0,2.43-.77,2.43-2.2v-.07c0-1.53-.9-2.12-2.43-2.12H68.46V72.6Z" style="fill:#fff"/><path d="M76,76.62c0-2.2,2.13-3,4.83-3H82v-.49c0-1.26-.43-1.89-1.71-1.89a1.57,1.57,0,0,0-1.8,1.48H76.36c.18-2.2,1.93-3.12,4-3.12s3.77.86,3.77,3.44v6.18H82V78.07a3.31,3.31,0,0,1-2.89,1.34C77.41,79.41,76,78.58,76,76.62Zm6-.69V75H80.86c-1.65,0-2.72.38-2.72,1.53,0,.8.44,1.32,1.52,1.32C81,77.84,82,77.14,82,75.93Z" style="fill:#fff"/><path d="M86.66,69.81h2.18v1.76a3.11,3.11,0,0,1,3.06-1.9v2c-1.91,0-3.06.63-3.06,2.63v4.9H86.66Z" style="fill:#fff"/><path d="M94.25,76.6V71.45H93V69.81h1.26V67.74h2.18v2.07H98.5v1.64H96.43v5c0,.83.4,1.21,1.08,1.21a2.58,2.58,0,0,0,1.06-.19v1.73a4.06,4.06,0,0,1-1.47.24A2.54,2.54,0,0,1,94.25,76.6Z" style="fill:#fff"/><path d="M100.54,69.81h2.17V71.3a3.25,3.25,0,0,1,3.05-1.69c1.89,0,3.22,1.1,3.22,3.69v5.93H106.8V73.5c0-1.42-.58-2.07-1.87-2.07a2.09,2.09,0,0,0-2.22,2.25v5.55h-2.17Z" style="fill:#fff"/><path d="M110.85,74.62v-.15a4.58,4.58,0,0,1,4.68-4.86c2.34,0,4.45,1.39,4.45,4.75V75h-6.9c.07,1.79,1,2.8,2.59,2.8,1.32,0,2-.53,2.16-1.45h2.11c-.31,2-1.91,3.07-4.32,3.07A4.51,4.51,0,0,1,110.85,74.62Zm7-1.08c-.11-1.62-.94-2.34-2.29-2.34a2.41,2.41,0,0,0-2.41,2.34Z" style="fill:#fff"/><path d="M121.92,69.81h2.18v1.76a3.11,3.11,0,0,1,3.06-1.9v2c-1.91,0-3.06.63-3.06,2.63v4.9h-2.18Z" style="fill:#fff"/><path d="M102.3,18.83l-3.55-.09-.09,3.77-1.1,0L97.77,14l5.23.13,0,.92-4.14-.09-.07,2.91,3.55.09Z" style="fill:#fff"/><path d="M107.77,19.44l-1.7-.13-.25,3.47-1.08-.07.62-8.51,2.5.18a4.29,4.29,0,0,1,1.11.25,2.61,2.61,0,0,1,.88.54,2.24,2.24,0,0,1,.57.84,2.68,2.68,0,0,1,.14,1.13,2.17,2.17,0,0,1-.18.75,2,2,0,0,1-.37.6,2.39,2.39,0,0,1-.54.46,3.79,3.79,0,0,1-.67.33L110.34,23v.07L109.19,23Zm-1.63-1,1.45.11a2.25,2.25,0,0,0,.69-.07,1.47,1.47,0,0,0,.58-.27,1.27,1.27,0,0,0,.42-.47,1.42,1.42,0,0,0,.19-.67,1.67,1.67,0,0,0-.08-.72,1.35,1.35,0,0,0-.34-.55,1.68,1.68,0,0,0-.54-.35,2.37,2.37,0,0,0-.72-.16l-1.42-.11Z" style="fill:#fff"/><path d="M117.05,19.94l-3.54-.44-.37,3,4.12.52-.11.91-5.2-.65,1-8.46,5.15.64-.11.92L114,15.87l-.34,2.72,3.53.44Z" style="fill:#fff"/><path d="M124.37,21.17l-3.51-.63-.53,3,4.09.74-.17.9-5.15-.92,1.5-8.4,5.11.92-.17.91-4-.73-.49,2.7,3.51.63Z" style="fill:#fff"/><path d="M127.54,24.94l4,1-.21.9-5.11-1.23,2-8.3,1.05.26Z" style="fill:#fff"/><path d="M137.64,26.37l-2.72-.84-1.31,1.91-1-.32,5.14-7.34.87.27.08,9-1-.32Zm-2.16-1.66,2.16.67,0-3.87Z" style="fill:#fff"/><path d="M144.93,31.4l-1-.4-.78-7.14-2.32,5.93-1-.39,3.1-8,1,.4.78,7.13L147,23.05l1,.4Z" style="fill:#fff"/><path d="M152.67,32.24a3.81,3.81,0,0,1-.75.84,3,3,0,0,1-.91.5,2.49,2.49,0,0,1-1,.11,2.86,2.86,0,0,1-1.09-.31,3,3,0,0,1-.8-.55,3.1,3.1,0,0,1-.51-.71,2.9,2.9,0,0,1-.24-.81,4.3,4.3,0,0,1,0-.88,4.78,4.78,0,0,1,.18-.9,6.63,6.63,0,0,1,.33-.88l.52-1.07a8.3,8.3,0,0,1,.49-.81,5.78,5.78,0,0,1,.61-.69,3.85,3.85,0,0,1,.7-.52,2.61,2.61,0,0,1,.8-.31,2.53,2.53,0,0,1,.87,0,2.9,2.9,0,0,1,.93.28,3.39,3.39,0,0,1,.94.68,2.59,2.59,0,0,1,.53.88,3,3,0,0,1,.15,1,4.22,4.22,0,0,1-.23,1.12l-1-.47a2.82,2.82,0,0,0,.16-.73,1.92,1.92,0,0,0-.06-.68,1.44,1.44,0,0,0-.3-.59,1.89,1.89,0,0,0-.6-.45,1.79,1.79,0,0,0-.67-.19,1.53,1.53,0,0,0-.61.09,1.77,1.77,0,0,0-.54.29,3.37,3.37,0,0,0-.48.45,5.39,5.39,0,0,0-.4.54,5.45,5.45,0,0,0-.32.57l-.53,1.08a5.39,5.39,0,0,0-.25.6,3.73,3.73,0,0,0-.24,1.3,1.77,1.77,0,0,0,.1.61,1.44,1.44,0,0,0,.3.54,1.73,1.73,0,0,0,.56.41,1.79,1.79,0,0,0,.73.2,1.37,1.37,0,0,0,.64-.1,1.65,1.65,0,0,0,.56-.37,2.62,2.62,0,0,0,.48-.56Z" style="fill:#fff"/><path d="M159,34.46l-3-1.88-1.6,2.57,3.53,2.19-.49.78L153,35.36l4.51-7.25,4.4,2.74-.49.78-3.48-2.16-1.45,2.33,3,1.88Z" style="fill:#fff"/><path d="M163.28,38.24,162,37.16l-2.2,2.69-.83-.68,5.39-6.61,1.94,1.59A4.07,4.07,0,0,1,167,35a2.74,2.74,0,0,1,.41.95,2.3,2.3,0,0,1,0,1,2.56,2.56,0,0,1-.54,1,2.1,2.1,0,0,1-.57.51,2.46,2.46,0,0,1-.65.28,2.41,2.41,0,0,1-.71.07,4.63,4.63,0,0,1-.73-.12l-.9,4,0,.05-.89-.72Zm-.75-1.77,1.12.92a2.16,2.16,0,0,0,.61.34,1.76,1.76,0,0,0,.63.12,1.71,1.71,0,0,0,.62-.15,1.66,1.66,0,0,0,.54-.44,1.85,1.85,0,0,0,.35-.64,1.39,1.39,0,0,0,0-.64,1.55,1.55,0,0,0-.24-.6,2.52,2.52,0,0,0-.49-.55l-1.1-.9Z" style="fill:#fff"/><path d="M168.79,45.62a1.09,1.09,0,0,0,.38-.57,1.58,1.58,0,0,0,0-.65,2.67,2.67,0,0,0-.17-.66c-.09-.23-.17-.44-.26-.64s-.23-.6-.33-.92a4.24,4.24,0,0,1-.18-1,2.46,2.46,0,0,1,.12-.94,1.89,1.89,0,0,1,.56-.81,2.06,2.06,0,0,1,.9-.47,2.64,2.64,0,0,1,1,0,2.69,2.69,0,0,1,.93.38,3.29,3.29,0,0,1,.78.65,3.16,3.16,0,0,1,.56.93,3.1,3.1,0,0,1,.21,1,2.48,2.48,0,0,1-.82,1.9l-.74-.84a2.27,2.27,0,0,0,.39-.58,1.67,1.67,0,0,0,.16-.61,1.52,1.52,0,0,0-.1-.62,1.72,1.72,0,0,0-.36-.6,2,2,0,0,0-.47-.4,1.6,1.6,0,0,0-.54-.23,1.37,1.37,0,0,0-.57,0,1.2,1.2,0,0,0-.54.29,1,1,0,0,0-.35.55,1.48,1.48,0,0,0,0,.63,3.12,3.12,0,0,0,.17.65l.25.59c.09.21.17.42.25.63a5.46,5.46,0,0,1,.19.66,3.87,3.87,0,0,1,.09.66,2.44,2.44,0,0,1-.29,1.26,2.28,2.28,0,0,1-.46.53,1.93,1.93,0,0,1-.92.47,2.26,2.26,0,0,1-1,0,3,3,0,0,1-.92-.41,3.63,3.63,0,0,1-.78-.67,3.69,3.69,0,0,1-.6-1,3.16,3.16,0,0,1-.26-1.07,2.75,2.75,0,0,1,.15-1.06,2.44,2.44,0,0,1,.63-.93l.73.84a2,2,0,0,0-.39.62,1.93,1.93,0,0,0-.12.67,2,2,0,0,0,.15.66,2.51,2.51,0,0,0,.4.62,2.67,2.67,0,0,0,.47.42,1.8,1.8,0,0,0,.55.25,1.22,1.22,0,0,0,.57,0A1.14,1.14,0,0,0,168.79,45.62Z" style="fill:#fff"/><path d="M173.69,54.2a2.25,2.25,0,0,1,.73,0,2.41,2.41,0,0,1,.68.2,3.26,3.26,0,0,1,.63.39,7.56,7.56,0,0,1,.63.54,6.34,6.34,0,0,1,.87-.81,2.31,2.31,0,0,1,.93-.42,2.44,2.44,0,0,1,.89,0,1.92,1.92,0,0,1,.72.29,1.8,1.8,0,0,1,.51.58,2.49,2.49,0,0,1,.3.82,1.85,1.85,0,0,1-.27,1.41,1.72,1.72,0,0,1-.5.47,1.68,1.68,0,0,1-.65.26,1.59,1.59,0,0,1-.57,0,1.56,1.56,0,0,1-.52-.15,2.8,2.8,0,0,1-.49-.3q-.24-.18-.48-.39l-.56-.45-2,2.22a4,4,0,0,0,.86.16,4.07,4.07,0,0,0,1-.07l.19,1a4.22,4.22,0,0,1-1.41.06,3.8,3.8,0,0,1-1.25-.39l-1.16,1.31-.25-1.27.54-.6a3.23,3.23,0,0,1-.74-.83,3.14,3.14,0,0,1-.41-1,3.18,3.18,0,0,1,0-1.06,2.2,2.2,0,0,1,.31-.87,2,2,0,0,1,.62-.64A2.47,2.47,0,0,1,173.69,54.2ZM172.78,57a2.09,2.09,0,0,0,.3.76,2.57,2.57,0,0,0,.57.62L175.76,56l-.17-.13a3.66,3.66,0,0,0-.55-.38,2.5,2.5,0,0,0-.48-.19,1.39,1.39,0,0,0-.39,0,1.19,1.19,0,0,0-.28,0,1.48,1.48,0,0,0-.52.2,1.2,1.2,0,0,0-.39.35,1.24,1.24,0,0,0-.22.51A1.69,1.69,0,0,0,172.78,57Zm5.6-1.81a1.72,1.72,0,0,0-.63.27,3.44,3.44,0,0,0-.63.55l.67.56a1.18,1.18,0,0,0,.31.25.94.94,0,0,0,.3.12,1,1,0,0,0,.29,0,1.18,1.18,0,0,0,.27,0,.93.93,0,0,0,.33-.12.92.92,0,0,0,.26-.22.89.89,0,0,0,.15-.29.86.86,0,0,0,0-.36.9.9,0,0,0-.18-.41.85.85,0,0,0-.31-.26.89.89,0,0,0-.39-.12A1.36,1.36,0,0,0,178.38,55.15Z" style="fill:#fff"/><path d="M171.58,73.22a1.19,1.19,0,0,0,.67.12,1.51,1.51,0,0,0,.61-.23,3.09,3.09,0,0,0,.54-.43l.48-.49a9.06,9.06,0,0,1,.7-.68,4,4,0,0,1,.82-.56,2.46,2.46,0,0,1,.9-.27,1.88,1.88,0,0,1,1,.18,2,2,0,0,1,.79.64,2.27,2.27,0,0,1,.4.88,2.8,2.8,0,0,1,0,1,3.2,3.2,0,0,1-.9,1.87,3,3,0,0,1-.86.61,2.41,2.41,0,0,1-1,.24,2.45,2.45,0,0,1-1.07-.22l.47-1a2.18,2.18,0,0,0,.69.12,1.59,1.59,0,0,0,.62-.11,1.45,1.45,0,0,0,.53-.34,1.87,1.87,0,0,0,.4-.57,2.11,2.11,0,0,0,.18-.59,1.67,1.67,0,0,0,0-.59,1.3,1.3,0,0,0-.24-.52,1.15,1.15,0,0,0-.48-.37,1,1,0,0,0-.64-.1,1.67,1.67,0,0,0-.59.24,3.42,3.42,0,0,0-.52.42c-.16.16-.31.32-.44.47s-.31.32-.48.48a4.32,4.32,0,0,1-.52.44,4.38,4.38,0,0,1-.57.35,2.27,2.27,0,0,1-.62.21,1.72,1.72,0,0,1-.64,0,2,2,0,0,1-.68-.19,1.93,1.93,0,0,1-.8-.65,2.36,2.36,0,0,1-.37-.9,3.42,3.42,0,0,1,0-1,4.06,4.06,0,0,1,.3-1,3.63,3.63,0,0,1,.63-.93,3.27,3.27,0,0,1,.87-.67,2.66,2.66,0,0,1,1-.3,2.43,2.43,0,0,1,1.11.2l-.47,1a1.89,1.89,0,0,0-.73-.1,1.6,1.6,0,0,0-.65.16,1.72,1.72,0,0,0-.54.4,2.09,2.09,0,0,0-.41.62,2.49,2.49,0,0,0-.2.6,1.73,1.73,0,0,0,0,.6,1.38,1.38,0,0,0,.21.54A1.21,1.21,0,0,0,171.58,73.22Z" style="fill:#fff"/><path d="M174.32,80.61,170.12,79l2.39,3.84-.84,1L165,78.57l.66-.82,2.66,2.13,2.72,2.3-2.59-4.11.39-.48,4.39,1.67-2.74-2.09L167.85,75l.66-.82,6.65,5.34Z" style="fill:#fff"/><path d="M162.26,84l2.15-1.87L163.48,80l.82-.71,3.51,8.25-.69.59-7.63-4.67.81-.71Zm2.55-1-1.72,1.48,3.28,2.07Z" style="fill:#fff"/><path d="M158,85.59l-3.5,2.29-.5-.77,4.4-2.88L163,91.37l-.91.6Z" style="fill:#fff"/><path d="M151.79,89.32l-3.72,1.9-.42-.82L152.33,88l3.89,7.59-1,.5Z" style="fill:#fff"/><path d="M143.17,96.54l3.3-1.34-1.14-2.8L141.49,94l-.35-.85,4.85-2,3.22,7.9L144.4,101l-.35-.86,3.8-1.54-1-2.54-3.3,1.34Z" style="fill:#fff"/><path d="M137.75,97.92l1.62-.52-1.07-3.31,1-.33,2.62,8.12-2.38.76a4,4,0,0,1-1.12.19,2.61,2.61,0,0,1-1-.17,2.26,2.26,0,0,1-.84-.56,2.61,2.61,0,0,1-.56-1,2.68,2.68,0,0,1-.12-.77,2.28,2.28,0,0,1,.13-.69,2.34,2.34,0,0,1,.32-.63,3.23,3.23,0,0,1,.5-.55L134,95.55l0-.07,1.09-.35Zm1.89.33-1.38.44a2.42,2.42,0,0,0-.62.32,1.81,1.81,0,0,0-.44.48,1.49,1.49,0,0,0-.21.59,1.51,1.51,0,0,0,.07.69,1.92,1.92,0,0,0,.35.65,1.46,1.46,0,0,0,.52.37,1.66,1.66,0,0,0,.64.12,2.68,2.68,0,0,0,.72-.11l1.36-.44Z" style="fill:#fff"/><path d="M125.6,97.57l1.6,8.38-1.94.37a4.41,4.41,0,0,1-1.62,0,3.29,3.29,0,0,1-1.31-.57,3.51,3.51,0,0,1-1-1.09,5,5,0,0,1-.56-1.52l-.11-.62a5,5,0,0,1,0-1.62,3.57,3.57,0,0,1,.49-1.36,3.28,3.28,0,0,1,1-1,4,4,0,0,1,1.5-.59Zm.35,7.71-1.26-6.64-.86.17a2.83,2.83,0,0,0-1.13.46,2.39,2.39,0,0,0-.7.79,2.73,2.73,0,0,0-.3,1,4.24,4.24,0,0,0,.06,1.22l.12.63a4.86,4.86,0,0,0,.39,1.15,2.84,2.84,0,0,0,.67.85,2.16,2.16,0,0,0,.93.47,2.76,2.76,0,0,0,1.22,0Z" style="fill:#fff"/><path d="M119.53,107.34l-5.11.68-.13-.93,2-.27-.89-6.59-2,.27-.13-.93,5.11-.69.13.93-2,.27.88,6.59,2-.27Z" style="fill:#fff"/><path d="M105.83,101.36a3.43,3.43,0,0,1,1.15-1,3.72,3.72,0,0,1,1.5-.42,3.12,3.12,0,0,1,1,.08,2.94,2.94,0,0,1,.83.36,2.85,2.85,0,0,1,.66.59,3.89,3.89,0,0,1,.51.76,4.45,4.45,0,0,1,.34.88,5,5,0,0,1,.18.94l.08,1a6,6,0,0,1,0,1,4.14,4.14,0,0,1-.17.92,3.44,3.44,0,0,1-.34.84,2.76,2.76,0,0,1-.53.69,2.89,2.89,0,0,1-.74.49,2.82,2.82,0,0,1-1,.24,3.14,3.14,0,0,1-1.11-.1,2.55,2.55,0,0,1-.92-.45,2.63,2.63,0,0,1-.67-.77,3.17,3.17,0,0,1-.37-1.06l1.07-.08a2.75,2.75,0,0,0,.26.66,1.5,1.5,0,0,0,.39.5,1.66,1.66,0,0,0,.55.31,1.84,1.84,0,0,0,.72.07,1.88,1.88,0,0,0,.67-.19,1.75,1.75,0,0,0,.49-.4,1.79,1.79,0,0,0,.33-.55,4,4,0,0,0,.19-.64,5.1,5.1,0,0,0,.08-.67,4.75,4.75,0,0,0,0-.66l-.08-1a5.67,5.67,0,0,0-.11-.66,3.79,3.79,0,0,0-.21-.65,2.86,2.86,0,0,0-.32-.6,1.84,1.84,0,0,0-.44-.48,1.61,1.61,0,0,0-.56-.31,1.75,1.75,0,0,0-.7-.08,3.8,3.8,0,0,0-.46.05,2.24,2.24,0,0,0-.46.14,1.78,1.78,0,0,0-.41.22,1,1,0,0,0-.31.34l.14,1.91,1.73-.14.08.91-2.76.23Z" style="fill:#fff"/><path d="M104.33,108.86l-5.15.17,0-.94,2-.07-.22-6.65-2,.07,0-.94,5.15-.17,0,.94-2,.07.22,6.64,2-.06Z" style="fill:#fff"/><path d="M91,108l2.63,0,.12-7.61,1,0-.11,7.61,2.63,0v.93L90.93,109Z" style="fill:#fff"/><path d="M85.4,102.31l2.84.18.83-2.16,1.08.07-3.29,8.34-.91-.06L83.79,100l1.08.07Zm2.49,1.1-2.26-.14.88,3.77Z" style="fill:#fff"/><path d="M81.07,100.63l-4.15-.48.11-.91,5.22.6-1,8.47-1.08-.12Z" style="fill:#fff"/><path d="M63.3,98.83a1.11,1.11,0,0,0,0,.68,1.47,1.47,0,0,0,.35.55,2.88,2.88,0,0,0,.53.44l.58.36c.27.16.54.34.82.54a4.18,4.18,0,0,1,.71.68,2.62,2.62,0,0,1,.46.83,2.08,2.08,0,0,1-.44,1.9,2.46,2.46,0,0,1-.78.57,2.82,2.82,0,0,1-1,.24,3.11,3.11,0,0,1-1-.07,3,3,0,0,1-1-.42,2.79,2.79,0,0,1-.78-.71,2.47,2.47,0,0,1-.45-2l1.08.25a2.59,2.59,0,0,0,0,.69,1.62,1.62,0,0,0,.23.59,1.75,1.75,0,0,0,.45.45,2,2,0,0,0,.65.27,2.47,2.47,0,0,0,.61,0,1.83,1.83,0,0,0,.57-.14,1.28,1.28,0,0,0,.46-.34,1.34,1.34,0,0,0,.26-.55,1,1,0,0,0,0-.65,1.69,1.69,0,0,0-.35-.53,3.77,3.77,0,0,0-.53-.42l-.55-.33-.57-.36a5.66,5.66,0,0,1-.54-.43,4.16,4.16,0,0,1-.46-.48,2.64,2.64,0,0,1-.34-.55,2.24,2.24,0,0,1-.16-.63,1.87,1.87,0,0,1,.05-.7,1.84,1.84,0,0,1,.47-.92,2.34,2.34,0,0,1,.8-.55,2.86,2.86,0,0,1,1-.21,3.84,3.84,0,0,1,1,.08,4,4,0,0,1,1,.42,3.44,3.44,0,0,1,.84.71,2.79,2.79,0,0,1,.5.95,2.34,2.34,0,0,1,0,1.12L66.83,100a2.2,2.2,0,0,0-.06-.74,1.68,1.68,0,0,0-.29-.6,1.84,1.84,0,0,0-.51-.45,2.37,2.37,0,0,0-.69-.27,2.25,2.25,0,0,0-.63-.06,1.45,1.45,0,0,0-.59.12,1.39,1.39,0,0,0-.48.32A1.19,1.19,0,0,0,63.3,98.83Z" style="fill:#fff"/><path d="M53.45,101.72l2.53.75,2.15-7.3,1,.3L57,102.77l2.53.74-.26.89-6.07-1.79Z" style="fill:#fff"/><path d="M46.27,100.09l2-5.42a3.3,3.3,0,0,1,.6-1,2.83,2.83,0,0,1,.85-.66,2.8,2.8,0,0,1,1-.26A2.51,2.51,0,0,1,51.9,93a2.7,2.7,0,0,1,1,.6,2.47,2.47,0,0,1,.6.88,2.86,2.86,0,0,1,.22,1,3.21,3.21,0,0,1-.2,1.13l-2,5.41-1-.36,2-5.42a2.38,2.38,0,0,0,.15-.73,2,2,0,0,0-.09-.7,1.62,1.62,0,0,0-.35-.59,1.57,1.57,0,0,0-.63-.41,1.67,1.67,0,0,0-.75-.11,1.57,1.57,0,0,0-.64.22,2.13,2.13,0,0,0-.53.47,3,3,0,0,0-.37.65l-2,5.4Z" style="fill:#fff"/><path d="M47.67,91.43,44,99.16l-1.78-.84a4.43,4.43,0,0,1-1.32-.95,3.25,3.25,0,0,1-.72-1.24,3.4,3.4,0,0,1-.14-1.43,5.09,5.09,0,0,1,.44-1.57l.27-.56a4.93,4.93,0,0,1,.91-1.34,3.36,3.36,0,0,1,1.2-.81,3.18,3.18,0,0,1,1.41-.23,4.28,4.28,0,0,1,1.57.4Zm-4.24,6.45,2.87-6.11-.8-.37a2.69,2.69,0,0,0-1.18-.29,2.36,2.36,0,0,0-1,.23,2.58,2.58,0,0,0-.86.67,4.71,4.71,0,0,0-.66,1l-.27.58a4.42,4.42,0,0,0-.36,1.16,2.6,2.6,0,0,0,0,1.08,2.18,2.18,0,0,0,.48.93,2.8,2.8,0,0,0,1,.73Z" style="fill:#fff"/><path d="M36.8,95.62,32.37,93l.48-.81,1.76,1L38,87.5l-1.75-1,.48-.81,4.43,2.64-.48.8-1.72-1-3.4,5.72,1.72,1Z" style="fill:#fff"/><path d="M28.44,84.18a5.77,5.77,0,0,1,.63-.68,5,5,0,0,1,.73-.58,4.27,4.27,0,0,1,.8-.4,3.13,3.13,0,0,1,.85-.17,2.6,2.6,0,0,1,.87.11,2.63,2.63,0,0,1,.85.46,2.61,2.61,0,0,1,1,1.52,3.14,3.14,0,0,1,0,.87,4.44,4.44,0,0,1-.18.88,5.33,5.33,0,0,1-.37.85,5.19,5.19,0,0,1-.5.78l-.59.77a5.77,5.77,0,0,1-.63.68,4.36,4.36,0,0,1-.73.57,3.81,3.81,0,0,1-.81.4,2.81,2.81,0,0,1-.85.18,2.37,2.37,0,0,1-.87-.11,2.8,2.8,0,0,1-.85-.45,2.77,2.77,0,0,1-.66-.72,2.33,2.33,0,0,1-.32-.81,2.8,2.8,0,0,1,0-.87,4,4,0,0,1,.19-.88,4.87,4.87,0,0,1,.37-.85,5.24,5.24,0,0,1,.51-.78Zm.25,1.43c-.13.17-.24.34-.36.53a4.75,4.75,0,0,0-.31.59,3.83,3.83,0,0,0-.2.63,2,2,0,0,0,0,.63,1.74,1.74,0,0,0,.17.59,1.64,1.64,0,0,0,.45.51,1.51,1.51,0,0,0,.61.3,1.57,1.57,0,0,0,.61,0,1.93,1.93,0,0,0,.6-.2,3.06,3.06,0,0,0,.56-.35,5.24,5.24,0,0,0,.5-.44L31.7,88l.6-.78a5.41,5.41,0,0,0,.35-.53A4.25,4.25,0,0,0,33,86a5.1,5.1,0,0,0,.2-.63,2,2,0,0,0,0-.63,1.74,1.74,0,0,0-.17-.59,1.67,1.67,0,0,0-.45-.52,1.65,1.65,0,0,0-.61-.3,1.57,1.57,0,0,0-.61,0,1.93,1.93,0,0,0-.6.2,3.94,3.94,0,0,0-.55.35,4.32,4.32,0,0,0-.5.45l-.42.49Z" style="fill:#fff"/><path d="M25,78.41a1.17,1.17,0,0,0-.36.58,1.76,1.76,0,0,0,0,.65,3.32,3.32,0,0,0,.2.66c.09.22.19.43.28.62s.26.59.37.91a4.21,4.21,0,0,1,.21,1,2.49,2.49,0,0,1-.09.94,1.93,1.93,0,0,1-.53.83,2,2,0,0,1-.89.49,2.44,2.44,0,0,1-1,0,3,3,0,0,1-.94-.34,3.53,3.53,0,0,1-.8-.63,3.16,3.16,0,0,1-.59-.91,2.93,2.93,0,0,1-.25-1,2.73,2.73,0,0,1,.16-1,2.41,2.41,0,0,1,.6-.91l.76.81a2.22,2.22,0,0,0-.36.6,1.47,1.47,0,0,0-.14.61,1.52,1.52,0,0,0,.12.62,1.85,1.85,0,0,0,.38.59,2,2,0,0,0,.48.38,1.69,1.69,0,0,0,.55.21,1.37,1.37,0,0,0,.57,0,1.16,1.16,0,0,0,.53-.31,1,1,0,0,0,.33-.56,1.67,1.67,0,0,0,0-.63,3.15,3.15,0,0,0-.2-.64l-.26-.59a5.8,5.8,0,0,1-.27-.62,5,5,0,0,1-.22-.65,5,5,0,0,1-.11-.66,2.84,2.84,0,0,1,0-.65,2.32,2.32,0,0,1,.21-.61,2,2,0,0,1,.44-.55,1.89,1.89,0,0,1,.9-.5,2.27,2.27,0,0,1,1,0,3.12,3.12,0,0,1,.94.37,3.92,3.92,0,0,1,.8.65,3.52,3.52,0,0,1,.63.94,3.1,3.1,0,0,1,.29,1.06,2.55,2.55,0,0,1-.11,1.06,2.32,2.32,0,0,1-.6,1l-.75-.81a2,2,0,0,0,.36-.64,1.69,1.69,0,0,0-.07-1.32,2.38,2.38,0,0,0-.42-.61,2.32,2.32,0,0,0-.49-.4,1.77,1.77,0,0,0-.55-.24,1.42,1.42,0,0,0-.58,0A1.33,1.33,0,0,0,25,78.41Z" style="fill:#fff"/><path d="M16.76,64.68a6.64,6.64,0,0,1,.91-.15,5.79,5.79,0,0,1,.93,0,4.29,4.29,0,0,1,.88.18,2.66,2.66,0,0,1,.77.39,2.29,2.29,0,0,1,.62.62,2.73,2.73,0,0,1,.39.88,2.47,2.47,0,0,1,.08,1,2.39,2.39,0,0,1-.24.84,2.69,2.69,0,0,1-.5.71,3.58,3.58,0,0,1-.69.59,4.51,4.51,0,0,1-.81.44,5.64,5.64,0,0,1-.87.31l-.94.24a6.79,6.79,0,0,1-.92.15,4.71,4.71,0,0,1-.92,0,3.79,3.79,0,0,1-.89-.17,3.16,3.16,0,0,1-.78-.39,2.44,2.44,0,0,1-.62-.62,2.83,2.83,0,0,1-.39-.88,3,3,0,0,1-.08-1,2.91,2.91,0,0,1,.24-.84,3.15,3.15,0,0,1,.5-.71,4.82,4.82,0,0,1,.69-.58,5,5,0,0,1,.82-.44,5.76,5.76,0,0,1,.88-.31ZM16.07,66c-.2.06-.4.12-.61.2a4.66,4.66,0,0,0-.6.28,3.53,3.53,0,0,0-.55.37,2.06,2.06,0,0,0-.42.47,1.58,1.58,0,0,0-.22.57,1.6,1.6,0,0,0,0,.68,1.65,1.65,0,0,0,.29.61,1.79,1.79,0,0,0,.48.39,1.88,1.88,0,0,0,.59.21,2.84,2.84,0,0,0,.66.07,4.89,4.89,0,0,0,.66,0,5.3,5.3,0,0,0,.62-.11l1-.24c.19-.06.39-.12.6-.2a4.85,4.85,0,0,0,.61-.29,4,4,0,0,0,.54-.37,2.38,2.38,0,0,0,.43-.47,1.7,1.7,0,0,0,.22-.58,1.59,1.59,0,0,0,0-.68,1.74,1.74,0,0,0-.3-.61,1.5,1.5,0,0,0-.47-.4,2.28,2.28,0,0,0-.59-.2,3.68,3.68,0,0,0-.66-.06,3.78,3.78,0,0,0-.67,0,5.86,5.86,0,0,0-.63.12Z" style="fill:#fff"/><path d="M17.1,59.49,17,61.19l3.47.26-.08,1.08-8.51-.63L12,59.4a4.29,4.29,0,0,1,.26-1.11,2.61,2.61,0,0,1,.54-.88,2.24,2.24,0,0,1,.84-.57,2.68,2.68,0,0,1,1.13-.14,2.17,2.17,0,0,1,.75.18,2.25,2.25,0,0,1,.6.37,2.63,2.63,0,0,1,.46.54,3.18,3.18,0,0,1,.32.67l3.77-1.53h.07l-.08,1.14Zm-1,1.64.11-1.45a2.25,2.25,0,0,0-.07-.69,1.52,1.52,0,0,0-.27-.59,1.47,1.47,0,0,0-.47-.42,1.55,1.55,0,0,0-.67-.19,1.91,1.91,0,0,0-.73.08,1.38,1.38,0,0,0-.54.34,1.53,1.53,0,0,0-.35.54,2.71,2.71,0,0,0-.17.72l-.1,1.42Z" style="fill:#fff"/><path d="M24.57,45.1l-1.69,2.29,1.36,1.87-.65.87-5.2-7.3.54-.73L27.39,45l-.64.87Zm-2.28,1.49,1.35-1.82L20,43.47Z" style="fill:#fff"/><path d="M31.52,39.69a3.46,3.46,0,0,1-.27,1.52,3.85,3.85,0,0,1-.93,1.26,2.94,2.94,0,0,1-.82.53,2.54,2.54,0,0,1-.87.22,3,3,0,0,1-.89,0,3.87,3.87,0,0,1-.87-.29,4.79,4.79,0,0,1-.81-.48,6.13,6.13,0,0,1-.71-.64L24.68,41a6.84,6.84,0,0,1-.58-.75,4.76,4.76,0,0,1-.43-.84,3.77,3.77,0,0,1-.25-.87,3.17,3.17,0,0,1,0-.87,2.87,2.87,0,0,1,.28-.84,3.12,3.12,0,0,1,1.55-1.38,2.53,2.53,0,0,1,1-.21,2.56,2.56,0,0,1,1,.2,3,3,0,0,1,.93.61l-.78.72a4,4,0,0,0-.61-.37,1.81,1.81,0,0,0-.63-.15,1.5,1.5,0,0,0-.62.1,1.76,1.76,0,0,0-.61.38,1.61,1.61,0,0,0-.41.56,1.71,1.71,0,0,0-.15.62,2,2,0,0,0,.08.63,3,3,0,0,0,.25.62,4.25,4.25,0,0,0,.35.58,5.53,5.53,0,0,0,.41.52l.68.73a5.42,5.42,0,0,0,.49.46,4.35,4.35,0,0,0,.57.38,3.11,3.11,0,0,0,.62.28,2,2,0,0,0,.64.11,1.75,1.75,0,0,0,1.24-.47,3.27,3.27,0,0,0,.33-.32,2.14,2.14,0,0,0,.28-.39,2.35,2.35,0,0,0,.19-.43,1.18,1.18,0,0,0,0-.46l-1.29-1.42L28,39.94l-.62-.68,2-1.87Z" style="fill:#fff"/><path d="M35.17,33.68l-2.94,2,1.7,2.49,3.43-2.35.52.76-4.32,3-4.82-7L33,29.59l.52.77-3.38,2.31,1.55,2.27,2.94-2Z" style="fill:#fff"/><path d="M44.16,33.17l-1,.51-5.92-4.06,3,5.63-1,.52-4-7.53,1-.52,5.92,4.06-3-5.63,1-.51Z" style="fill:#fff"/><path d="M49.87,27.89A4,4,0,0,1,50,29a2.66,2.66,0,0,1-.22,1,2.49,2.49,0,0,1-.58.84,3.07,3.07,0,0,1-1,.62,2.84,2.84,0,0,1-.94.24,2.53,2.53,0,0,1-.87-.09,2.68,2.68,0,0,1-.78-.34,3.91,3.91,0,0,1-.67-.56,5,5,0,0,1-.57-.72,6.59,6.59,0,0,1-.44-.83l-.47-1.1a7.06,7.06,0,0,1-.28-.89,4.87,4.87,0,0,1-.13-.91,4.24,4.24,0,0,1,.07-.88,2.73,2.73,0,0,1,.29-.8,2.7,2.7,0,0,1,.54-.68,3.39,3.39,0,0,1,2-.78,2.5,2.5,0,0,1,1,.18,2.62,2.62,0,0,1,.87.57,3.61,3.61,0,0,1,.7.91l-1,.42a3,3,0,0,0-.45-.59,1.93,1.93,0,0,0-.54-.41,1.44,1.44,0,0,0-.65-.15,1.7,1.7,0,0,0-.73.15,1.77,1.77,0,0,0-.58.38,1.73,1.73,0,0,0-.34.52,2,2,0,0,0-.13.6,2.83,2.83,0,0,0,0,.65,5.18,5.18,0,0,0,.14.66c.07.22.14.42.22.62l.47,1.1a5.35,5.35,0,0,0,.29.59,4.24,4.24,0,0,0,.38.56,2.24,2.24,0,0,0,.45.47,1.91,1.91,0,0,0,.52.33,1.54,1.54,0,0,0,.61.12,1.78,1.78,0,0,0,.68-.15,2,2,0,0,0,.63-.41,1.62,1.62,0,0,0,.34-.56,1.76,1.76,0,0,0,.09-.66,2.69,2.69,0,0,0-.11-.73Z" style="fill:#fff"/><path d="M49.7,21.61,54.58,20l.3.89L53,21.51l2.12,6.3L57,27.16l.3.89-4.89,1.64-.3-.89L54,28.17l-2.12-6.31L50,22.5Z" style="fill:#fff"/><path d="M62.78,22.46l-3.44.91.77,2.92,4-1.06.23.89L59.3,27.46l-2.18-8.25,5-1.33.24.9-4,1,.7,2.65,3.45-.91Z" style="fill:#fff"/><path d="M70.19,22.69a1.11,1.11,0,0,0-.31-.61,1.7,1.7,0,0,0-.54-.36,3.57,3.57,0,0,0-.66-.18L68,21.45a8.52,8.52,0,0,1-1-.16A3.67,3.67,0,0,1,66.1,21a2.49,2.49,0,0,1-.76-.57,1.8,1.8,0,0,1-.42-.89,1.91,1.91,0,0,1,0-1,2.2,2.2,0,0,1,.48-.84,2.77,2.77,0,0,1,.78-.62,3.12,3.12,0,0,1,1-.35,2.86,2.86,0,0,1,1.09,0,3,3,0,0,1,1,.32,2.66,2.66,0,0,1,.79.67,2.5,2.5,0,0,1,.45,1l-1.09.22a2.4,2.4,0,0,0-.31-.62,1.58,1.58,0,0,0-1-.67,2.08,2.08,0,0,0-.7,0,1.92,1.92,0,0,0-.58.21,1.89,1.89,0,0,0-.47.36,1.35,1.35,0,0,0-.27.5,1.25,1.25,0,0,0,0,.61,1.09,1.09,0,0,0,.31.58,1.69,1.69,0,0,0,.53.33,3.45,3.45,0,0,0,.65.17l.64.08c.22,0,.45,0,.67.09s.45.1.67.16a4.26,4.26,0,0,1,.62.26,2.75,2.75,0,0,1,.53.36,2.24,2.24,0,0,1,.41.51,2.16,2.16,0,0,1,.25.66,2,2,0,0,1-.06,1,2.43,2.43,0,0,1-.5.83,3,3,0,0,1-.81.6,3.93,3.93,0,0,1-1,.34,3.82,3.82,0,0,1-1.12,0A3.42,3.42,0,0,1,66.77,25a2.79,2.79,0,0,1-.84-.65,2.34,2.34,0,0,1-.5-1l1.09-.22a1.93,1.93,0,0,0,.35.65,1.88,1.88,0,0,0,.51.43,2,2,0,0,0,.65.2,2.67,2.67,0,0,0,.74,0,2.49,2.49,0,0,0,.6-.2,2,2,0,0,0,.49-.35,1.54,1.54,0,0,0,.3-.49A1.11,1.11,0,0,0,70.19,22.69Z" style="fill:#fff"/><path d="M82,18.92a.74.74,0,0,1,.13-.49.65.65,0,0,1,.48-.23.67.67,0,0,1,.52.14.72.72,0,0,1,.08.93.65.65,0,0,1-.48.23.61.61,0,0,1-.73-.58Z" style="fill:#fff"/></svg>