<svg width="107" height="26" viewBox="0 0 107 26" fill="none" xmlns="http://www.w3.org/2000/svg">
<path d="M0 0H25.16V25.16H0V0Z" fill="#F26625"/>
<path d="M11.7409 14.258L7.38086 6.12305H9.39386L11.9099 11.239C11.9099 11.323 11.9939 11.407 12.0779 11.491C12.1619 11.575 12.1619 11.659 12.2459 11.826L12.3299 11.91V11.994C12.4139 12.162 12.4139 12.246 12.4979 12.414C12.5819 12.498 12.5819 12.666 12.6659 12.749C12.7499 12.497 12.9179 12.329 13.0009 11.994C13.0849 11.742 13.2529 11.491 13.4209 11.239L15.9369 6.12305H17.7819L13.4219 14.343V19.543H11.7449L11.7409 14.258Z" fill="white"/>
<path d="M35.2307 8.8453C36.2907 8.8453 37.2107 9.1283 37.9187 9.6953L37.2117 10.5453C36.5747 10.1213 35.9387 9.8383 35.1617 9.8383C33.9587 9.8383 33.0397 10.4753 32.5447 11.6783C32.2617 12.3853 32.1207 13.3053 32.1207 14.5083C32.1207 15.4283 32.2607 16.2063 32.4747 16.7723C33.0407 18.1163 33.9607 18.7523 35.3747 18.7523C36.1527 18.7523 36.8607 18.5403 37.4967 18.0453L38.2037 18.9653C37.2837 19.5313 36.3037 19.8153 35.2337 19.8153C33.9607 19.8153 32.8997 19.3203 32.0507 18.2593C31.2007 17.2593 30.8477 15.9253 30.8477 14.2993C30.8477 12.6733 31.2717 11.3993 32.1207 10.3393C32.8987 9.4193 33.9607 8.8533 35.2337 8.8533L35.2307 8.8453ZM39.2627 15.8483C39.2627 14.5753 39.5457 13.5843 40.1827 12.8783C40.8197 12.1723 41.5977 11.7463 42.5877 11.7463C43.7197 11.7463 44.6377 12.1703 45.2757 13.0903C45.7707 13.7973 45.9827 14.7883 45.9827 15.9903C45.9827 17.4053 45.5587 18.5373 44.7797 19.2443C44.1939 19.7589 43.4372 20.0363 42.6577 20.0223C41.5977 20.0223 40.8177 19.6683 40.1817 18.8903C39.5447 18.1833 39.2627 17.1223 39.2627 15.8483ZM44.2147 13.7983C43.8607 13.1613 43.3647 12.7983 42.5877 12.7983C41.8107 12.7983 41.3147 13.0813 40.9607 13.6483C40.6777 14.0723 40.6067 14.7803 40.6067 15.6983C40.6067 16.9013 40.7467 17.7483 41.1017 18.2453C41.4567 18.7423 41.9517 19.0233 42.6577 19.0233C43.5077 19.0233 44.0727 18.5993 44.3557 17.8203C44.4957 17.3963 44.5677 16.8203 44.5677 16.1223C44.6377 15.0623 44.4977 14.2823 44.2137 13.7883L44.2147 13.7983ZM48.2447 13.9383C48.2447 13.1603 48.1747 12.5233 47.9617 12.0383L49.1647 11.7553C49.3767 12.1093 49.4477 12.5333 49.4477 12.8873V12.9573C49.7307 12.6743 50.0137 12.3913 50.4477 12.1793C50.9427 11.8963 51.3677 11.7553 51.7917 11.7553C52.4287 11.7553 52.9947 12.0383 53.3477 12.5333C53.4177 12.6733 53.5597 12.8873 53.6307 13.0283C54.4807 12.1783 55.2577 11.7553 56.1067 11.7553C56.6727 11.7553 57.1667 11.9673 57.5217 12.3213C57.8757 12.7453 58.0877 13.2413 58.0877 13.8073V19.6773H56.7957V13.8773C56.7957 13.0993 56.4417 12.7453 55.7957 12.7453C55.4417 12.7453 55.0177 12.8853 54.6637 13.1693C54.5237 13.3093 54.2397 13.5233 53.8857 13.8063L53.7457 13.9463V19.6763H52.4017V14.1503C52.4017 13.6553 52.3317 13.3003 52.1897 13.1503C51.9777 12.9383 51.7657 12.8673 51.4117 12.8673C50.8457 12.8673 50.2087 13.2213 49.4317 13.9273V19.7273H48.2457L48.2447 13.9383ZM60.2717 8.5623L61.5447 8.2793C61.6847 8.8453 61.7567 9.4823 61.7567 10.2593V12.8763C62.4637 12.1693 63.2427 11.8163 64.0207 11.8163C64.9407 11.8163 65.7187 12.1703 66.2137 12.8763C66.7797 13.5833 67.0637 14.5743 67.0637 15.7763C67.0637 17.0493 66.7807 18.0403 66.2137 18.8183C65.6467 19.5963 64.8697 19.9503 63.9497 19.9503C63.5313 19.9581 63.1177 19.8608 62.7467 19.6673C62.3227 19.4553 62.0397 19.2433 61.8267 18.9603L61.6147 19.8103H60.4117C60.5517 19.4563 60.6237 18.8103 60.6237 17.8303V10.4003C60.5537 9.5503 60.4837 8.9143 60.2697 8.5603L60.2717 8.5623ZM62.3217 13.3623C62.1097 13.5023 61.8977 13.7163 61.7557 13.9283V17.9803C62.2507 18.6173 62.8877 18.9003 63.6557 18.9003C64.2927 18.9003 64.7877 18.6883 65.0707 18.1933C65.4247 17.6273 65.6367 16.8493 65.6367 15.7173C65.6367 14.7173 65.4967 14.0193 65.1417 13.5953C64.8587 13.1713 64.3637 12.9583 63.6557 12.9583C63.2317 12.8883 62.7357 13.0283 62.3117 13.3823L62.3217 13.3623ZM68.9017 9.5623C68.9017 9.2793 68.9717 9.0673 69.1847 8.8553C69.3977 8.6433 69.6087 8.5723 69.8917 8.5723C70.1747 8.5723 70.3867 8.6423 70.5987 8.8553C70.8107 9.0683 70.8817 9.2793 70.8817 9.5623C70.8817 9.8453 70.8117 10.0573 70.5987 10.2693C70.3857 10.4813 70.1747 10.5523 69.8917 10.5523C69.6087 10.5523 69.3967 10.4823 69.1847 10.2693C68.9727 10.0563 68.9017 9.8453 68.9017 9.5623ZM69.1957 19.7403V11.9603L70.4687 11.7483V19.7423L69.1957 19.7403ZM73.2177 13.9383C73.2177 13.3723 73.2177 13.0183 73.1477 12.8783C73.1477 12.6663 73.0077 12.4543 72.8647 12.1003L74.0677 11.7463C74.2612 12.1173 74.3585 12.5309 74.3507 12.9493C75.1287 12.1713 75.9777 11.7463 76.8267 11.7463C77.2507 11.7463 77.6047 11.8163 77.9587 12.0293C78.3127 12.2423 78.5957 12.5243 78.7367 12.8793C78.8767 13.1623 78.9487 13.4453 78.9487 13.7993V19.7413H77.7457V14.4363C77.7457 13.7993 77.6757 13.3763 77.4627 13.1633C77.3524 13.05 77.2203 12.9602 77.0744 12.8994C76.9285 12.8385 76.7717 12.8079 76.6137 12.8093C76.3307 12.8093 75.9067 12.9493 75.4817 13.1633C75.0886 13.3641 74.7304 13.6268 74.4207 13.9413V19.7413H73.2177V13.9383ZM81.7777 13.6553L81.1407 12.8053C82.2007 12.0983 83.2627 11.7453 84.3947 11.7453C85.5267 11.7453 86.2347 12.1693 86.5877 12.9483C86.7277 13.2313 86.7277 13.6553 86.7277 14.2923V14.7163L86.6577 17.2633V17.6173C86.6577 18.0413 86.6577 18.3243 86.7277 18.5373C86.7977 18.8203 87.0107 19.0323 87.2937 19.1743L86.6567 20.0243C86.0907 19.8123 85.7367 19.4583 85.5967 18.8923C84.8897 19.5993 84.1107 19.9523 83.3327 19.9523C82.5547 19.9523 81.9177 19.7403 81.4327 19.3153C81.0087 18.9613 80.7957 18.3953 80.7957 17.6883C80.777 17.2834 80.8653 16.8807 81.0515 16.5207C81.2377 16.1607 81.5154 15.856 81.8567 15.6373C82.5637 15.1423 83.6247 14.9303 84.8987 14.9303H85.4647V14.3643C85.4647 13.7273 85.3947 13.3043 85.1817 13.1613C85.0475 13.0164 84.8828 12.9031 84.6995 12.8298C84.5161 12.7564 84.3187 12.7248 84.1217 12.7373C83.6977 12.7373 83.2017 12.8773 82.6357 13.0913L81.7857 13.6573L81.7777 13.6553ZM85.5277 17.8293L85.5977 15.7793H84.9607C83.8287 15.7793 83.1207 15.9913 82.6967 16.4163C82.4137 16.6993 82.2727 17.1233 82.2727 17.6893C82.2727 18.6093 82.6967 19.1043 83.6167 19.1043C84.0182 19.0813 84.4063 18.9511 84.7405 18.7272C85.0746 18.5033 85.3427 18.1939 85.5167 17.8313L85.5277 17.8293ZM90.7617 11.9573H92.7417L92.3877 12.9573H90.7607V17.9803C90.7607 18.4043 90.8307 18.6873 90.9727 18.9003C91.1127 19.0403 91.3967 19.1833 91.7507 19.1833C92.0337 19.1833 92.3167 19.1133 92.5287 19.0433L92.6687 19.8213C92.2447 20.0333 91.8187 20.1043 91.3247 20.1043C90.1217 20.1043 89.5567 19.5383 89.5567 18.3363V12.9603H88.4957V11.9603H89.4957V11.8203C89.4957 11.6803 89.5657 11.1133 89.6357 10.1933V9.9803L90.9087 9.6973C90.7687 10.5473 90.7687 11.3243 90.7687 11.9613L90.7617 11.9573ZM94.0157 15.8473C94.0157 14.5743 94.2987 13.5833 94.9357 12.8773C95.5017 12.1703 96.3507 11.7453 97.3407 11.7453C98.4727 11.7453 99.3907 12.1693 100.029 13.0893C100.524 13.7963 100.736 14.7873 100.736 15.9893C100.736 17.4043 100.312 18.5363 99.5327 19.2433C98.9469 19.7579 98.1902 20.0353 97.4107 20.0213C96.3507 20.0213 95.5707 19.6673 94.9347 18.8893C94.3687 18.1823 94.0157 17.1213 94.0157 15.8473ZM99.0387 13.7973C98.6847 13.1603 98.1887 12.7973 97.4117 12.7973C96.6347 12.7973 96.1387 13.0803 95.7847 13.6473C95.5017 14.0713 95.4306 14.7793 95.4306 15.6973C95.4306 16.9003 95.5707 17.7473 95.9257 18.2443C96.2807 18.7413 96.7757 19.0223 97.4817 19.0223C98.3317 19.0223 98.8967 18.5983 99.1797 17.8193C99.3197 17.3953 99.3917 16.8193 99.3917 16.1213C99.3917 15.0613 99.2517 14.2813 99.0377 13.7873L99.0387 13.7973ZM103.069 13.7953C103.069 13.0883 102.999 12.5223 102.786 12.0973L103.989 11.7433C104.182 12.1143 104.279 12.5279 104.272 12.9463V13.0863C104.909 12.2363 105.616 11.8133 106.465 11.8133C106.605 11.8133 106.748 11.8133 106.889 11.8833L106.394 13.2273C106.254 13.1573 106.111 13.1573 106.04 13.1573C105.757 13.1573 105.403 13.2273 105.12 13.4403C104.837 13.6533 104.554 13.8643 104.413 14.1473C104.32 14.4207 104.272 14.7075 104.272 14.9963V19.8763H103.069V13.7953Z" fill="#F26625"/>
</svg>
