<svg width="244" height="58" viewBox="0 0 244 58" fill="none" xmlns="http://www.w3.org/2000/svg">
<path d="M67 48.2C67.2667 49.5333 67.88 50.8667 68.84 52.2C69.8 53.48 70.28 54.4667 70.28 55.16V55.48C70.28 56.4933 69.64 57 68.36 57H51.72C50.44 57 49.8 56.4933 49.8 55.48V55.16C49.8 54.6267 50.3333 53.6933 51.4 52.36C52.4667 50.9733 52.8667 49.5867 52.6 48.2L47.8 20.28L35.56 54.6C35.0267 56.1467 34.0667 56.92 32.68 56.92C31.1333 56.92 30.0133 56.1733 29.32 54.68L15.32 19L11 48.2C10.7867 49.5867 11.2133 50.9467 12.28 52.28C13.3467 53.6133 13.88 54.5733 13.88 55.16V55.48C13.88 56.4933 13.24 57 11.96 57H2.04C0.76 57 0.12 56.4933 0.12 55.48V55.16C0.12 54.4667 0.6 53.48 1.56 52.2C2.57333 50.8667 3.18667 49.5333 3.4 48.2L9.48 9C9.69333 7.61333 9.21333 6.25333 8.04 4.92C6.92 3.58666 6.36 2.62666 6.36 2.04V1.72C6.36 0.706663 6.97333 0.199997 8.2 0.199997H18.76C20.9467 0.199997 22.3867 1.16 23.08 3.08L34.68 37L45.88 3.24C46.6267 1.21333 48.0133 0.199997 50.04 0.199997H60.92C62.1467 0.199997 62.76 0.706663 62.76 1.72V2.04C62.76 2.57333 62.1733 3.53333 61 4.92C59.8267 6.30667 59.3733 7.72 59.64 9.16L67 48.2ZM93.7775 57.8C87.5908 57.8 82.3375 55.9067 78.0175 52.12C73.7508 48.28 71.6175 43.48 71.6175 37.72C71.6175 31.96 73.7508 27.2133 78.0175 23.48C82.2842 19.6933 87.3508 17.8 93.2175 17.8C99.2975 17.8 104.471 19.6933 108.738 23.48C113.004 27.2667 115.137 32.0667 115.137 37.88C115.137 43.64 113.058 48.4133 108.898 52.2C104.738 55.9333 99.6975 57.8 93.7775 57.8ZM95.4575 53.88C98.8708 53.88 100.578 50.6 100.578 44.04C100.578 41.64 100.231 38.7867 99.5375 35.48C98.8975 32.1733 97.7775 29.0533 96.1775 26.12C94.6308 23.1867 92.8975 21.72 90.9775 21.72C89.1108 21.72 87.7775 22.5467 86.9775 24.2C86.1775 25.8533 85.7775 28.36 85.7775 31.72C85.7775 33.48 85.9908 35.56 86.4175 37.96C86.8442 40.36 87.4308 42.7867 88.1775 45.24C88.9242 47.64 89.9375 49.6933 91.2175 51.4C92.5508 53.0533 93.9642 53.88 95.4575 53.88ZM162.331 48.28C162.437 49.6133 162.944 50.9467 163.851 52.28C164.757 53.56 165.211 54.5467 165.211 55.24V55.56C165.211 56.5733 164.571 57.08 163.291 57.08H147.291C146.011 57.08 145.371 56.5733 145.371 55.56V55.24C145.371 54.6 145.877 53.6133 146.891 52.28C147.904 50.9467 148.357 49.6133 148.251 48.28L147.451 33.96C147.237 30.0133 146.704 27.2133 145.851 25.56C145.051 23.9067 143.744 23.08 141.931 23.08C140.224 23.08 138.917 23.7733 138.011 25.16C137.157 26.5467 136.731 28.44 136.731 30.84V48.28C136.731 49.6133 137.317 50.9467 138.491 52.28C139.664 53.6133 140.251 54.6 140.251 55.24V55.56C140.251 56.5733 139.611 57.08 138.331 57.08H121.051C119.771 57.08 119.131 56.5733 119.131 55.56V55.24C119.131 54.6 119.717 53.6133 120.891 52.28C122.064 50.9467 122.651 49.6133 122.651 48.28V32.52C122.651 31.4 122.304 30.4667 121.611 29.72C120.917 28.92 120.197 28.2533 119.451 27.72C118.757 27.1333 118.411 26.52 118.411 25.88V25.64C118.411 24.9467 119.051 24.28 120.331 23.64L131.531 18.12C132.544 17.6933 133.291 17.6933 133.771 18.12C134.304 18.4933 134.571 19.1333 134.571 20.04V23.8C136.811 19.8 140.624 17.8 146.011 17.8C150.011 17.8 153.451 19.1067 156.331 21.72C159.211 24.3333 160.864 28.5733 161.291 34.44L162.331 48.28ZM184.671 57.8C180.618 57.8 177.418 56.52 175.071 53.96C172.778 51.4 171.631 47.7467 171.631 43V24.04H168.591C168.058 24.04 167.605 23.88 167.231 23.56C166.911 23.1867 166.751 22.7333 166.751 22.2V20.44C166.751 19.2133 167.365 18.6 168.591 18.6H170.111C172.565 18.6 174.671 17.88 176.431 16.44C178.191 14.9467 179.338 12.9733 179.871 10.52C180.138 9.13333 180.858 8.44 182.031 8.44H183.871C185.311 8.44 186.031 9.13333 186.031 10.52V18.6H194.271C194.805 18.6 195.231 18.7867 195.551 19.16C195.925 19.48 196.111 19.9067 196.111 20.44V22.2C196.111 22.7333 195.925 23.1867 195.551 23.56C195.231 23.88 194.805 24.04 194.271 24.04H186.031V43.24C186.031 44.5733 186.378 45.64 187.071 46.44C187.765 47.1867 188.618 47.56 189.631 47.56C191.925 47.56 193.685 46.5733 194.911 44.6C195.285 44.12 195.711 43.8533 196.191 43.8C196.671 43.6933 197.071 43.7733 197.391 44.04C197.765 44.3067 197.951 44.68 197.951 45.16C197.951 48.52 196.751 51.48 194.351 54.04C192.005 56.5467 188.778 57.8 184.671 57.8ZM221.824 57.8C215.638 57.8 210.384 55.9067 206.064 52.12C201.798 48.28 199.664 43.48 199.664 37.72C199.664 31.96 201.798 27.2133 206.064 23.48C210.331 19.6933 215.398 17.8 221.264 17.8C227.344 17.8 232.518 19.6933 236.784 23.48C241.051 27.2667 243.184 32.0667 243.184 37.88C243.184 43.64 241.104 48.4133 236.944 52.2C232.784 55.9333 227.744 57.8 221.824 57.8ZM223.504 53.88C226.918 53.88 228.624 50.6 228.624 44.04C228.624 41.64 228.278 38.7867 227.584 35.48C226.944 32.1733 225.824 29.0533 224.224 26.12C222.678 23.1867 220.944 21.72 219.024 21.72C217.158 21.72 215.824 22.5467 215.024 24.2C214.224 25.8533 213.824 28.36 213.824 31.72C213.824 33.48 214.038 35.56 214.464 37.96C214.891 40.36 215.478 42.7867 216.224 45.24C216.971 47.64 217.984 49.6933 219.264 51.4C220.598 53.0533 222.011 53.88 223.504 53.88Z" fill="#1A4D4D"/>
</svg>
