<svg width="150" height="150" viewBox="0 0 150 150" fill="none" xmlns="http://www.w3.org/2000/svg">
<path fill-rule="evenodd" clip-rule="evenodd" d="M34 91.6807V20H97.6134V31.5106H102.613V19C102.613 16.7909 100.823 15 98.6134 15H33C30.7909 15 29 16.7909 29 19V92.6807C29 94.8898 30.7909 96.6807 33 96.6807H81.3661V91.6807H34Z" fill="url(#paint0_linear_340_669)"/>
<path fill-rule="evenodd" clip-rule="evenodd" d="M98.0789 47.8251C104.344 47.8251 109.422 42.7345 109.422 36.4546C109.422 30.1746 104.344 25.084 98.0789 25.084C91.814 25.084 86.7355 30.1746 86.7355 36.4546C86.7355 42.7345 91.814 47.8251 98.0789 47.8251ZM105.76 55.4461C110.67 55.4461 114.558 57.6558 117.099 61.0753C119.478 64.2765 120.485 68.2406 120.713 71.8955C120.944 75.6065 120.409 79.496 119.213 82.9606C118.074 86.2603 116.158 89.6711 113.203 92.0108V129.314C113.203 132.272 110.94 134.736 108 134.98C105.059 135.224 102.422 133.167 101.937 130.249L97.0554 100.888H95.9328L90.4195 130.362C89.8799 133.248 87.2365 135.247 84.3201 134.975C81.4038 134.704 79.1733 132.25 79.1733 129.314V75.2388C78.7475 75.8892 78.3531 76.4987 78.0053 77.0407C77.5572 77.7381 77.1889 78.3184 76.9341 78.7228L76.641 79.189L76.5662 79.3087L76.5442 79.3444C75.5086 81.0102 73.688 82.024 71.7297 82.024H52.824C49.6918 82.024 47.1523 79.4789 47.1523 76.3387C47.1523 73.1989 49.6918 70.6535 52.824 70.6535H68.6163C69.5336 69.2291 70.7432 67.3802 72.0144 65.5212C73.339 63.5836 74.7992 61.5339 76.0962 59.9291C76.7303 59.1442 77.4389 58.3236 78.1493 57.6508C78.4972 57.3218 78.9831 56.8958 79.5703 56.5179C79.9892 56.2485 81.2812 55.4461 83.0731 55.4461H105.76Z" fill="url(#paint1_linear_340_669)"/>
<defs>
<linearGradient id="paint0_linear_340_669" x1="29" y1="15" x2="107.368" y2="87.157" gradientUnits="userSpaceOnUse">
<stop stop-color="white"/>
<stop offset="1" stop-color="#D6D6D6"/>
</linearGradient>
<linearGradient id="paint1_linear_340_669" x1="47.1523" y1="25.084" x2="145.784" y2="92.5696" gradientUnits="userSpaceOnUse">
<stop stop-color="white"/>
<stop offset="1" stop-color="#D6D6D6"/>
</linearGradient>
</defs>
</svg>
