<svg width="34" height="36" viewBox="0 0 34 36" fill="none" xmlns="http://www.w3.org/2000/svg">
<g clip-path="url(#clip0_370_273)">
<path d="M34 18.958C34 16.896 33.633 14.919 32.96 13.09C32.5 18.479 29.627 21.247 26.625 19.958C23.813 18.75 25.708 14.041 25.848 11.794C26.084 7.985 25.836 3.625 18.917 0C21.792 5.5 19.25 8.917 16.584 9.125C13.626 9.356 10.917 6.583 11.917 2.083C8.679 4.469 8.585 8.485 9.584 11.083C10.626 13.791 9.542 16.041 7.001 16.291C4.161 16.571 2.583 13.25 4.038 7.958C1.52 10.923 0 14.763 0 18.958C0 28.347 7.611 35.958 17 35.958C26.389 35.958 34 28.347 34 18.958Z" fill="#FB524A"/>
<path d="M34 18.958C34 16.896 33.633 14.919 32.96 13.09C32.5 18.479 29.627 21.247 26.625 19.958C23.813 18.75 25.708 14.041 25.848 11.794C26.084 7.985 25.836 3.625 18.917 0C21.792 5.5 19.25 8.917 16.584 9.125C13.626 9.356 10.917 6.583 11.917 2.083C8.679 4.469 8.585 8.485 9.584 11.083C10.626 13.791 9.542 16.041 7.001 16.291C4.161 16.571 2.583 13.25 4.038 7.958C1.52 10.923 0 14.763 0 18.958C0 28.347 7.611 35.958 17 35.958C26.389 35.958 34 28.347 34 18.958Z" fill="url(#paint0_radial_370_273)"/>
</g>
<defs>
<radialGradient id="paint0_radial_370_273" cx="0" cy="0" r="1" gradientUnits="userSpaceOnUse" gradientTransform="translate(17 26) rotate(90) scale(15.5 14.656)">
<stop offset="0.40625" stop-color="#FFD284" stop-opacity="0.95"/>
<stop offset="1" stop-color="#FB524A"/>
</radialGradient>
<clipPath id="clip0_370_273">
<rect width="34" height="35.958" fill="white"/>
</clipPath>
</defs>
</svg>
