<svg width="20" height="20" viewBox="0 0 20 20" fill="none" xmlns="http://www.w3.org/2000/svg">
<path d="M16.9214 15.7406C17.8453 14.6299 18.4879 13.3133 18.7948 11.902C19.1017 10.4907 19.0639 9.02632 18.6846 7.63273C18.3053 6.23913 17.5956 4.95732 16.6156 3.89572C15.6357 2.83412 14.4142 2.02397 13.0546 1.5338C11.695 1.04363 10.2373 0.887857 8.80469 1.07966C7.3721 1.27147 6.00682 1.80522 4.82434 2.63574C3.64185 3.46627 2.67696 4.56915 2.01129 5.85108C1.34561 7.13301 0.998737 8.55628 1 10.0005C1.00049 12.1 1.74094 14.1322 3.09143 15.7406L3.07856 15.7515C3.12359 15.8055 3.17506 15.8518 3.22138 15.9052C3.27927 15.9714 3.34168 16.0337 3.4015 16.098C3.58163 16.2934 3.76691 16.4811 3.96119 16.6572C4.02038 16.7112 4.08149 16.7613 4.14132 16.8128C4.34718 16.9902 4.55883 17.1586 4.7782 17.3154C4.80651 17.3347 4.83224 17.3598 4.86055 17.3797V17.372C6.36726 18.4314 8.16469 19 10.0071 19C11.8495 19 13.6469 18.4314 15.1536 17.372V17.3797C15.1819 17.3598 15.207 17.3347 15.236 17.3154C15.4547 17.1579 15.667 16.9902 15.8728 16.8128C15.9327 16.7613 15.9938 16.7106 16.053 16.6572C16.2473 16.4804 16.4325 16.2934 16.6127 16.098C16.6725 16.0337 16.7342 15.9714 16.7928 15.9052C16.8385 15.8518 16.8906 15.8055 16.9356 15.7509L16.9214 15.7406ZM10.0064 4.85818C10.579 4.85818 11.1387 5.02783 11.6148 5.34567C12.0908 5.6635 12.4619 6.11526 12.681 6.6438C12.9001 7.17235 12.9574 7.75394 12.8457 8.31504C12.734 8.87614 12.4583 9.39154 12.0535 9.79607C11.6486 10.2006 11.1328 10.4761 10.5712 10.5877C10.0096 10.6993 9.42758 10.642 8.8986 10.4231C8.36962 10.2042 7.91749 9.83342 7.59939 9.35775C7.2813 8.88207 7.11151 8.32283 7.11151 7.75073C7.11151 6.98358 7.41651 6.24785 7.95942 5.70539C8.50232 5.16293 9.23865 4.85818 10.0064 4.85818ZM4.86441 15.7406C4.87557 14.8966 5.21884 14.0909 5.81996 13.4979C6.42108 12.9048 7.23172 12.5721 8.07649 12.5716H11.9364C12.7812 12.5721 13.5918 12.9048 14.1929 13.4979C14.794 14.0909 15.1373 14.8966 15.1485 15.7406C13.7376 17.011 11.9057 17.714 10.0064 17.714C8.1072 17.714 6.2753 17.011 4.86441 15.7406Z" fill="white"/>
</svg>
